%TF.GenerationSoftware,KiCad,Pcbnew,5.1.6-c6e7f7d~87~ubuntu18.04.1*%
%TF.CreationDate,2020-12-17T14:15:19+09:00*%
%TF.ProjectId,M302,4d333032-2e6b-4696-9361-645f70636258,rev?*%
%TF.SameCoordinates,Original*%
%TF.FileFunction,Copper,L2,Bot*%
%TF.FilePolarity,Positive*%
%FSLAX46Y46*%
G04 Gerber Fmt 4.6, Leading zero omitted, Abs format (unit mm)*
G04 Created by KiCad (PCBNEW 5.1.6-c6e7f7d~87~ubuntu18.04.1) date 2020-12-17 14:15:19*
%MOMM*%
%LPD*%
G01*
G04 APERTURE LIST*
%TA.AperFunction,ComponentPad*%
%ADD10O,1.700000X1.950000*%
%TD*%
%TA.AperFunction,ComponentPad*%
%ADD11C,2.000000*%
%TD*%
%TA.AperFunction,ComponentPad*%
%ADD12O,1.320800X2.641600*%
%TD*%
%TA.AperFunction,ComponentPad*%
%ADD13O,2.000000X1.700000*%
%TD*%
%TA.AperFunction,ComponentPad*%
%ADD14C,1.600000*%
%TD*%
%TA.AperFunction,ComponentPad*%
%ADD15R,1.600000X1.600000*%
%TD*%
%TA.AperFunction,ComponentPad*%
%ADD16O,1.950000X1.700000*%
%TD*%
%TA.AperFunction,ComponentPad*%
%ADD17O,1.700000X1.700000*%
%TD*%
%TA.AperFunction,ComponentPad*%
%ADD18R,1.700000X1.700000*%
%TD*%
%TA.AperFunction,ComponentPad*%
%ADD19O,1.600000X1.600000*%
%TD*%
%TA.AperFunction,ComponentPad*%
%ADD20O,1.727200X2.032000*%
%TD*%
%TA.AperFunction,ComponentPad*%
%ADD21C,4.064000*%
%TD*%
%TA.AperFunction,ViaPad*%
%ADD22C,0.600000*%
%TD*%
%TA.AperFunction,Conductor*%
%ADD23C,0.250000*%
%TD*%
%TA.AperFunction,Conductor*%
%ADD24C,1.000000*%
%TD*%
%TA.AperFunction,Conductor*%
%ADD25C,0.500000*%
%TD*%
%TA.AperFunction,Conductor*%
%ADD26C,1.500000*%
%TD*%
%TA.AperFunction,Conductor*%
%ADD27C,2.000000*%
%TD*%
%TA.AperFunction,Conductor*%
%ADD28C,0.254000*%
%TD*%
G04 APERTURE END LIST*
D10*
%TO.P,J5,7*%
%TO.N,/A5(SCL)*%
X132828000Y-93345000D03*
%TO.P,J5,6*%
%TO.N,/A3*%
X135328000Y-93345000D03*
%TO.P,J5,5*%
%TO.N,Net-(J5-Pad5)*%
X137828000Y-93345000D03*
%TO.P,J5,4*%
%TO.N,/A4(SDA)*%
X140328000Y-93345000D03*
%TO.P,J5,3*%
%TO.N,GND*%
X142828000Y-93345000D03*
%TO.P,J5,2*%
%TO.N,Net-(J5-Pad2)*%
X145328000Y-93345000D03*
%TO.P,J5,1*%
%TO.N,+5V*%
%TA.AperFunction,ComponentPad*%
G36*
G01*
X148678000Y-92620000D02*
X148678000Y-94070000D01*
G75*
G02*
X148428000Y-94320000I-250000J0D01*
G01*
X147228000Y-94320000D01*
G75*
G02*
X146978000Y-94070000I0J250000D01*
G01*
X146978000Y-92620000D01*
G75*
G02*
X147228000Y-92370000I250000J0D01*
G01*
X148428000Y-92370000D01*
G75*
G02*
X148678000Y-92620000I0J-250000D01*
G01*
G37*
%TD.AperFunction*%
%TD*%
D11*
%TO.P,SW3,2*%
%TO.N,GND*%
X116118000Y-93980000D03*
%TO.P,SW3,1*%
%TO.N,/4*%
X121118000Y-93980000D03*
%TD*%
D12*
%TO.P,U1,HV1*%
%TO.N,/7*%
X155448000Y-82550000D03*
%TO.P,U1,HV2*%
%TO.N,/6(\u002A\u002A)*%
X157988000Y-82550000D03*
%TO.P,U1,HV*%
%TO.N,+5V*%
X160528000Y-82550000D03*
%TO.P,U1,HGND*%
%TO.N,GND*%
X163068000Y-82550000D03*
%TO.P,U1,HV3*%
%TO.N,/5(\u002A\u002A)*%
X165608000Y-82550000D03*
%TO.P,U1,LGND*%
%TO.N,GND*%
X163068000Y-92710000D03*
%TO.P,U1,LV3*%
%TO.N,Net-(J7-Pad2)*%
X165608000Y-92710000D03*
%TO.P,U1,LV*%
%TO.N,+3V3*%
X160528000Y-92710000D03*
%TO.P,U1,LV2*%
%TO.N,Net-(J7-Pad5)*%
X157988000Y-92710000D03*
%TO.P,U1,HV4*%
%TO.N,/4*%
X168148000Y-82550000D03*
%TO.P,U1,LV4*%
%TO.N,Net-(J7-Pad1)*%
X168148000Y-92710000D03*
%TO.P,U1,LV1*%
%TO.N,Net-(J7-Pad6)*%
X155448000Y-92710000D03*
%TD*%
D13*
%TO.P,J8,2*%
%TO.N,GND*%
X116078000Y-116880000D03*
%TO.P,J8,1*%
%TO.N,+5V*%
%TA.AperFunction,ComponentPad*%
G36*
G01*
X116828000Y-120230000D02*
X115328000Y-120230000D01*
G75*
G02*
X115078000Y-119980000I0J250000D01*
G01*
X115078000Y-118780000D01*
G75*
G02*
X115328000Y-118530000I250000J0D01*
G01*
X116828000Y-118530000D01*
G75*
G02*
X117078000Y-118780000I0J-250000D01*
G01*
X117078000Y-119980000D01*
G75*
G02*
X116828000Y-120230000I-250000J0D01*
G01*
G37*
%TD.AperFunction*%
%TD*%
D14*
%TO.P,C1,2*%
%TO.N,GND*%
X126238000Y-114840000D03*
D15*
%TO.P,C1,1*%
%TO.N,+5V*%
X126238000Y-116840000D03*
%TD*%
D16*
%TO.P,J7,6*%
%TO.N,Net-(J7-Pad6)*%
X156718000Y-102435000D03*
%TO.P,J7,5*%
%TO.N,Net-(J7-Pad5)*%
X156718000Y-104935000D03*
%TO.P,J7,4*%
%TO.N,+3V3*%
X156718000Y-107435000D03*
%TO.P,J7,3*%
%TO.N,GND*%
X156718000Y-109935000D03*
%TO.P,J7,2*%
%TO.N,Net-(J7-Pad2)*%
X156718000Y-112435000D03*
%TO.P,J7,1*%
%TO.N,Net-(J7-Pad1)*%
%TA.AperFunction,ComponentPad*%
G36*
G01*
X157443000Y-115785000D02*
X155993000Y-115785000D01*
G75*
G02*
X155743000Y-115535000I0J250000D01*
G01*
X155743000Y-114335000D01*
G75*
G02*
X155993000Y-114085000I250000J0D01*
G01*
X157443000Y-114085000D01*
G75*
G02*
X157693000Y-114335000I0J-250000D01*
G01*
X157693000Y-115535000D01*
G75*
G02*
X157443000Y-115785000I-250000J0D01*
G01*
G37*
%TD.AperFunction*%
%TD*%
D17*
%TO.P,J6,10*%
%TO.N,Net-(J6-Pad10)*%
X170053000Y-114300000D03*
%TO.P,J6,9*%
%TO.N,/13(SCK)*%
X167513000Y-114300000D03*
%TO.P,J6,8*%
%TO.N,Net-(J6-Pad8)*%
X170053000Y-111760000D03*
%TO.P,J6,7*%
%TO.N,/10(\u002A\u002A/SS)*%
X167513000Y-111760000D03*
%TO.P,J6,6*%
%TO.N,/Reset*%
X170053000Y-109220000D03*
%TO.P,J6,5*%
%TO.N,/11(\u002A\u002A/MOSI)*%
X167513000Y-109220000D03*
%TO.P,J6,4*%
%TO.N,GND*%
X170053000Y-106680000D03*
%TO.P,J6,3*%
%TO.N,/12(MISO)*%
X167513000Y-106680000D03*
%TO.P,J6,2*%
%TO.N,+5V*%
X170053000Y-104140000D03*
D18*
%TO.P,J6,1*%
%TO.N,+3V3*%
X167513000Y-104140000D03*
%TD*%
D11*
%TO.P,SW1,2*%
%TO.N,/Reset*%
X121118000Y-80010000D03*
%TO.P,SW1,1*%
%TO.N,GND*%
X116118000Y-80010000D03*
%TD*%
D19*
%TO.P,R1,2*%
%TO.N,/Reset*%
X126873000Y-83185000D03*
D14*
%TO.P,R1,1*%
%TO.N,+5V*%
X126873000Y-93345000D03*
%TD*%
D11*
%TO.P,SW2,2*%
%TO.N,/A3*%
X121118000Y-86995000D03*
%TO.P,SW2,1*%
%TO.N,GND*%
X116118000Y-86995000D03*
%TD*%
D20*
%TO.P,P1,1*%
%TO.N,Net-(P1-Pad1)*%
X138938000Y-123825000D03*
%TO.P,P1,2*%
%TO.N,/IOREF*%
X141478000Y-123825000D03*
%TO.P,P1,3*%
%TO.N,/Reset*%
X144018000Y-123825000D03*
%TO.P,P1,4*%
%TO.N,+3V3*%
X146558000Y-123825000D03*
%TO.P,P1,5*%
%TO.N,+5V*%
X149098000Y-123825000D03*
%TO.P,P1,6*%
%TO.N,GND*%
X151638000Y-123825000D03*
%TO.P,P1,7*%
X154178000Y-123825000D03*
%TO.P,P1,8*%
%TO.N,Net-(P1-Pad8)*%
X156718000Y-123825000D03*
%TD*%
%TO.P,P2,1*%
%TO.N,/A0*%
X161798000Y-123825000D03*
%TO.P,P2,2*%
%TO.N,/A1*%
X164338000Y-123825000D03*
%TO.P,P2,3*%
%TO.N,/A2*%
X166878000Y-123825000D03*
%TO.P,P2,4*%
%TO.N,/A3*%
X169418000Y-123825000D03*
%TO.P,P2,5*%
%TO.N,/A4(SDA)*%
X171958000Y-123825000D03*
%TO.P,P2,6*%
%TO.N,/A5(SCL)*%
X174498000Y-123825000D03*
%TD*%
%TO.P,P3,1*%
%TO.N,/A5(SCL)*%
X129794000Y-75565000D03*
%TO.P,P3,2*%
%TO.N,/A4(SDA)*%
X132334000Y-75565000D03*
%TO.P,P3,3*%
%TO.N,/AREF*%
X134874000Y-75565000D03*
%TO.P,P3,4*%
%TO.N,GND*%
X137414000Y-75565000D03*
%TO.P,P3,5*%
%TO.N,/13(SCK)*%
X139954000Y-75565000D03*
%TO.P,P3,6*%
%TO.N,/12(MISO)*%
X142494000Y-75565000D03*
%TO.P,P3,7*%
%TO.N,/11(\u002A\u002A/MOSI)*%
X145034000Y-75565000D03*
%TO.P,P3,8*%
%TO.N,/10(\u002A\u002A/SS)*%
X147574000Y-75565000D03*
%TO.P,P3,9*%
%TO.N,/9(\u002A\u002A)*%
X150114000Y-75565000D03*
%TO.P,P3,10*%
%TO.N,/8*%
X152654000Y-75565000D03*
%TD*%
%TO.P,P4,1*%
%TO.N,/7*%
X156718000Y-75565000D03*
%TO.P,P4,2*%
%TO.N,/6(\u002A\u002A)*%
X159258000Y-75565000D03*
%TO.P,P4,3*%
%TO.N,/5(\u002A\u002A)*%
X161798000Y-75565000D03*
%TO.P,P4,4*%
%TO.N,/4*%
X164338000Y-75565000D03*
%TO.P,P4,5*%
%TO.N,/3(\u002A\u002A)*%
X166878000Y-75565000D03*
%TO.P,P4,6*%
%TO.N,/2*%
X169418000Y-75565000D03*
%TO.P,P4,7*%
%TO.N,/1(Tx)*%
X171958000Y-75565000D03*
%TO.P,P4,8*%
%TO.N,/0(Rx)*%
X174498000Y-75565000D03*
%TD*%
D21*
%TO.P,P5,1*%
%TO.N,Net-(P5-Pad1)*%
X124968000Y-123825000D03*
%TD*%
%TO.P,P6,1*%
%TO.N,Net-(P6-Pad1)*%
X177038000Y-118745000D03*
%TD*%
%TO.P,P7,1*%
%TO.N,Net-(P7-Pad1)*%
X126238000Y-75565000D03*
%TD*%
%TO.P,P8,1*%
%TO.N,Net-(P8-Pad1)*%
X177038000Y-90805000D03*
%TD*%
D16*
%TO.P,J1,4*%
%TO.N,/A5(SCL)*%
X116078000Y-101085000D03*
%TO.P,J1,3*%
%TO.N,/A4(SDA)*%
X116078000Y-103585000D03*
%TO.P,J1,2*%
%TO.N,+5V*%
X116078000Y-106085000D03*
%TO.P,J1,1*%
%TO.N,GND*%
%TA.AperFunction,ComponentPad*%
G36*
G01*
X116803000Y-109435000D02*
X115353000Y-109435000D01*
G75*
G02*
X115103000Y-109185000I0J250000D01*
G01*
X115103000Y-107985000D01*
G75*
G02*
X115353000Y-107735000I250000J0D01*
G01*
X116803000Y-107735000D01*
G75*
G02*
X117053000Y-107985000I0J-250000D01*
G01*
X117053000Y-109185000D01*
G75*
G02*
X116803000Y-109435000I-250000J0D01*
G01*
G37*
%TD.AperFunction*%
%TD*%
%TO.P,J2,1*%
%TO.N,GND*%
%TA.AperFunction,ComponentPad*%
G36*
G01*
X126963000Y-109435000D02*
X125513000Y-109435000D01*
G75*
G02*
X125263000Y-109185000I0J250000D01*
G01*
X125263000Y-107985000D01*
G75*
G02*
X125513000Y-107735000I250000J0D01*
G01*
X126963000Y-107735000D01*
G75*
G02*
X127213000Y-107985000I0J-250000D01*
G01*
X127213000Y-109185000D01*
G75*
G02*
X126963000Y-109435000I-250000J0D01*
G01*
G37*
%TD.AperFunction*%
%TO.P,J2,2*%
%TO.N,+5V*%
X126238000Y-106085000D03*
%TO.P,J2,3*%
%TO.N,/A4(SDA)*%
X126238000Y-103585000D03*
%TO.P,J2,4*%
%TO.N,/A5(SCL)*%
X126238000Y-101085000D03*
%TD*%
%TO.P,J3,4*%
%TO.N,/A5(SCL)*%
X136398000Y-101085000D03*
%TO.P,J3,3*%
%TO.N,/A4(SDA)*%
X136398000Y-103585000D03*
%TO.P,J3,2*%
%TO.N,+5V*%
X136398000Y-106085000D03*
%TO.P,J3,1*%
%TO.N,GND*%
%TA.AperFunction,ComponentPad*%
G36*
G01*
X137123000Y-109435000D02*
X135673000Y-109435000D01*
G75*
G02*
X135423000Y-109185000I0J250000D01*
G01*
X135423000Y-107985000D01*
G75*
G02*
X135673000Y-107735000I250000J0D01*
G01*
X137123000Y-107735000D01*
G75*
G02*
X137373000Y-107985000I0J-250000D01*
G01*
X137373000Y-109185000D01*
G75*
G02*
X137123000Y-109435000I-250000J0D01*
G01*
G37*
%TD.AperFunction*%
%TD*%
%TO.P,J4,1*%
%TO.N,GND*%
%TA.AperFunction,ComponentPad*%
G36*
G01*
X147283000Y-109435000D02*
X145833000Y-109435000D01*
G75*
G02*
X145583000Y-109185000I0J250000D01*
G01*
X145583000Y-107985000D01*
G75*
G02*
X145833000Y-107735000I250000J0D01*
G01*
X147283000Y-107735000D01*
G75*
G02*
X147533000Y-107985000I0J-250000D01*
G01*
X147533000Y-109185000D01*
G75*
G02*
X147283000Y-109435000I-250000J0D01*
G01*
G37*
%TD.AperFunction*%
%TO.P,J4,2*%
%TO.N,+5V*%
X146558000Y-106085000D03*
%TO.P,J4,3*%
%TO.N,/A4(SDA)*%
X146558000Y-103585000D03*
%TO.P,J4,4*%
%TO.N,/A5(SCL)*%
X146558000Y-101085000D03*
%TD*%
D22*
%TO.N,*%
X159258000Y-97155000D03*
X154178000Y-97155000D03*
%TO.N,/Reset*%
X144653000Y-114935000D03*
%TO.N,+5V*%
X160528000Y-86995000D03*
%TO.N,GND*%
X140843000Y-108585000D03*
%TO.N,/A3*%
X151003000Y-111760000D03*
X142748000Y-110490000D03*
X142748000Y-97790000D03*
%TO.N,/A4(SDA)*%
X152273000Y-109855000D03*
%TO.N,/A5(SCL)*%
X153543000Y-109855000D03*
%TO.N,/13(SCK)*%
X151003000Y-90170000D03*
%TO.N,/10(\u002A\u002A/SS)*%
X152908000Y-89535000D03*
%TO.N,/12(MISO)*%
X150368000Y-88265000D03*
%TO.N,/11(\u002A\u002A/MOSI)*%
X151638000Y-88900000D03*
%TD*%
D23*
%TO.N,/Reset*%
X121118000Y-80010000D02*
X126873000Y-80010000D01*
X126873000Y-80010000D02*
X126873000Y-83185000D01*
X170053000Y-109220000D02*
X171958000Y-109220000D01*
X171958000Y-109220000D02*
X172593000Y-109855000D01*
X172593000Y-109855000D02*
X172593000Y-116205000D01*
X172593000Y-116205000D02*
X171958000Y-116840000D01*
X171958000Y-116840000D02*
X151003000Y-116840000D01*
X151003000Y-116840000D02*
X149098000Y-114935000D01*
X149098000Y-114935000D02*
X144653000Y-114935000D01*
X144653000Y-114935000D02*
X144653000Y-114935000D01*
D24*
%TO.N,+5V*%
X116078000Y-106085000D02*
X126238000Y-106085000D01*
X126238000Y-106085000D02*
X136398000Y-106085000D01*
X172593000Y-101600000D02*
X170053000Y-104140000D01*
X172593000Y-88900000D02*
X172593000Y-101600000D01*
X170688000Y-86995000D02*
X172593000Y-88900000D01*
X149098000Y-86995000D02*
X170688000Y-86995000D01*
X147828000Y-88265000D02*
X149098000Y-86995000D01*
X147828000Y-93345000D02*
X147828000Y-88265000D01*
X138938000Y-107395000D02*
X137628000Y-106085000D01*
X138938000Y-111760000D02*
X138938000Y-107395000D01*
X137033000Y-113665000D02*
X138938000Y-111760000D01*
X137033000Y-116840000D02*
X137033000Y-113665000D01*
D25*
X136398000Y-106085000D02*
X137628000Y-106085000D01*
D24*
X136398000Y-106085000D02*
X146558000Y-106085000D01*
D26*
X123698000Y-119380000D02*
X126238000Y-116840000D01*
X116078000Y-119380000D02*
X123698000Y-119380000D01*
X126238000Y-116840000D02*
X126238000Y-117475000D01*
X149098000Y-123647769D02*
X149098000Y-123825000D01*
X149098000Y-119380000D02*
X149098000Y-123647769D01*
X137033000Y-116840000D02*
X137033000Y-119380000D01*
X126238000Y-117475000D02*
X126873000Y-118110000D01*
X126873000Y-118110000D02*
X128143000Y-119380000D01*
D27*
X128143000Y-119380000D02*
X149098000Y-119380000D01*
D23*
%TO.N,/A3*%
X121118000Y-86995000D02*
X132588000Y-86995000D01*
X135328000Y-89735000D02*
X135328000Y-93345000D01*
X132588000Y-86995000D02*
X135328000Y-89735000D01*
X142748000Y-111760000D02*
X143383000Y-111760000D01*
X143383000Y-111760000D02*
X151003000Y-111760000D01*
X142748000Y-110490000D02*
X142748000Y-111760000D01*
X135763000Y-97155000D02*
X135328000Y-96520000D01*
X136398000Y-97790000D02*
X135763000Y-97155000D01*
X142748000Y-97790000D02*
X136398000Y-97790000D01*
X135328000Y-96520000D02*
X135328000Y-93345000D01*
%TO.N,/A4(SDA)*%
X116078000Y-103585000D02*
X126238000Y-103585000D01*
X126238000Y-103585000D02*
X136398000Y-103585000D01*
X136398000Y-103585000D02*
X146558000Y-103585000D01*
X151083000Y-103585000D02*
X146558000Y-103585000D01*
X152273000Y-104775000D02*
X151083000Y-103585000D01*
X152273000Y-109855000D02*
X152273000Y-104775000D01*
%TO.N,/A5(SCL)*%
X116078000Y-101085000D02*
X126238000Y-101085000D01*
X126238000Y-101085000D02*
X136398000Y-101085000D01*
X136398000Y-101085000D02*
X146558000Y-101085000D01*
X136398000Y-101085000D02*
X136398000Y-100330000D01*
X136398000Y-100330000D02*
X135128000Y-99060000D01*
X135128000Y-99060000D02*
X133858000Y-99060000D01*
X132828000Y-98030000D02*
X132828000Y-93345000D01*
X133858000Y-99060000D02*
X132828000Y-98030000D01*
X153543000Y-102870000D02*
X151758000Y-101085000D01*
X151758000Y-101085000D02*
X146558000Y-101085000D01*
X153543000Y-109855000D02*
X153543000Y-102870000D01*
%TO.N,/7*%
X155448000Y-82550000D02*
X155448000Y-79375000D01*
X155448000Y-79375000D02*
X156718000Y-78105000D01*
X156718000Y-78105000D02*
X156718000Y-75565000D01*
%TO.N,/6(\u002A\u002A)*%
X159258000Y-78105000D02*
X159258000Y-75565000D01*
X157988000Y-79375000D02*
X159258000Y-78105000D01*
X157988000Y-82550000D02*
X157988000Y-79375000D01*
%TO.N,/5(\u002A\u002A)*%
X165608000Y-82550000D02*
X165608000Y-81280000D01*
X161798000Y-77470000D02*
X161798000Y-75565000D01*
X165608000Y-81280000D02*
X161798000Y-77470000D01*
%TO.N,/4*%
X168148000Y-84455000D02*
X168148000Y-82550000D01*
X166878000Y-85725000D02*
X168148000Y-84455000D01*
X123698000Y-85725000D02*
X166878000Y-85725000D01*
X122428000Y-84455000D02*
X123698000Y-85725000D01*
X118618000Y-85725000D02*
X119888000Y-84455000D01*
X118618000Y-91480000D02*
X118618000Y-85725000D01*
X119888000Y-84455000D02*
X122428000Y-84455000D01*
X121118000Y-93980000D02*
X118618000Y-91480000D01*
X168148000Y-82550000D02*
X168148000Y-81280000D01*
X164338000Y-77470000D02*
X164338000Y-75565000D01*
X168148000Y-81280000D02*
X164338000Y-77470000D01*
%TO.N,/13(SCK)*%
X167513000Y-114300000D02*
X166243000Y-114300000D01*
X166243000Y-114300000D02*
X163068000Y-111125000D01*
X163068000Y-111125000D02*
X163068000Y-100330000D01*
X163068000Y-100330000D02*
X164973000Y-98425000D01*
X164973000Y-98425000D02*
X168783000Y-98425000D01*
X169418000Y-97790000D02*
X169418000Y-90805000D01*
X168783000Y-98425000D02*
X169418000Y-97790000D01*
X169418000Y-90805000D02*
X168783000Y-90170000D01*
X168783000Y-90170000D02*
X151003000Y-90170000D01*
X151003000Y-90170000D02*
X151003000Y-90170000D01*
%TO.N,/10(\u002A\u002A/SS)*%
X167513000Y-111760000D02*
X166243000Y-111760000D01*
X166243000Y-111760000D02*
X163703000Y-109220000D01*
X163703000Y-109220000D02*
X163703000Y-100965000D01*
X163703000Y-100965000D02*
X165608000Y-99060000D01*
X165608000Y-99060000D02*
X169418000Y-99060000D01*
X169418000Y-99060000D02*
X170053000Y-98425000D01*
X170053000Y-98425000D02*
X170053000Y-90170000D01*
X170053000Y-90170000D02*
X169418000Y-89535000D01*
X169418000Y-89535000D02*
X152908000Y-89535000D01*
%TO.N,/12(MISO)*%
X167513000Y-106680000D02*
X166243000Y-106680000D01*
X166243000Y-106680000D02*
X164973000Y-105410000D01*
X164973000Y-105410000D02*
X164973000Y-102235000D01*
X164973000Y-102235000D02*
X166243000Y-100965000D01*
X166243000Y-100965000D02*
X170688000Y-100965000D01*
X170688000Y-100965000D02*
X171323000Y-100330000D01*
X171323000Y-100330000D02*
X171323000Y-89535000D01*
X171323000Y-89535000D02*
X170053000Y-88265000D01*
X170053000Y-88265000D02*
X150368000Y-88265000D01*
X150368000Y-88265000D02*
X150368000Y-88265000D01*
%TO.N,/11(\u002A\u002A/MOSI)*%
X164338000Y-107315000D02*
X164338000Y-101600000D01*
X166243000Y-109220000D02*
X164338000Y-107315000D01*
X167513000Y-109220000D02*
X166243000Y-109220000D01*
X164338000Y-101600000D02*
X166243000Y-99695000D01*
X166243000Y-99695000D02*
X168783000Y-99695000D01*
X168783000Y-99695000D02*
X170053000Y-99695000D01*
X170053000Y-99695000D02*
X170688000Y-99060000D01*
X170688000Y-99060000D02*
X170688000Y-89536410D01*
X170688000Y-89536410D02*
X170051590Y-88900000D01*
X170051590Y-88900000D02*
X151638000Y-88900000D01*
X151638000Y-88900000D02*
X151638000Y-88900000D01*
%TO.N,Net-(J7-Pad6)*%
X155448000Y-92710000D02*
X155448000Y-101600000D01*
X155883000Y-101600000D02*
X156718000Y-102435000D01*
X155448000Y-101600000D02*
X155883000Y-101600000D01*
%TO.N,Net-(J7-Pad5)*%
X157828000Y-104935000D02*
X156718000Y-104935000D01*
X159258000Y-101600000D02*
X159258000Y-103505000D01*
X157988000Y-100330000D02*
X159258000Y-101600000D01*
X159258000Y-103505000D02*
X157828000Y-104935000D01*
X157988000Y-92710000D02*
X157988000Y-100330000D01*
%TO.N,Net-(J7-Pad2)*%
X160528000Y-111125000D02*
X159218000Y-112435000D01*
X160528000Y-97790000D02*
X160528000Y-111125000D01*
X159218000Y-112435000D02*
X156718000Y-112435000D01*
X161798000Y-96520000D02*
X160528000Y-97790000D01*
X164338000Y-96520000D02*
X161798000Y-96520000D01*
X165608000Y-95250000D02*
X164338000Y-96520000D01*
X165608000Y-92710000D02*
X165608000Y-95250000D01*
%TO.N,Net-(J7-Pad1)*%
X168148000Y-92710000D02*
X168148000Y-94615000D01*
X168148000Y-94615000D02*
X164973000Y-97790000D01*
X164973000Y-97790000D02*
X162433000Y-97790000D01*
X162433000Y-97790000D02*
X161163000Y-99060000D01*
X161163000Y-99060000D02*
X161163000Y-113665000D01*
X159893000Y-114935000D02*
X156718000Y-114935000D01*
X161163000Y-113665000D02*
X159893000Y-114935000D01*
%TD*%
D28*
%TO.N,GND*%
G36*
X124166406Y-73864887D02*
G01*
X123874536Y-74301702D01*
X123673492Y-74787065D01*
X123571000Y-75302323D01*
X123571000Y-75827677D01*
X123673492Y-76342935D01*
X123874536Y-76828298D01*
X124166406Y-77265113D01*
X124537887Y-77636594D01*
X124974702Y-77928464D01*
X125460065Y-78129508D01*
X125975323Y-78232000D01*
X126500677Y-78232000D01*
X127015935Y-78129508D01*
X127501298Y-77928464D01*
X127938113Y-77636594D01*
X128309594Y-77265113D01*
X128601464Y-76828298D01*
X128657001Y-76694219D01*
X128729203Y-76782197D01*
X128957395Y-76969469D01*
X129217737Y-77108625D01*
X129500224Y-77194316D01*
X129794000Y-77223251D01*
X130087777Y-77194316D01*
X130370264Y-77108625D01*
X130630606Y-76969469D01*
X130858797Y-76782197D01*
X131046069Y-76554006D01*
X131064000Y-76520459D01*
X131081931Y-76554006D01*
X131269203Y-76782197D01*
X131497395Y-76969469D01*
X131757737Y-77108625D01*
X132040224Y-77194316D01*
X132334000Y-77223251D01*
X132627777Y-77194316D01*
X132910264Y-77108625D01*
X133170606Y-76969469D01*
X133398797Y-76782197D01*
X133586069Y-76554006D01*
X133604000Y-76520459D01*
X133621931Y-76554006D01*
X133809203Y-76782197D01*
X134037395Y-76969469D01*
X134297737Y-77108625D01*
X134580224Y-77194316D01*
X134874000Y-77223251D01*
X135167777Y-77194316D01*
X135450264Y-77108625D01*
X135710606Y-76969469D01*
X135938797Y-76782197D01*
X136126069Y-76554006D01*
X136147424Y-76514053D01*
X136295514Y-76716729D01*
X136511965Y-76915733D01*
X136763081Y-77068686D01*
X137039211Y-77169709D01*
X137054974Y-77172358D01*
X137287000Y-77051217D01*
X137287000Y-75692000D01*
X137267000Y-75692000D01*
X137267000Y-75438000D01*
X137287000Y-75438000D01*
X137287000Y-74078783D01*
X137541000Y-74078783D01*
X137541000Y-75438000D01*
X137561000Y-75438000D01*
X137561000Y-75692000D01*
X137541000Y-75692000D01*
X137541000Y-77051217D01*
X137773026Y-77172358D01*
X137788789Y-77169709D01*
X138064919Y-77068686D01*
X138316035Y-76915733D01*
X138532486Y-76716729D01*
X138680576Y-76514053D01*
X138701931Y-76554006D01*
X138889203Y-76782197D01*
X139117395Y-76969469D01*
X139377737Y-77108625D01*
X139660224Y-77194316D01*
X139954000Y-77223251D01*
X140247777Y-77194316D01*
X140530264Y-77108625D01*
X140790606Y-76969469D01*
X141018797Y-76782197D01*
X141206069Y-76554006D01*
X141224000Y-76520459D01*
X141241931Y-76554006D01*
X141429203Y-76782197D01*
X141657395Y-76969469D01*
X141917737Y-77108625D01*
X142200224Y-77194316D01*
X142494000Y-77223251D01*
X142787777Y-77194316D01*
X143070264Y-77108625D01*
X143330606Y-76969469D01*
X143558797Y-76782197D01*
X143746069Y-76554006D01*
X143764000Y-76520459D01*
X143781931Y-76554006D01*
X143969203Y-76782197D01*
X144197395Y-76969469D01*
X144457737Y-77108625D01*
X144740224Y-77194316D01*
X145034000Y-77223251D01*
X145327777Y-77194316D01*
X145610264Y-77108625D01*
X145870606Y-76969469D01*
X146098797Y-76782197D01*
X146286069Y-76554006D01*
X146304000Y-76520459D01*
X146321931Y-76554006D01*
X146509203Y-76782197D01*
X146737395Y-76969469D01*
X146997737Y-77108625D01*
X147280224Y-77194316D01*
X147574000Y-77223251D01*
X147867777Y-77194316D01*
X148150264Y-77108625D01*
X148410606Y-76969469D01*
X148638797Y-76782197D01*
X148826069Y-76554006D01*
X148844000Y-76520459D01*
X148861931Y-76554006D01*
X149049203Y-76782197D01*
X149277395Y-76969469D01*
X149537737Y-77108625D01*
X149820224Y-77194316D01*
X150114000Y-77223251D01*
X150407777Y-77194316D01*
X150690264Y-77108625D01*
X150950606Y-76969469D01*
X151178797Y-76782197D01*
X151366069Y-76554006D01*
X151384000Y-76520459D01*
X151401931Y-76554006D01*
X151589203Y-76782197D01*
X151817395Y-76969469D01*
X152077737Y-77108625D01*
X152360224Y-77194316D01*
X152654000Y-77223251D01*
X152947777Y-77194316D01*
X153230264Y-77108625D01*
X153490606Y-76969469D01*
X153718797Y-76782197D01*
X153906069Y-76554006D01*
X154045225Y-76293663D01*
X154130916Y-76011176D01*
X154152600Y-75791018D01*
X154152600Y-75338981D01*
X154130916Y-75118823D01*
X154045225Y-74836336D01*
X153906069Y-74575994D01*
X153718797Y-74347803D01*
X153490605Y-74160531D01*
X153230263Y-74021375D01*
X152947776Y-73935684D01*
X152654000Y-73906749D01*
X152360223Y-73935684D01*
X152077736Y-74021375D01*
X151817394Y-74160531D01*
X151589203Y-74347803D01*
X151401931Y-74575995D01*
X151384000Y-74609541D01*
X151366069Y-74575994D01*
X151178797Y-74347803D01*
X150950605Y-74160531D01*
X150690263Y-74021375D01*
X150407776Y-73935684D01*
X150114000Y-73906749D01*
X149820223Y-73935684D01*
X149537736Y-74021375D01*
X149277394Y-74160531D01*
X149049203Y-74347803D01*
X148861931Y-74575995D01*
X148844000Y-74609541D01*
X148826069Y-74575994D01*
X148638797Y-74347803D01*
X148410605Y-74160531D01*
X148150263Y-74021375D01*
X147867776Y-73935684D01*
X147574000Y-73906749D01*
X147280223Y-73935684D01*
X146997736Y-74021375D01*
X146737394Y-74160531D01*
X146509203Y-74347803D01*
X146321931Y-74575995D01*
X146304000Y-74609541D01*
X146286069Y-74575994D01*
X146098797Y-74347803D01*
X145870605Y-74160531D01*
X145610263Y-74021375D01*
X145327776Y-73935684D01*
X145034000Y-73906749D01*
X144740223Y-73935684D01*
X144457736Y-74021375D01*
X144197394Y-74160531D01*
X143969203Y-74347803D01*
X143781931Y-74575995D01*
X143764000Y-74609541D01*
X143746069Y-74575994D01*
X143558797Y-74347803D01*
X143330605Y-74160531D01*
X143070263Y-74021375D01*
X142787776Y-73935684D01*
X142494000Y-73906749D01*
X142200223Y-73935684D01*
X141917736Y-74021375D01*
X141657394Y-74160531D01*
X141429203Y-74347803D01*
X141241931Y-74575995D01*
X141224000Y-74609541D01*
X141206069Y-74575994D01*
X141018797Y-74347803D01*
X140790605Y-74160531D01*
X140530263Y-74021375D01*
X140247776Y-73935684D01*
X139954000Y-73906749D01*
X139660223Y-73935684D01*
X139377736Y-74021375D01*
X139117394Y-74160531D01*
X138889203Y-74347803D01*
X138701931Y-74575995D01*
X138680576Y-74615947D01*
X138532486Y-74413271D01*
X138316035Y-74214267D01*
X138064919Y-74061314D01*
X137788789Y-73960291D01*
X137773026Y-73957642D01*
X137541000Y-74078783D01*
X137287000Y-74078783D01*
X137054974Y-73957642D01*
X137039211Y-73960291D01*
X136763081Y-74061314D01*
X136511965Y-74214267D01*
X136295514Y-74413271D01*
X136147424Y-74615947D01*
X136126069Y-74575994D01*
X135938797Y-74347803D01*
X135710605Y-74160531D01*
X135450263Y-74021375D01*
X135167776Y-73935684D01*
X134874000Y-73906749D01*
X134580223Y-73935684D01*
X134297736Y-74021375D01*
X134037394Y-74160531D01*
X133809203Y-74347803D01*
X133621931Y-74575995D01*
X133604000Y-74609541D01*
X133586069Y-74575994D01*
X133398797Y-74347803D01*
X133170605Y-74160531D01*
X132910263Y-74021375D01*
X132627776Y-73935684D01*
X132334000Y-73906749D01*
X132040223Y-73935684D01*
X131757736Y-74021375D01*
X131497394Y-74160531D01*
X131269203Y-74347803D01*
X131081931Y-74575995D01*
X131064000Y-74609541D01*
X131046069Y-74575994D01*
X130858797Y-74347803D01*
X130630605Y-74160531D01*
X130370263Y-74021375D01*
X130087776Y-73935684D01*
X129794000Y-73906749D01*
X129500223Y-73935684D01*
X129217736Y-74021375D01*
X128957394Y-74160531D01*
X128729203Y-74347803D01*
X128657001Y-74435781D01*
X128601464Y-74301702D01*
X128309594Y-73864887D01*
X128179707Y-73735000D01*
X175219909Y-73735000D01*
X176328001Y-74843093D01*
X176328000Y-85944125D01*
X176324565Y-85979000D01*
X176328000Y-86013875D01*
X176328000Y-86013876D01*
X176338273Y-86118183D01*
X176378872Y-86252019D01*
X176444800Y-86375362D01*
X176533525Y-86483474D01*
X176560617Y-86505708D01*
X178868001Y-88813093D01*
X178868001Y-88863294D01*
X178738113Y-88733406D01*
X178301298Y-88441536D01*
X177815935Y-88240492D01*
X177300677Y-88138000D01*
X176775323Y-88138000D01*
X176260065Y-88240492D01*
X175774702Y-88441536D01*
X175337887Y-88733406D01*
X174966406Y-89104887D01*
X174674536Y-89541702D01*
X174473492Y-90027065D01*
X174371000Y-90542323D01*
X174371000Y-91067677D01*
X174473492Y-91582935D01*
X174674536Y-92068298D01*
X174966406Y-92505113D01*
X175337887Y-92876594D01*
X175774702Y-93168464D01*
X176260065Y-93369508D01*
X176775323Y-93472000D01*
X177300677Y-93472000D01*
X177815935Y-93369508D01*
X178301298Y-93168464D01*
X178738113Y-92876594D01*
X178868001Y-92746706D01*
X178868000Y-116803293D01*
X178738113Y-116673406D01*
X178301298Y-116381536D01*
X177815935Y-116180492D01*
X177300677Y-116078000D01*
X176775323Y-116078000D01*
X176260065Y-116180492D01*
X175774702Y-116381536D01*
X175337887Y-116673406D01*
X174966406Y-117044887D01*
X174674536Y-117481702D01*
X174473492Y-117967065D01*
X174371000Y-118482323D01*
X174371000Y-119007677D01*
X174473492Y-119522935D01*
X174674536Y-120008298D01*
X174966406Y-120445113D01*
X175337887Y-120816594D01*
X175774702Y-121108464D01*
X176260065Y-121309508D01*
X176775323Y-121412000D01*
X177300677Y-121412000D01*
X177815935Y-121309508D01*
X178301298Y-121108464D01*
X178738113Y-120816594D01*
X178868000Y-120686707D01*
X178868000Y-120990908D01*
X176560617Y-123298292D01*
X176533526Y-123320525D01*
X176511293Y-123347616D01*
X176444801Y-123428637D01*
X176378872Y-123551981D01*
X176338274Y-123685816D01*
X176324565Y-123825000D01*
X176328001Y-123859885D01*
X176328000Y-125655000D01*
X126909707Y-125655000D01*
X127039594Y-125525113D01*
X127331464Y-125088298D01*
X127532508Y-124602935D01*
X127635000Y-124087677D01*
X127635000Y-123562323D01*
X127532508Y-123047065D01*
X127331464Y-122561702D01*
X127039594Y-122124887D01*
X126668113Y-121753406D01*
X126231298Y-121461536D01*
X125745935Y-121260492D01*
X125230677Y-121158000D01*
X124705323Y-121158000D01*
X124190065Y-121260492D01*
X123704702Y-121461536D01*
X123267887Y-121753406D01*
X122896406Y-122124887D01*
X122604536Y-122561702D01*
X122403492Y-123047065D01*
X122301000Y-123562323D01*
X122301000Y-124087677D01*
X122403492Y-124602935D01*
X122604536Y-125088298D01*
X122896406Y-125525113D01*
X123026293Y-125655000D01*
X111708000Y-125655000D01*
X111708000Y-118780000D01*
X114439928Y-118780000D01*
X114439928Y-119980000D01*
X114456992Y-120153254D01*
X114507528Y-120319850D01*
X114589595Y-120473386D01*
X114700038Y-120607962D01*
X114834614Y-120718405D01*
X114988150Y-120800472D01*
X115154746Y-120851008D01*
X115328000Y-120868072D01*
X116828000Y-120868072D01*
X117001254Y-120851008D01*
X117167850Y-120800472D01*
X117234213Y-120765000D01*
X123629971Y-120765000D01*
X123698000Y-120771700D01*
X123766029Y-120765000D01*
X123766037Y-120765000D01*
X123969507Y-120744960D01*
X124230581Y-120665764D01*
X124471188Y-120537157D01*
X124682081Y-120364081D01*
X124725454Y-120311231D01*
X125920500Y-119116185D01*
X126543338Y-119739024D01*
X126625148Y-120008715D01*
X126776969Y-120292752D01*
X126981286Y-120541714D01*
X127230248Y-120746031D01*
X127514285Y-120897852D01*
X127822484Y-120991343D01*
X128062678Y-121015000D01*
X147713000Y-121015000D01*
X147713001Y-122717716D01*
X147622797Y-122607803D01*
X147394605Y-122420531D01*
X147134263Y-122281375D01*
X146851776Y-122195684D01*
X146558000Y-122166749D01*
X146264223Y-122195684D01*
X145981736Y-122281375D01*
X145721394Y-122420531D01*
X145493203Y-122607803D01*
X145305931Y-122835995D01*
X145288000Y-122869541D01*
X145270069Y-122835994D01*
X145082797Y-122607803D01*
X144854605Y-122420531D01*
X144594263Y-122281375D01*
X144311776Y-122195684D01*
X144018000Y-122166749D01*
X143724223Y-122195684D01*
X143441736Y-122281375D01*
X143181394Y-122420531D01*
X142953203Y-122607803D01*
X142765931Y-122835995D01*
X142748000Y-122869541D01*
X142730069Y-122835994D01*
X142542797Y-122607803D01*
X142314605Y-122420531D01*
X142054263Y-122281375D01*
X141771776Y-122195684D01*
X141478000Y-122166749D01*
X141184223Y-122195684D01*
X140901736Y-122281375D01*
X140641394Y-122420531D01*
X140413203Y-122607803D01*
X140225931Y-122835995D01*
X140208000Y-122869541D01*
X140190069Y-122835994D01*
X140002797Y-122607803D01*
X139774605Y-122420531D01*
X139514263Y-122281375D01*
X139231776Y-122195684D01*
X138938000Y-122166749D01*
X138644223Y-122195684D01*
X138361736Y-122281375D01*
X138101394Y-122420531D01*
X137873203Y-122607803D01*
X137685931Y-122835995D01*
X137546775Y-123096337D01*
X137461084Y-123378824D01*
X137439400Y-123598982D01*
X137439400Y-124051019D01*
X137461084Y-124271177D01*
X137546775Y-124553664D01*
X137685931Y-124814006D01*
X137873203Y-125042197D01*
X138101395Y-125229469D01*
X138361737Y-125368625D01*
X138644224Y-125454316D01*
X138938000Y-125483251D01*
X139231777Y-125454316D01*
X139514264Y-125368625D01*
X139774606Y-125229469D01*
X140002797Y-125042197D01*
X140190069Y-124814006D01*
X140208000Y-124780459D01*
X140225931Y-124814006D01*
X140413203Y-125042197D01*
X140641395Y-125229469D01*
X140901737Y-125368625D01*
X141184224Y-125454316D01*
X141478000Y-125483251D01*
X141771777Y-125454316D01*
X142054264Y-125368625D01*
X142314606Y-125229469D01*
X142542797Y-125042197D01*
X142730069Y-124814006D01*
X142748000Y-124780459D01*
X142765931Y-124814006D01*
X142953203Y-125042197D01*
X143181395Y-125229469D01*
X143441737Y-125368625D01*
X143724224Y-125454316D01*
X144018000Y-125483251D01*
X144311777Y-125454316D01*
X144594264Y-125368625D01*
X144854606Y-125229469D01*
X145082797Y-125042197D01*
X145270069Y-124814006D01*
X145288000Y-124780459D01*
X145305931Y-124814006D01*
X145493203Y-125042197D01*
X145721395Y-125229469D01*
X145981737Y-125368625D01*
X146264224Y-125454316D01*
X146558000Y-125483251D01*
X146851777Y-125454316D01*
X147134264Y-125368625D01*
X147394606Y-125229469D01*
X147622797Y-125042197D01*
X147810069Y-124814006D01*
X147828000Y-124780459D01*
X147845931Y-124814006D01*
X148033203Y-125042197D01*
X148261395Y-125229469D01*
X148521737Y-125368625D01*
X148804224Y-125454316D01*
X149098000Y-125483251D01*
X149391777Y-125454316D01*
X149674264Y-125368625D01*
X149934606Y-125229469D01*
X150162797Y-125042197D01*
X150350069Y-124814006D01*
X150371424Y-124774053D01*
X150519514Y-124976729D01*
X150735965Y-125175733D01*
X150987081Y-125328686D01*
X151263211Y-125429709D01*
X151278974Y-125432358D01*
X151511000Y-125311217D01*
X151511000Y-123952000D01*
X151765000Y-123952000D01*
X151765000Y-125311217D01*
X151997026Y-125432358D01*
X152012789Y-125429709D01*
X152288919Y-125328686D01*
X152540035Y-125175733D01*
X152756486Y-124976729D01*
X152908000Y-124769367D01*
X153059514Y-124976729D01*
X153275965Y-125175733D01*
X153527081Y-125328686D01*
X153803211Y-125429709D01*
X153818974Y-125432358D01*
X154051000Y-125311217D01*
X154051000Y-123952000D01*
X151765000Y-123952000D01*
X151511000Y-123952000D01*
X151491000Y-123952000D01*
X151491000Y-123698000D01*
X151511000Y-123698000D01*
X151511000Y-122338783D01*
X151765000Y-122338783D01*
X151765000Y-123698000D01*
X154051000Y-123698000D01*
X154051000Y-122338783D01*
X154305000Y-122338783D01*
X154305000Y-123698000D01*
X154325000Y-123698000D01*
X154325000Y-123952000D01*
X154305000Y-123952000D01*
X154305000Y-125311217D01*
X154537026Y-125432358D01*
X154552789Y-125429709D01*
X154828919Y-125328686D01*
X155080035Y-125175733D01*
X155296486Y-124976729D01*
X155444576Y-124774053D01*
X155465931Y-124814006D01*
X155653203Y-125042197D01*
X155881395Y-125229469D01*
X156141737Y-125368625D01*
X156424224Y-125454316D01*
X156718000Y-125483251D01*
X157011777Y-125454316D01*
X157294264Y-125368625D01*
X157554606Y-125229469D01*
X157782797Y-125042197D01*
X157970069Y-124814006D01*
X158109225Y-124553663D01*
X158194916Y-124271176D01*
X158216600Y-124051018D01*
X158216600Y-123598982D01*
X160299400Y-123598982D01*
X160299400Y-124051019D01*
X160321084Y-124271177D01*
X160406775Y-124553664D01*
X160545931Y-124814006D01*
X160733203Y-125042197D01*
X160961395Y-125229469D01*
X161221737Y-125368625D01*
X161504224Y-125454316D01*
X161798000Y-125483251D01*
X162091777Y-125454316D01*
X162374264Y-125368625D01*
X162634606Y-125229469D01*
X162862797Y-125042197D01*
X163050069Y-124814006D01*
X163068000Y-124780459D01*
X163085931Y-124814006D01*
X163273203Y-125042197D01*
X163501395Y-125229469D01*
X163761737Y-125368625D01*
X164044224Y-125454316D01*
X164338000Y-125483251D01*
X164631777Y-125454316D01*
X164914264Y-125368625D01*
X165174606Y-125229469D01*
X165402797Y-125042197D01*
X165590069Y-124814006D01*
X165608000Y-124780459D01*
X165625931Y-124814006D01*
X165813203Y-125042197D01*
X166041395Y-125229469D01*
X166301737Y-125368625D01*
X166584224Y-125454316D01*
X166878000Y-125483251D01*
X167171777Y-125454316D01*
X167454264Y-125368625D01*
X167714606Y-125229469D01*
X167942797Y-125042197D01*
X168130069Y-124814006D01*
X168148000Y-124780459D01*
X168165931Y-124814006D01*
X168353203Y-125042197D01*
X168581395Y-125229469D01*
X168841737Y-125368625D01*
X169124224Y-125454316D01*
X169418000Y-125483251D01*
X169711777Y-125454316D01*
X169994264Y-125368625D01*
X170254606Y-125229469D01*
X170482797Y-125042197D01*
X170670069Y-124814006D01*
X170688000Y-124780459D01*
X170705931Y-124814006D01*
X170893203Y-125042197D01*
X171121395Y-125229469D01*
X171381737Y-125368625D01*
X171664224Y-125454316D01*
X171958000Y-125483251D01*
X172251777Y-125454316D01*
X172534264Y-125368625D01*
X172794606Y-125229469D01*
X173022797Y-125042197D01*
X173210069Y-124814006D01*
X173228000Y-124780459D01*
X173245931Y-124814006D01*
X173433203Y-125042197D01*
X173661395Y-125229469D01*
X173921737Y-125368625D01*
X174204224Y-125454316D01*
X174498000Y-125483251D01*
X174791777Y-125454316D01*
X175074264Y-125368625D01*
X175334606Y-125229469D01*
X175562797Y-125042197D01*
X175750069Y-124814006D01*
X175889225Y-124553663D01*
X175974916Y-124271176D01*
X175996600Y-124051018D01*
X175996600Y-123598981D01*
X175974916Y-123378823D01*
X175889225Y-123096336D01*
X175750069Y-122835994D01*
X175562797Y-122607803D01*
X175334605Y-122420531D01*
X175074263Y-122281375D01*
X174791776Y-122195684D01*
X174498000Y-122166749D01*
X174204223Y-122195684D01*
X173921736Y-122281375D01*
X173661394Y-122420531D01*
X173433203Y-122607803D01*
X173245931Y-122835995D01*
X173228000Y-122869541D01*
X173210069Y-122835994D01*
X173022797Y-122607803D01*
X172794605Y-122420531D01*
X172534263Y-122281375D01*
X172251776Y-122195684D01*
X171958000Y-122166749D01*
X171664223Y-122195684D01*
X171381736Y-122281375D01*
X171121394Y-122420531D01*
X170893203Y-122607803D01*
X170705931Y-122835995D01*
X170688000Y-122869541D01*
X170670069Y-122835994D01*
X170482797Y-122607803D01*
X170254605Y-122420531D01*
X169994263Y-122281375D01*
X169711776Y-122195684D01*
X169418000Y-122166749D01*
X169124223Y-122195684D01*
X168841736Y-122281375D01*
X168581394Y-122420531D01*
X168353203Y-122607803D01*
X168165931Y-122835995D01*
X168148000Y-122869541D01*
X168130069Y-122835994D01*
X167942797Y-122607803D01*
X167714605Y-122420531D01*
X167454263Y-122281375D01*
X167171776Y-122195684D01*
X166878000Y-122166749D01*
X166584223Y-122195684D01*
X166301736Y-122281375D01*
X166041394Y-122420531D01*
X165813203Y-122607803D01*
X165625931Y-122835995D01*
X165608000Y-122869541D01*
X165590069Y-122835994D01*
X165402797Y-122607803D01*
X165174605Y-122420531D01*
X164914263Y-122281375D01*
X164631776Y-122195684D01*
X164338000Y-122166749D01*
X164044223Y-122195684D01*
X163761736Y-122281375D01*
X163501394Y-122420531D01*
X163273203Y-122607803D01*
X163085931Y-122835995D01*
X163068000Y-122869541D01*
X163050069Y-122835994D01*
X162862797Y-122607803D01*
X162634605Y-122420531D01*
X162374263Y-122281375D01*
X162091776Y-122195684D01*
X161798000Y-122166749D01*
X161504223Y-122195684D01*
X161221736Y-122281375D01*
X160961394Y-122420531D01*
X160733203Y-122607803D01*
X160545931Y-122835995D01*
X160406775Y-123096337D01*
X160321084Y-123378824D01*
X160299400Y-123598982D01*
X158216600Y-123598982D01*
X158216600Y-123598981D01*
X158194916Y-123378823D01*
X158109225Y-123096336D01*
X157970069Y-122835994D01*
X157782797Y-122607803D01*
X157554605Y-122420531D01*
X157294263Y-122281375D01*
X157011776Y-122195684D01*
X156718000Y-122166749D01*
X156424223Y-122195684D01*
X156141736Y-122281375D01*
X155881394Y-122420531D01*
X155653203Y-122607803D01*
X155465931Y-122835995D01*
X155444576Y-122875947D01*
X155296486Y-122673271D01*
X155080035Y-122474267D01*
X154828919Y-122321314D01*
X154552789Y-122220291D01*
X154537026Y-122217642D01*
X154305000Y-122338783D01*
X154051000Y-122338783D01*
X153818974Y-122217642D01*
X153803211Y-122220291D01*
X153527081Y-122321314D01*
X153275965Y-122474267D01*
X153059514Y-122673271D01*
X152908000Y-122880633D01*
X152756486Y-122673271D01*
X152540035Y-122474267D01*
X152288919Y-122321314D01*
X152012789Y-122220291D01*
X151997026Y-122217642D01*
X151765000Y-122338783D01*
X151511000Y-122338783D01*
X151278974Y-122217642D01*
X151263211Y-122220291D01*
X150987081Y-122321314D01*
X150735965Y-122474267D01*
X150519514Y-122673271D01*
X150483000Y-122723244D01*
X150483000Y-120257264D01*
X150615852Y-120008715D01*
X150709343Y-119700516D01*
X150740911Y-119380000D01*
X150709343Y-119059484D01*
X150615852Y-118751285D01*
X150464031Y-118467248D01*
X150259714Y-118218286D01*
X150010752Y-118013969D01*
X149726715Y-117862148D01*
X149418516Y-117768657D01*
X149178322Y-117745000D01*
X138418000Y-117745000D01*
X138418000Y-116771963D01*
X138397960Y-116568493D01*
X138318764Y-116307419D01*
X138190157Y-116066812D01*
X138168000Y-116039814D01*
X138168000Y-114135131D01*
X139701141Y-112601991D01*
X139744449Y-112566449D01*
X139886284Y-112393623D01*
X139991676Y-112196447D01*
X140056577Y-111982499D01*
X140073000Y-111815752D01*
X140073000Y-111815751D01*
X140078491Y-111760000D01*
X140073000Y-111704248D01*
X140073000Y-110397911D01*
X141813000Y-110397911D01*
X141813000Y-110582089D01*
X141848932Y-110762729D01*
X141919414Y-110932889D01*
X141988000Y-111035536D01*
X141988001Y-111722658D01*
X141984323Y-111760000D01*
X141998997Y-111908986D01*
X142042454Y-112052247D01*
X142113026Y-112184276D01*
X142207999Y-112300001D01*
X142323724Y-112394974D01*
X142455753Y-112465546D01*
X142599014Y-112509003D01*
X142710667Y-112520000D01*
X142748000Y-112523677D01*
X142785333Y-112520000D01*
X150457465Y-112520000D01*
X150560111Y-112588586D01*
X150730271Y-112659068D01*
X150910911Y-112695000D01*
X151095089Y-112695000D01*
X151275729Y-112659068D01*
X151445889Y-112588586D01*
X151599028Y-112486262D01*
X151729262Y-112356028D01*
X151831586Y-112202889D01*
X151902068Y-112032729D01*
X151938000Y-111852089D01*
X151938000Y-111667911D01*
X151902068Y-111487271D01*
X151831586Y-111317111D01*
X151729262Y-111163972D01*
X151599028Y-111033738D01*
X151445889Y-110931414D01*
X151275729Y-110860932D01*
X151095089Y-110825000D01*
X150910911Y-110825000D01*
X150730271Y-110860932D01*
X150560111Y-110931414D01*
X150457465Y-111000000D01*
X143531744Y-111000000D01*
X143576586Y-110932889D01*
X143647068Y-110762729D01*
X143683000Y-110582089D01*
X143683000Y-110397911D01*
X143647068Y-110217271D01*
X143576586Y-110047111D01*
X143474262Y-109893972D01*
X143344028Y-109763738D01*
X143190889Y-109661414D01*
X143020729Y-109590932D01*
X142840089Y-109555000D01*
X142655911Y-109555000D01*
X142475271Y-109590932D01*
X142305111Y-109661414D01*
X142151972Y-109763738D01*
X142021738Y-109893972D01*
X141919414Y-110047111D01*
X141848932Y-110217271D01*
X141813000Y-110397911D01*
X140073000Y-110397911D01*
X140073000Y-109435000D01*
X144944928Y-109435000D01*
X144957188Y-109559482D01*
X144993498Y-109679180D01*
X145052463Y-109789494D01*
X145131815Y-109886185D01*
X145228506Y-109965537D01*
X145338820Y-110024502D01*
X145458518Y-110060812D01*
X145583000Y-110073072D01*
X146272250Y-110070000D01*
X146431000Y-109911250D01*
X146431000Y-108712000D01*
X146685000Y-108712000D01*
X146685000Y-109911250D01*
X146843750Y-110070000D01*
X147533000Y-110073072D01*
X147657482Y-110060812D01*
X147777180Y-110024502D01*
X147887494Y-109965537D01*
X147984185Y-109886185D01*
X148063537Y-109789494D01*
X148122502Y-109679180D01*
X148158812Y-109559482D01*
X148171072Y-109435000D01*
X148168000Y-108870750D01*
X148009250Y-108712000D01*
X146685000Y-108712000D01*
X146431000Y-108712000D01*
X145106750Y-108712000D01*
X144948000Y-108870750D01*
X144944928Y-109435000D01*
X140073000Y-109435000D01*
X140073000Y-107450752D01*
X140078491Y-107395000D01*
X140061255Y-107220000D01*
X145209574Y-107220000D01*
X145131815Y-107283815D01*
X145052463Y-107380506D01*
X144993498Y-107490820D01*
X144957188Y-107610518D01*
X144944928Y-107735000D01*
X144948000Y-108299250D01*
X145106750Y-108458000D01*
X146431000Y-108458000D01*
X146431000Y-108438000D01*
X146685000Y-108438000D01*
X146685000Y-108458000D01*
X148009250Y-108458000D01*
X148168000Y-108299250D01*
X148171072Y-107735000D01*
X148158812Y-107610518D01*
X148122502Y-107490820D01*
X148063537Y-107380506D01*
X147984185Y-107283815D01*
X147887494Y-107204463D01*
X147777180Y-107145498D01*
X147742392Y-107134945D01*
X147923706Y-106914014D01*
X148061599Y-106656034D01*
X148146513Y-106376111D01*
X148175185Y-106085000D01*
X148146513Y-105793889D01*
X148061599Y-105513966D01*
X147923706Y-105255986D01*
X147738134Y-105029866D01*
X147512014Y-104844294D01*
X147494626Y-104835000D01*
X147512014Y-104825706D01*
X147738134Y-104640134D01*
X147923706Y-104414014D01*
X147960595Y-104345000D01*
X150768199Y-104345000D01*
X151513001Y-105089803D01*
X151513000Y-109309464D01*
X151444414Y-109412111D01*
X151373932Y-109582271D01*
X151338000Y-109762911D01*
X151338000Y-109947089D01*
X151373932Y-110127729D01*
X151444414Y-110297889D01*
X151546738Y-110451028D01*
X151676972Y-110581262D01*
X151830111Y-110683586D01*
X152000271Y-110754068D01*
X152180911Y-110790000D01*
X152365089Y-110790000D01*
X152545729Y-110754068D01*
X152715889Y-110683586D01*
X152869028Y-110581262D01*
X152908000Y-110542290D01*
X152946972Y-110581262D01*
X153100111Y-110683586D01*
X153270271Y-110754068D01*
X153450911Y-110790000D01*
X153635089Y-110790000D01*
X153815729Y-110754068D01*
X153985889Y-110683586D01*
X154139028Y-110581262D01*
X154269262Y-110451028D01*
X154371586Y-110297889D01*
X154442068Y-110127729D01*
X154478000Y-109947089D01*
X154478000Y-109762911D01*
X154442068Y-109582271D01*
X154371586Y-109412111D01*
X154303000Y-109309465D01*
X154303000Y-102907322D01*
X154306676Y-102869999D01*
X154303000Y-102832676D01*
X154303000Y-102832667D01*
X154292003Y-102721014D01*
X154248546Y-102577753D01*
X154177974Y-102445724D01*
X154083001Y-102329999D01*
X154054003Y-102306201D01*
X152321804Y-100574003D01*
X152298001Y-100544999D01*
X152182276Y-100450026D01*
X152050247Y-100379454D01*
X151906986Y-100335997D01*
X151795333Y-100325000D01*
X151795322Y-100325000D01*
X151758000Y-100321324D01*
X151720678Y-100325000D01*
X147960595Y-100325000D01*
X147923706Y-100255986D01*
X147738134Y-100029866D01*
X147512014Y-99844294D01*
X147254034Y-99706401D01*
X146974111Y-99621487D01*
X146755950Y-99600000D01*
X146360050Y-99600000D01*
X146141889Y-99621487D01*
X145861966Y-99706401D01*
X145603986Y-99844294D01*
X145377866Y-100029866D01*
X145192294Y-100255986D01*
X145155405Y-100325000D01*
X137800595Y-100325000D01*
X137763706Y-100255986D01*
X137578134Y-100029866D01*
X137352014Y-99844294D01*
X137094034Y-99706401D01*
X136814111Y-99621487D01*
X136758846Y-99616044D01*
X135691804Y-98549003D01*
X135668001Y-98519999D01*
X135552276Y-98425026D01*
X135420247Y-98354454D01*
X135276986Y-98310997D01*
X135165333Y-98300000D01*
X135165322Y-98300000D01*
X135128000Y-98296324D01*
X135090678Y-98300000D01*
X134172802Y-98300000D01*
X133588000Y-97715199D01*
X133588000Y-94747594D01*
X133657013Y-94710706D01*
X133883134Y-94525134D01*
X134068706Y-94299014D01*
X134078000Y-94281626D01*
X134087294Y-94299013D01*
X134272866Y-94525134D01*
X134498986Y-94710706D01*
X134568001Y-94747595D01*
X134568000Y-96487083D01*
X134564375Y-96528832D01*
X134572088Y-96598837D01*
X134578997Y-96668985D01*
X134580284Y-96673228D01*
X134580770Y-96677638D01*
X134601993Y-96744795D01*
X134622454Y-96812246D01*
X134624547Y-96816162D01*
X134625882Y-96820386D01*
X134659787Y-96882090D01*
X134693026Y-96944275D01*
X134719620Y-96976681D01*
X135112418Y-97550076D01*
X135128026Y-97579276D01*
X135154618Y-97611678D01*
X135157108Y-97615313D01*
X135178314Y-97640552D01*
X135199201Y-97666002D01*
X135202313Y-97669114D01*
X135229281Y-97701210D01*
X135255116Y-97721917D01*
X135834200Y-98301002D01*
X135857999Y-98330001D01*
X135973724Y-98424974D01*
X136105753Y-98495546D01*
X136249014Y-98539003D01*
X136350484Y-98548997D01*
X136398000Y-98553677D01*
X136435333Y-98550000D01*
X142202465Y-98550000D01*
X142305111Y-98618586D01*
X142475271Y-98689068D01*
X142655911Y-98725000D01*
X142840089Y-98725000D01*
X143020729Y-98689068D01*
X143190889Y-98618586D01*
X143344028Y-98516262D01*
X143474262Y-98386028D01*
X143576586Y-98232889D01*
X143647068Y-98062729D01*
X143683000Y-97882089D01*
X143683000Y-97697911D01*
X143647068Y-97517271D01*
X143576586Y-97347111D01*
X143474262Y-97193972D01*
X143344028Y-97063738D01*
X143190889Y-96961414D01*
X143020729Y-96890932D01*
X142840089Y-96855000D01*
X142655911Y-96855000D01*
X142475271Y-96890932D01*
X142305111Y-96961414D01*
X142202465Y-97030000D01*
X136712802Y-97030000D01*
X136350198Y-96667397D01*
X136088000Y-96284649D01*
X136088000Y-94747594D01*
X136157013Y-94710706D01*
X136383134Y-94525134D01*
X136568706Y-94299014D01*
X136578000Y-94281626D01*
X136587294Y-94299013D01*
X136772866Y-94525134D01*
X136998986Y-94710706D01*
X137256966Y-94848599D01*
X137536889Y-94933513D01*
X137828000Y-94962185D01*
X138119110Y-94933513D01*
X138399033Y-94848599D01*
X138657013Y-94710706D01*
X138883134Y-94525134D01*
X139068706Y-94299014D01*
X139078000Y-94281626D01*
X139087294Y-94299013D01*
X139272866Y-94525134D01*
X139498986Y-94710706D01*
X139756966Y-94848599D01*
X140036889Y-94933513D01*
X140328000Y-94962185D01*
X140619110Y-94933513D01*
X140899033Y-94848599D01*
X141157013Y-94710706D01*
X141383134Y-94525134D01*
X141568706Y-94299014D01*
X141582462Y-94273278D01*
X141738951Y-94479429D01*
X141956807Y-94672496D01*
X142208142Y-94819352D01*
X142471110Y-94911476D01*
X142701000Y-94790155D01*
X142701000Y-93472000D01*
X142681000Y-93472000D01*
X142681000Y-93218000D01*
X142701000Y-93218000D01*
X142701000Y-91899845D01*
X142471110Y-91778524D01*
X142208142Y-91870648D01*
X141956807Y-92017504D01*
X141738951Y-92210571D01*
X141582462Y-92416722D01*
X141568706Y-92390986D01*
X141383134Y-92164866D01*
X141157014Y-91979294D01*
X140899034Y-91841401D01*
X140619111Y-91756487D01*
X140328000Y-91727815D01*
X140036890Y-91756487D01*
X139756967Y-91841401D01*
X139498987Y-91979294D01*
X139272866Y-92164866D01*
X139087294Y-92390986D01*
X139078000Y-92408374D01*
X139068706Y-92390986D01*
X138883134Y-92164866D01*
X138657014Y-91979294D01*
X138399034Y-91841401D01*
X138119111Y-91756487D01*
X137828000Y-91727815D01*
X137536890Y-91756487D01*
X137256967Y-91841401D01*
X136998987Y-91979294D01*
X136772866Y-92164866D01*
X136587294Y-92390986D01*
X136578000Y-92408374D01*
X136568706Y-92390986D01*
X136383134Y-92164866D01*
X136157014Y-91979294D01*
X136088000Y-91942405D01*
X136088000Y-89772322D01*
X136091676Y-89734999D01*
X136088000Y-89697676D01*
X136088000Y-89697667D01*
X136077003Y-89586014D01*
X136033546Y-89442753D01*
X135962974Y-89310724D01*
X135868001Y-89194999D01*
X135839004Y-89171202D01*
X133152801Y-86485000D01*
X148002868Y-86485000D01*
X147064860Y-87423009D01*
X147021552Y-87458551D01*
X146879717Y-87631377D01*
X146853146Y-87681088D01*
X146774324Y-87828554D01*
X146709423Y-88042502D01*
X146687509Y-88265000D01*
X146693001Y-88320761D01*
X146693000Y-91915746D01*
X146600038Y-91992038D01*
X146489595Y-92126614D01*
X146435223Y-92228337D01*
X146383134Y-92164866D01*
X146157014Y-91979294D01*
X145899034Y-91841401D01*
X145619111Y-91756487D01*
X145328000Y-91727815D01*
X145036890Y-91756487D01*
X144756967Y-91841401D01*
X144498987Y-91979294D01*
X144272866Y-92164866D01*
X144087294Y-92390986D01*
X144073538Y-92416722D01*
X143917049Y-92210571D01*
X143699193Y-92017504D01*
X143447858Y-91870648D01*
X143184890Y-91778524D01*
X142955000Y-91899845D01*
X142955000Y-93218000D01*
X142975000Y-93218000D01*
X142975000Y-93472000D01*
X142955000Y-93472000D01*
X142955000Y-94790155D01*
X143184890Y-94911476D01*
X143447858Y-94819352D01*
X143699193Y-94672496D01*
X143917049Y-94479429D01*
X144073538Y-94273278D01*
X144087294Y-94299013D01*
X144272866Y-94525134D01*
X144498986Y-94710706D01*
X144756966Y-94848599D01*
X145036889Y-94933513D01*
X145328000Y-94962185D01*
X145619110Y-94933513D01*
X145899033Y-94848599D01*
X146157013Y-94710706D01*
X146383134Y-94525134D01*
X146435223Y-94461663D01*
X146489595Y-94563386D01*
X146600038Y-94697962D01*
X146734614Y-94808405D01*
X146888150Y-94890472D01*
X147054746Y-94941008D01*
X147228000Y-94958072D01*
X148428000Y-94958072D01*
X148601254Y-94941008D01*
X148767850Y-94890472D01*
X148921386Y-94808405D01*
X149055962Y-94697962D01*
X149166405Y-94563386D01*
X149248472Y-94409850D01*
X149299008Y-94243254D01*
X149316072Y-94070000D01*
X149316072Y-92620000D01*
X149299008Y-92446746D01*
X149248472Y-92280150D01*
X149166405Y-92126614D01*
X149055962Y-91992038D01*
X148963000Y-91915747D01*
X148963000Y-88735131D01*
X149433000Y-88265132D01*
X149433000Y-88357089D01*
X149468932Y-88537729D01*
X149539414Y-88707889D01*
X149641738Y-88861028D01*
X149771972Y-88991262D01*
X149925111Y-89093586D01*
X150095271Y-89164068D01*
X150275911Y-89200000D01*
X150460089Y-89200000D01*
X150640729Y-89164068D01*
X150729865Y-89127147D01*
X150738932Y-89172729D01*
X150775853Y-89261865D01*
X150730271Y-89270932D01*
X150560111Y-89341414D01*
X150406972Y-89443738D01*
X150276738Y-89573972D01*
X150174414Y-89727111D01*
X150103932Y-89897271D01*
X150068000Y-90077911D01*
X150068000Y-90262089D01*
X150103932Y-90442729D01*
X150174414Y-90612889D01*
X150276738Y-90766028D01*
X150406972Y-90896262D01*
X150560111Y-90998586D01*
X150730271Y-91069068D01*
X150910911Y-91105000D01*
X151095089Y-91105000D01*
X151275729Y-91069068D01*
X151445889Y-90998586D01*
X151548535Y-90930000D01*
X154794623Y-90930000D01*
X154724833Y-90967303D01*
X154527582Y-91129182D01*
X154365703Y-91326434D01*
X154245417Y-91551475D01*
X154171344Y-91795658D01*
X154152600Y-91985971D01*
X154152600Y-93434030D01*
X154171344Y-93624343D01*
X154245417Y-93868526D01*
X154365704Y-94093567D01*
X154527583Y-94290818D01*
X154688000Y-94422468D01*
X154688000Y-96371256D01*
X154620889Y-96326414D01*
X154450729Y-96255932D01*
X154270089Y-96220000D01*
X154085911Y-96220000D01*
X153905271Y-96255932D01*
X153735111Y-96326414D01*
X153581972Y-96428738D01*
X153451738Y-96558972D01*
X153349414Y-96712111D01*
X153278932Y-96882271D01*
X153243000Y-97062911D01*
X153243000Y-97247089D01*
X153278932Y-97427729D01*
X153349414Y-97597889D01*
X153451738Y-97751028D01*
X153581972Y-97881262D01*
X153735111Y-97983586D01*
X153905271Y-98054068D01*
X154085911Y-98090000D01*
X154270089Y-98090000D01*
X154450729Y-98054068D01*
X154620889Y-97983586D01*
X154688001Y-97938744D01*
X154688001Y-101562657D01*
X154684323Y-101600000D01*
X154698997Y-101748986D01*
X154742454Y-101892247D01*
X154813026Y-102024276D01*
X154907999Y-102140001D01*
X155023724Y-102234974D01*
X155115675Y-102284124D01*
X155100815Y-102435000D01*
X155129487Y-102726111D01*
X155214401Y-103006034D01*
X155352294Y-103264014D01*
X155537866Y-103490134D01*
X155763986Y-103675706D01*
X155781374Y-103685000D01*
X155763986Y-103694294D01*
X155537866Y-103879866D01*
X155352294Y-104105986D01*
X155214401Y-104363966D01*
X155129487Y-104643889D01*
X155100815Y-104935000D01*
X155129487Y-105226111D01*
X155214401Y-105506034D01*
X155352294Y-105764014D01*
X155537866Y-105990134D01*
X155763986Y-106175706D01*
X155781374Y-106185000D01*
X155763986Y-106194294D01*
X155537866Y-106379866D01*
X155352294Y-106605986D01*
X155214401Y-106863966D01*
X155129487Y-107143889D01*
X155100815Y-107435000D01*
X155129487Y-107726111D01*
X155214401Y-108006034D01*
X155352294Y-108264014D01*
X155537866Y-108490134D01*
X155763986Y-108675706D01*
X155789722Y-108689462D01*
X155583571Y-108845951D01*
X155390504Y-109063807D01*
X155243648Y-109315142D01*
X155151524Y-109578110D01*
X155272845Y-109808000D01*
X156591000Y-109808000D01*
X156591000Y-109788000D01*
X156845000Y-109788000D01*
X156845000Y-109808000D01*
X158163155Y-109808000D01*
X158284476Y-109578110D01*
X158192352Y-109315142D01*
X158045496Y-109063807D01*
X157852429Y-108845951D01*
X157646278Y-108689462D01*
X157672014Y-108675706D01*
X157898134Y-108490134D01*
X158083706Y-108264014D01*
X158221599Y-108006034D01*
X158306513Y-107726111D01*
X158335185Y-107435000D01*
X158306513Y-107143889D01*
X158221599Y-106863966D01*
X158083706Y-106605986D01*
X157898134Y-106379866D01*
X157672014Y-106194294D01*
X157654626Y-106185000D01*
X157672014Y-106175706D01*
X157898134Y-105990134D01*
X158083706Y-105764014D01*
X158161482Y-105618505D01*
X158252276Y-105569974D01*
X158368001Y-105475001D01*
X158391803Y-105445998D01*
X159768000Y-104069802D01*
X159768001Y-110810197D01*
X158903199Y-111675000D01*
X158120595Y-111675000D01*
X158083706Y-111605986D01*
X157898134Y-111379866D01*
X157672014Y-111194294D01*
X157646278Y-111180538D01*
X157852429Y-111024049D01*
X158045496Y-110806193D01*
X158192352Y-110554858D01*
X158284476Y-110291890D01*
X158163155Y-110062000D01*
X156845000Y-110062000D01*
X156845000Y-110082000D01*
X156591000Y-110082000D01*
X156591000Y-110062000D01*
X155272845Y-110062000D01*
X155151524Y-110291890D01*
X155243648Y-110554858D01*
X155390504Y-110806193D01*
X155583571Y-111024049D01*
X155789722Y-111180538D01*
X155763986Y-111194294D01*
X155537866Y-111379866D01*
X155352294Y-111605986D01*
X155214401Y-111863966D01*
X155129487Y-112143889D01*
X155100815Y-112435000D01*
X155129487Y-112726111D01*
X155214401Y-113006034D01*
X155352294Y-113264014D01*
X155537866Y-113490134D01*
X155601337Y-113542223D01*
X155499614Y-113596595D01*
X155365038Y-113707038D01*
X155254595Y-113841614D01*
X155172528Y-113995150D01*
X155121992Y-114161746D01*
X155104928Y-114335000D01*
X155104928Y-115535000D01*
X155121992Y-115708254D01*
X155172528Y-115874850D01*
X155254595Y-116028386D01*
X155296953Y-116080000D01*
X151317802Y-116080000D01*
X149661804Y-114424003D01*
X149638001Y-114394999D01*
X149522276Y-114300026D01*
X149390247Y-114229454D01*
X149246986Y-114185997D01*
X149135333Y-114175000D01*
X149135322Y-114175000D01*
X149098000Y-114171324D01*
X149060678Y-114175000D01*
X145198535Y-114175000D01*
X145095889Y-114106414D01*
X144925729Y-114035932D01*
X144745089Y-114000000D01*
X144560911Y-114000000D01*
X144380271Y-114035932D01*
X144210111Y-114106414D01*
X144056972Y-114208738D01*
X143926738Y-114338972D01*
X143824414Y-114492111D01*
X143753932Y-114662271D01*
X143718000Y-114842911D01*
X143718000Y-115027089D01*
X143753932Y-115207729D01*
X143824414Y-115377889D01*
X143926738Y-115531028D01*
X144056972Y-115661262D01*
X144210111Y-115763586D01*
X144380271Y-115834068D01*
X144560911Y-115870000D01*
X144745089Y-115870000D01*
X144925729Y-115834068D01*
X145095889Y-115763586D01*
X145198535Y-115695000D01*
X148783199Y-115695000D01*
X150439201Y-117351003D01*
X150462999Y-117380001D01*
X150578724Y-117474974D01*
X150710753Y-117545546D01*
X150854014Y-117589003D01*
X150965667Y-117600000D01*
X150965677Y-117600000D01*
X151003000Y-117603676D01*
X151040323Y-117600000D01*
X171920678Y-117600000D01*
X171958000Y-117603676D01*
X171995322Y-117600000D01*
X171995333Y-117600000D01*
X172106986Y-117589003D01*
X172250247Y-117545546D01*
X172382276Y-117474974D01*
X172498001Y-117380001D01*
X172521803Y-117350998D01*
X173104002Y-116768800D01*
X173133001Y-116745001D01*
X173227974Y-116629276D01*
X173298546Y-116497247D01*
X173342003Y-116353986D01*
X173353000Y-116242333D01*
X173356677Y-116205000D01*
X173353000Y-116167667D01*
X173353000Y-109892332D01*
X173356677Y-109855000D01*
X173342003Y-109706014D01*
X173298546Y-109562753D01*
X173227974Y-109430724D01*
X173156799Y-109343997D01*
X173133001Y-109314999D01*
X173104004Y-109291202D01*
X172521803Y-108709002D01*
X172498001Y-108679999D01*
X172382276Y-108585026D01*
X172250247Y-108514454D01*
X172106986Y-108470997D01*
X171995333Y-108460000D01*
X171995322Y-108460000D01*
X171958000Y-108456324D01*
X171920678Y-108460000D01*
X171331178Y-108460000D01*
X171206475Y-108273368D01*
X170999632Y-108066525D01*
X170817466Y-107944805D01*
X170934355Y-107875178D01*
X171150588Y-107680269D01*
X171324641Y-107446920D01*
X171449825Y-107184099D01*
X171494476Y-107036890D01*
X171373155Y-106807000D01*
X170180000Y-106807000D01*
X170180000Y-106827000D01*
X169926000Y-106827000D01*
X169926000Y-106807000D01*
X169906000Y-106807000D01*
X169906000Y-106553000D01*
X169926000Y-106553000D01*
X169926000Y-106533000D01*
X170180000Y-106533000D01*
X170180000Y-106553000D01*
X171373155Y-106553000D01*
X171494476Y-106323110D01*
X171449825Y-106175901D01*
X171324641Y-105913080D01*
X171150588Y-105679731D01*
X170934355Y-105484822D01*
X170817466Y-105415195D01*
X170999632Y-105293475D01*
X171206475Y-105086632D01*
X171368990Y-104843411D01*
X171480932Y-104573158D01*
X171538000Y-104286260D01*
X171538000Y-104260131D01*
X173356141Y-102441991D01*
X173399449Y-102406449D01*
X173541284Y-102233623D01*
X173646676Y-102036447D01*
X173711577Y-101822499D01*
X173728000Y-101655752D01*
X173728000Y-101655743D01*
X173733490Y-101600001D01*
X173728000Y-101544259D01*
X173728000Y-88955752D01*
X173733491Y-88900000D01*
X173711577Y-88677501D01*
X173646676Y-88463553D01*
X173541284Y-88266377D01*
X173540143Y-88264987D01*
X173399449Y-88093551D01*
X173356141Y-88058009D01*
X171529996Y-86231865D01*
X171494449Y-86188551D01*
X171321623Y-86046716D01*
X171124447Y-85941324D01*
X170910499Y-85876423D01*
X170743752Y-85860000D01*
X170743751Y-85860000D01*
X170688000Y-85854509D01*
X170632249Y-85860000D01*
X167817801Y-85860000D01*
X168659004Y-85018798D01*
X168688001Y-84995001D01*
X168782974Y-84879276D01*
X168853546Y-84747247D01*
X168897003Y-84603986D01*
X168908000Y-84492333D01*
X168908000Y-84492324D01*
X168911676Y-84455001D01*
X168908000Y-84417678D01*
X168908000Y-84262469D01*
X169068418Y-84130818D01*
X169230297Y-83933567D01*
X169350583Y-83708526D01*
X169424656Y-83464343D01*
X169443400Y-83274030D01*
X169443400Y-81825970D01*
X169424656Y-81635657D01*
X169350583Y-81391474D01*
X169230297Y-81166433D01*
X169068418Y-80969182D01*
X168871166Y-80807303D01*
X168646125Y-80687017D01*
X168622719Y-80679917D01*
X165098000Y-77155199D01*
X165098000Y-77010416D01*
X165174606Y-76969469D01*
X165402797Y-76782197D01*
X165590069Y-76554006D01*
X165608000Y-76520459D01*
X165625931Y-76554006D01*
X165813203Y-76782197D01*
X166041395Y-76969469D01*
X166301737Y-77108625D01*
X166584224Y-77194316D01*
X166878000Y-77223251D01*
X167171777Y-77194316D01*
X167454264Y-77108625D01*
X167714606Y-76969469D01*
X167942797Y-76782197D01*
X168130069Y-76554006D01*
X168148000Y-76520459D01*
X168165931Y-76554006D01*
X168353203Y-76782197D01*
X168581395Y-76969469D01*
X168841737Y-77108625D01*
X169124224Y-77194316D01*
X169418000Y-77223251D01*
X169711777Y-77194316D01*
X169994264Y-77108625D01*
X170254606Y-76969469D01*
X170482797Y-76782197D01*
X170670069Y-76554006D01*
X170688000Y-76520459D01*
X170705931Y-76554006D01*
X170893203Y-76782197D01*
X171121395Y-76969469D01*
X171381737Y-77108625D01*
X171664224Y-77194316D01*
X171958000Y-77223251D01*
X172251777Y-77194316D01*
X172534264Y-77108625D01*
X172794606Y-76969469D01*
X173022797Y-76782197D01*
X173210069Y-76554006D01*
X173228000Y-76520459D01*
X173245931Y-76554006D01*
X173433203Y-76782197D01*
X173661395Y-76969469D01*
X173921737Y-77108625D01*
X174204224Y-77194316D01*
X174498000Y-77223251D01*
X174791777Y-77194316D01*
X175074264Y-77108625D01*
X175334606Y-76969469D01*
X175562797Y-76782197D01*
X175750069Y-76554006D01*
X175889225Y-76293663D01*
X175974916Y-76011176D01*
X175996600Y-75791018D01*
X175996600Y-75338981D01*
X175974916Y-75118823D01*
X175889225Y-74836336D01*
X175750069Y-74575994D01*
X175562797Y-74347803D01*
X175334605Y-74160531D01*
X175074263Y-74021375D01*
X174791776Y-73935684D01*
X174498000Y-73906749D01*
X174204223Y-73935684D01*
X173921736Y-74021375D01*
X173661394Y-74160531D01*
X173433203Y-74347803D01*
X173245931Y-74575995D01*
X173228000Y-74609541D01*
X173210069Y-74575994D01*
X173022797Y-74347803D01*
X172794605Y-74160531D01*
X172534263Y-74021375D01*
X172251776Y-73935684D01*
X171958000Y-73906749D01*
X171664223Y-73935684D01*
X171381736Y-74021375D01*
X171121394Y-74160531D01*
X170893203Y-74347803D01*
X170705931Y-74575995D01*
X170688000Y-74609541D01*
X170670069Y-74575994D01*
X170482797Y-74347803D01*
X170254605Y-74160531D01*
X169994263Y-74021375D01*
X169711776Y-73935684D01*
X169418000Y-73906749D01*
X169124223Y-73935684D01*
X168841736Y-74021375D01*
X168581394Y-74160531D01*
X168353203Y-74347803D01*
X168165931Y-74575995D01*
X168148000Y-74609541D01*
X168130069Y-74575994D01*
X167942797Y-74347803D01*
X167714605Y-74160531D01*
X167454263Y-74021375D01*
X167171776Y-73935684D01*
X166878000Y-73906749D01*
X166584223Y-73935684D01*
X166301736Y-74021375D01*
X166041394Y-74160531D01*
X165813203Y-74347803D01*
X165625931Y-74575995D01*
X165608000Y-74609541D01*
X165590069Y-74575994D01*
X165402797Y-74347803D01*
X165174605Y-74160531D01*
X164914263Y-74021375D01*
X164631776Y-73935684D01*
X164338000Y-73906749D01*
X164044223Y-73935684D01*
X163761736Y-74021375D01*
X163501394Y-74160531D01*
X163273203Y-74347803D01*
X163085931Y-74575995D01*
X163068000Y-74609541D01*
X163050069Y-74575994D01*
X162862797Y-74347803D01*
X162634605Y-74160531D01*
X162374263Y-74021375D01*
X162091776Y-73935684D01*
X161798000Y-73906749D01*
X161504223Y-73935684D01*
X161221736Y-74021375D01*
X160961394Y-74160531D01*
X160733203Y-74347803D01*
X160545931Y-74575995D01*
X160528000Y-74609541D01*
X160510069Y-74575994D01*
X160322797Y-74347803D01*
X160094605Y-74160531D01*
X159834263Y-74021375D01*
X159551776Y-73935684D01*
X159258000Y-73906749D01*
X158964223Y-73935684D01*
X158681736Y-74021375D01*
X158421394Y-74160531D01*
X158193203Y-74347803D01*
X158005931Y-74575995D01*
X157988000Y-74609541D01*
X157970069Y-74575994D01*
X157782797Y-74347803D01*
X157554605Y-74160531D01*
X157294263Y-74021375D01*
X157011776Y-73935684D01*
X156718000Y-73906749D01*
X156424223Y-73935684D01*
X156141736Y-74021375D01*
X155881394Y-74160531D01*
X155653203Y-74347803D01*
X155465931Y-74575995D01*
X155326775Y-74836337D01*
X155241084Y-75118824D01*
X155219400Y-75338982D01*
X155219400Y-75791019D01*
X155241084Y-76011177D01*
X155326775Y-76293664D01*
X155465931Y-76554006D01*
X155653203Y-76782197D01*
X155881395Y-76969469D01*
X155958000Y-77010416D01*
X155958000Y-77790198D01*
X154936998Y-78811201D01*
X154908000Y-78834999D01*
X154884202Y-78863997D01*
X154884201Y-78863998D01*
X154813026Y-78950724D01*
X154742454Y-79082754D01*
X154712180Y-79182558D01*
X154698998Y-79226014D01*
X154691272Y-79304454D01*
X154684324Y-79375000D01*
X154688001Y-79412332D01*
X154688001Y-80837530D01*
X154527582Y-80969182D01*
X154365703Y-81166434D01*
X154245417Y-81391475D01*
X154171344Y-81635658D01*
X154152600Y-81825971D01*
X154152600Y-83274030D01*
X154171344Y-83464343D01*
X154245417Y-83708526D01*
X154365704Y-83933567D01*
X154527583Y-84130818D01*
X154724834Y-84292697D01*
X154949875Y-84412983D01*
X155194058Y-84487056D01*
X155448000Y-84512067D01*
X155701943Y-84487056D01*
X155946126Y-84412983D01*
X156171167Y-84292697D01*
X156368418Y-84130818D01*
X156530297Y-83933567D01*
X156650583Y-83708526D01*
X156718000Y-83486285D01*
X156785417Y-83708526D01*
X156905704Y-83933567D01*
X157067583Y-84130818D01*
X157264834Y-84292697D01*
X157489875Y-84412983D01*
X157734058Y-84487056D01*
X157988000Y-84512067D01*
X158241943Y-84487056D01*
X158486126Y-84412983D01*
X158711167Y-84292697D01*
X158908418Y-84130818D01*
X159070297Y-83933567D01*
X159190583Y-83708526D01*
X159258000Y-83486285D01*
X159325417Y-83708526D01*
X159445704Y-83933567D01*
X159607583Y-84130818D01*
X159804834Y-84292697D01*
X160029875Y-84412983D01*
X160274058Y-84487056D01*
X160528000Y-84512067D01*
X160781943Y-84487056D01*
X161026126Y-84412983D01*
X161251167Y-84292697D01*
X161448418Y-84130818D01*
X161610297Y-83933567D01*
X161730583Y-83708526D01*
X161800506Y-83478023D01*
X161822267Y-83587680D01*
X161919807Y-83823461D01*
X162061471Y-84035683D01*
X162241816Y-84216189D01*
X162453911Y-84358044D01*
X162689605Y-84455795D01*
X162740895Y-84463820D01*
X162941000Y-84339933D01*
X162941000Y-82677000D01*
X162921000Y-82677000D01*
X162921000Y-82423000D01*
X162941000Y-82423000D01*
X162941000Y-80760067D01*
X162740895Y-80636180D01*
X162689605Y-80644205D01*
X162453911Y-80741956D01*
X162241816Y-80883811D01*
X162061471Y-81064317D01*
X161919807Y-81276539D01*
X161822267Y-81512320D01*
X161800506Y-81621977D01*
X161730583Y-81391474D01*
X161610297Y-81166433D01*
X161448418Y-80969182D01*
X161251166Y-80807303D01*
X161026125Y-80687017D01*
X160781942Y-80612944D01*
X160528000Y-80587933D01*
X160274057Y-80612944D01*
X160029874Y-80687017D01*
X159804833Y-80807303D01*
X159607582Y-80969182D01*
X159445703Y-81166434D01*
X159325417Y-81391475D01*
X159258000Y-81613716D01*
X159190583Y-81391474D01*
X159070297Y-81166433D01*
X158908418Y-80969182D01*
X158748000Y-80837532D01*
X158748000Y-79689801D01*
X159769004Y-78668798D01*
X159798001Y-78645001D01*
X159892974Y-78529276D01*
X159963546Y-78397247D01*
X160007003Y-78253986D01*
X160018000Y-78142333D01*
X160018000Y-78142324D01*
X160021676Y-78105001D01*
X160018000Y-78067678D01*
X160018000Y-77010416D01*
X160094606Y-76969469D01*
X160322797Y-76782197D01*
X160510069Y-76554006D01*
X160528000Y-76520459D01*
X160545931Y-76554006D01*
X160733203Y-76782197D01*
X160961395Y-76969469D01*
X161038000Y-77010415D01*
X161038000Y-77432677D01*
X161034324Y-77470000D01*
X161038000Y-77507322D01*
X161038000Y-77507332D01*
X161048997Y-77618985D01*
X161092454Y-77762246D01*
X161163026Y-77894276D01*
X161191084Y-77928464D01*
X161257999Y-78010001D01*
X161287003Y-78033804D01*
X164488756Y-81235558D01*
X164405417Y-81391475D01*
X164335494Y-81621977D01*
X164313733Y-81512320D01*
X164216193Y-81276539D01*
X164074529Y-81064317D01*
X163894184Y-80883811D01*
X163682089Y-80741956D01*
X163446395Y-80644205D01*
X163395105Y-80636180D01*
X163195000Y-80760067D01*
X163195000Y-82423000D01*
X163215000Y-82423000D01*
X163215000Y-82677000D01*
X163195000Y-82677000D01*
X163195000Y-84339933D01*
X163395105Y-84463820D01*
X163446395Y-84455795D01*
X163682089Y-84358044D01*
X163894184Y-84216189D01*
X164074529Y-84035683D01*
X164216193Y-83823461D01*
X164313733Y-83587680D01*
X164335494Y-83478023D01*
X164405417Y-83708526D01*
X164525704Y-83933567D01*
X164687583Y-84130818D01*
X164884834Y-84292697D01*
X165109875Y-84412983D01*
X165354058Y-84487056D01*
X165608000Y-84512067D01*
X165861943Y-84487056D01*
X166106126Y-84412983D01*
X166331167Y-84292697D01*
X166528418Y-84130818D01*
X166690297Y-83933567D01*
X166810583Y-83708526D01*
X166878000Y-83486285D01*
X166945417Y-83708526D01*
X167065704Y-83933567D01*
X167227583Y-84130818D01*
X167320844Y-84207355D01*
X166563199Y-84965000D01*
X124012802Y-84965000D01*
X122991804Y-83944003D01*
X122968001Y-83914999D01*
X122852276Y-83820026D01*
X122720247Y-83749454D01*
X122576986Y-83705997D01*
X122465333Y-83695000D01*
X122465322Y-83695000D01*
X122428000Y-83691324D01*
X122390678Y-83695000D01*
X119925322Y-83695000D01*
X119887999Y-83691324D01*
X119850676Y-83695000D01*
X119850667Y-83695000D01*
X119739014Y-83705997D01*
X119595753Y-83749454D01*
X119463724Y-83820026D01*
X119347999Y-83914999D01*
X119324201Y-83943997D01*
X118106998Y-85161201D01*
X118078000Y-85184999D01*
X118054202Y-85213997D01*
X118054201Y-85213998D01*
X117983026Y-85300724D01*
X117912454Y-85432754D01*
X117891387Y-85502205D01*
X117868999Y-85576013D01*
X117868998Y-85576015D01*
X117854324Y-85725000D01*
X117858001Y-85762332D01*
X117858000Y-91442677D01*
X117854324Y-91480000D01*
X117858000Y-91517322D01*
X117858000Y-91517332D01*
X117868997Y-91628985D01*
X117900224Y-91731928D01*
X117912454Y-91772246D01*
X117983026Y-91904276D01*
X118022871Y-91952826D01*
X118077999Y-92020001D01*
X118107003Y-92043804D01*
X119551823Y-93488625D01*
X119545832Y-93503088D01*
X119483000Y-93818967D01*
X119483000Y-94141033D01*
X119545832Y-94456912D01*
X119669082Y-94754463D01*
X119848013Y-95022252D01*
X120075748Y-95249987D01*
X120343537Y-95428918D01*
X120641088Y-95552168D01*
X120956967Y-95615000D01*
X121279033Y-95615000D01*
X121594912Y-95552168D01*
X121892463Y-95428918D01*
X122160252Y-95249987D01*
X122387987Y-95022252D01*
X122566918Y-94754463D01*
X122690168Y-94456912D01*
X122753000Y-94141033D01*
X122753000Y-93818967D01*
X122690168Y-93503088D01*
X122566918Y-93205537D01*
X122565668Y-93203665D01*
X125438000Y-93203665D01*
X125438000Y-93486335D01*
X125493147Y-93763574D01*
X125601320Y-94024727D01*
X125758363Y-94259759D01*
X125958241Y-94459637D01*
X126193273Y-94616680D01*
X126454426Y-94724853D01*
X126731665Y-94780000D01*
X127014335Y-94780000D01*
X127291574Y-94724853D01*
X127552727Y-94616680D01*
X127787759Y-94459637D01*
X127987637Y-94259759D01*
X128144680Y-94024727D01*
X128252853Y-93763574D01*
X128308000Y-93486335D01*
X128308000Y-93203665D01*
X128252853Y-92926426D01*
X128144680Y-92665273D01*
X127987637Y-92430241D01*
X127787759Y-92230363D01*
X127552727Y-92073320D01*
X127291574Y-91965147D01*
X127014335Y-91910000D01*
X126731665Y-91910000D01*
X126454426Y-91965147D01*
X126193273Y-92073320D01*
X125958241Y-92230363D01*
X125758363Y-92430241D01*
X125601320Y-92665273D01*
X125493147Y-92926426D01*
X125438000Y-93203665D01*
X122565668Y-93203665D01*
X122387987Y-92937748D01*
X122160252Y-92710013D01*
X121892463Y-92531082D01*
X121594912Y-92407832D01*
X121279033Y-92345000D01*
X120956967Y-92345000D01*
X120641088Y-92407832D01*
X120626625Y-92413823D01*
X119378000Y-91165199D01*
X119378000Y-86039801D01*
X120202802Y-85215000D01*
X122113199Y-85215000D01*
X123133198Y-86235000D01*
X122572909Y-86235000D01*
X122566918Y-86220537D01*
X122387987Y-85952748D01*
X122160252Y-85725013D01*
X121892463Y-85546082D01*
X121594912Y-85422832D01*
X121279033Y-85360000D01*
X120956967Y-85360000D01*
X120641088Y-85422832D01*
X120343537Y-85546082D01*
X120075748Y-85725013D01*
X119848013Y-85952748D01*
X119669082Y-86220537D01*
X119545832Y-86518088D01*
X119483000Y-86833967D01*
X119483000Y-87156033D01*
X119545832Y-87471912D01*
X119669082Y-87769463D01*
X119848013Y-88037252D01*
X120075748Y-88264987D01*
X120343537Y-88443918D01*
X120641088Y-88567168D01*
X120956967Y-88630000D01*
X121279033Y-88630000D01*
X121594912Y-88567168D01*
X121892463Y-88443918D01*
X122160252Y-88264987D01*
X122387987Y-88037252D01*
X122566918Y-87769463D01*
X122572909Y-87755000D01*
X132273199Y-87755000D01*
X134568000Y-90049802D01*
X134568001Y-91942406D01*
X134498987Y-91979294D01*
X134272866Y-92164866D01*
X134087294Y-92390986D01*
X134078000Y-92408374D01*
X134068706Y-92390986D01*
X133883134Y-92164866D01*
X133657014Y-91979294D01*
X133399034Y-91841401D01*
X133119111Y-91756487D01*
X132828000Y-91727815D01*
X132536890Y-91756487D01*
X132256967Y-91841401D01*
X131998987Y-91979294D01*
X131772866Y-92164866D01*
X131587294Y-92390986D01*
X131449401Y-92648966D01*
X131364487Y-92928889D01*
X131343000Y-93147050D01*
X131343000Y-93542949D01*
X131364487Y-93761110D01*
X131449401Y-94041033D01*
X131587294Y-94299013D01*
X131772866Y-94525134D01*
X131998986Y-94710706D01*
X132068001Y-94747595D01*
X132068000Y-97992677D01*
X132064324Y-98030000D01*
X132068000Y-98067322D01*
X132068000Y-98067332D01*
X132078997Y-98178985D01*
X132114591Y-98296324D01*
X132122454Y-98322246D01*
X132193026Y-98454276D01*
X132226896Y-98495546D01*
X132287999Y-98570001D01*
X132317002Y-98593804D01*
X133294200Y-99571002D01*
X133317999Y-99600001D01*
X133346997Y-99623799D01*
X133433723Y-99694974D01*
X133565753Y-99765546D01*
X133709014Y-99809003D01*
X133820667Y-99820000D01*
X133820677Y-99820000D01*
X133858000Y-99823676D01*
X133895323Y-99820000D01*
X134813199Y-99820000D01*
X135130058Y-100136860D01*
X135032294Y-100255986D01*
X134995405Y-100325000D01*
X127640595Y-100325000D01*
X127603706Y-100255986D01*
X127418134Y-100029866D01*
X127192014Y-99844294D01*
X126934034Y-99706401D01*
X126654111Y-99621487D01*
X126435950Y-99600000D01*
X126040050Y-99600000D01*
X125821889Y-99621487D01*
X125541966Y-99706401D01*
X125283986Y-99844294D01*
X125057866Y-100029866D01*
X124872294Y-100255986D01*
X124835405Y-100325000D01*
X117480595Y-100325000D01*
X117443706Y-100255986D01*
X117258134Y-100029866D01*
X117032014Y-99844294D01*
X116774034Y-99706401D01*
X116494111Y-99621487D01*
X116275950Y-99600000D01*
X115880050Y-99600000D01*
X115661889Y-99621487D01*
X115381966Y-99706401D01*
X115123986Y-99844294D01*
X114897866Y-100029866D01*
X114712294Y-100255986D01*
X114574401Y-100513966D01*
X114489487Y-100793889D01*
X114460815Y-101085000D01*
X114489487Y-101376111D01*
X114574401Y-101656034D01*
X114712294Y-101914014D01*
X114897866Y-102140134D01*
X115123986Y-102325706D01*
X115141374Y-102335000D01*
X115123986Y-102344294D01*
X114897866Y-102529866D01*
X114712294Y-102755986D01*
X114574401Y-103013966D01*
X114489487Y-103293889D01*
X114460815Y-103585000D01*
X114489487Y-103876111D01*
X114574401Y-104156034D01*
X114712294Y-104414014D01*
X114897866Y-104640134D01*
X115123986Y-104825706D01*
X115141374Y-104835000D01*
X115123986Y-104844294D01*
X114897866Y-105029866D01*
X114712294Y-105255986D01*
X114574401Y-105513966D01*
X114489487Y-105793889D01*
X114460815Y-106085000D01*
X114489487Y-106376111D01*
X114574401Y-106656034D01*
X114712294Y-106914014D01*
X114893608Y-107134945D01*
X114858820Y-107145498D01*
X114748506Y-107204463D01*
X114651815Y-107283815D01*
X114572463Y-107380506D01*
X114513498Y-107490820D01*
X114477188Y-107610518D01*
X114464928Y-107735000D01*
X114468000Y-108299250D01*
X114626750Y-108458000D01*
X115951000Y-108458000D01*
X115951000Y-108438000D01*
X116205000Y-108438000D01*
X116205000Y-108458000D01*
X117529250Y-108458000D01*
X117688000Y-108299250D01*
X117691072Y-107735000D01*
X117678812Y-107610518D01*
X117642502Y-107490820D01*
X117583537Y-107380506D01*
X117504185Y-107283815D01*
X117426426Y-107220000D01*
X124889574Y-107220000D01*
X124811815Y-107283815D01*
X124732463Y-107380506D01*
X124673498Y-107490820D01*
X124637188Y-107610518D01*
X124624928Y-107735000D01*
X124628000Y-108299250D01*
X124786750Y-108458000D01*
X126111000Y-108458000D01*
X126111000Y-108438000D01*
X126365000Y-108438000D01*
X126365000Y-108458000D01*
X127689250Y-108458000D01*
X127848000Y-108299250D01*
X127851072Y-107735000D01*
X127838812Y-107610518D01*
X127802502Y-107490820D01*
X127743537Y-107380506D01*
X127664185Y-107283815D01*
X127586426Y-107220000D01*
X135049574Y-107220000D01*
X134971815Y-107283815D01*
X134892463Y-107380506D01*
X134833498Y-107490820D01*
X134797188Y-107610518D01*
X134784928Y-107735000D01*
X134788000Y-108299250D01*
X134946750Y-108458000D01*
X136271000Y-108458000D01*
X136271000Y-108438000D01*
X136525000Y-108438000D01*
X136525000Y-108458000D01*
X136545000Y-108458000D01*
X136545000Y-108712000D01*
X136525000Y-108712000D01*
X136525000Y-109911250D01*
X136683750Y-110070000D01*
X137373000Y-110073072D01*
X137497482Y-110060812D01*
X137617180Y-110024502D01*
X137727494Y-109965537D01*
X137803000Y-109903571D01*
X137803000Y-111289868D01*
X136269860Y-112823009D01*
X136226552Y-112858551D01*
X136084717Y-113031377D01*
X136064087Y-113069974D01*
X135979324Y-113228554D01*
X135914423Y-113442502D01*
X135892509Y-113665000D01*
X135898001Y-113720761D01*
X135898000Y-116039814D01*
X135875843Y-116066813D01*
X135747236Y-116307420D01*
X135668040Y-116568494D01*
X135648000Y-116771964D01*
X135648000Y-117745000D01*
X128466685Y-117745000D01*
X127676072Y-116954387D01*
X127676072Y-116040000D01*
X127663812Y-115915518D01*
X127627502Y-115795820D01*
X127568537Y-115685506D01*
X127489185Y-115588815D01*
X127476242Y-115578193D01*
X127595571Y-115326004D01*
X127664300Y-115051816D01*
X127678217Y-114769488D01*
X127636787Y-114489870D01*
X127541603Y-114223708D01*
X127474671Y-114098486D01*
X127230702Y-114026903D01*
X126417605Y-114840000D01*
X126431748Y-114854143D01*
X126252143Y-115033748D01*
X126238000Y-115019605D01*
X126223858Y-115033748D01*
X126044253Y-114854143D01*
X126058395Y-114840000D01*
X125245298Y-114026903D01*
X125001329Y-114098486D01*
X124880429Y-114353996D01*
X124811700Y-114628184D01*
X124797783Y-114910512D01*
X124839213Y-115190130D01*
X124934397Y-115456292D01*
X124999616Y-115578309D01*
X124986815Y-115588815D01*
X124907463Y-115685506D01*
X124848498Y-115795820D01*
X124812188Y-115915518D01*
X124799928Y-116040000D01*
X124799928Y-116319387D01*
X123124315Y-117995000D01*
X117234213Y-117995000D01*
X117219407Y-117987086D01*
X117219795Y-117986802D01*
X117416664Y-117772046D01*
X117567854Y-117523009D01*
X117667554Y-117249261D01*
X117669476Y-117236890D01*
X117548155Y-117007000D01*
X116205000Y-117007000D01*
X116205000Y-117027000D01*
X115951000Y-117027000D01*
X115951000Y-117007000D01*
X114607845Y-117007000D01*
X114486524Y-117236890D01*
X114488446Y-117249261D01*
X114588146Y-117523009D01*
X114739336Y-117772046D01*
X114936205Y-117986802D01*
X114936593Y-117987086D01*
X114834614Y-118041595D01*
X114700038Y-118152038D01*
X114589595Y-118286614D01*
X114507528Y-118440150D01*
X114456992Y-118606746D01*
X114439928Y-118780000D01*
X111708000Y-118780000D01*
X111708000Y-116523110D01*
X114486524Y-116523110D01*
X114607845Y-116753000D01*
X115951000Y-116753000D01*
X115951000Y-115552768D01*
X116205000Y-115552768D01*
X116205000Y-116753000D01*
X117548155Y-116753000D01*
X117669476Y-116523110D01*
X117667554Y-116510739D01*
X117567854Y-116236991D01*
X117416664Y-115987954D01*
X117219795Y-115773198D01*
X116984812Y-115600975D01*
X116720745Y-115477904D01*
X116437742Y-115408715D01*
X116205000Y-115552768D01*
X115951000Y-115552768D01*
X115718258Y-115408715D01*
X115435255Y-115477904D01*
X115171188Y-115600975D01*
X114936205Y-115773198D01*
X114739336Y-115987954D01*
X114588146Y-116236991D01*
X114488446Y-116510739D01*
X114486524Y-116523110D01*
X111708000Y-116523110D01*
X111708000Y-113847298D01*
X125424903Y-113847298D01*
X126238000Y-114660395D01*
X127051097Y-113847298D01*
X126979514Y-113603329D01*
X126724004Y-113482429D01*
X126449816Y-113413700D01*
X126167488Y-113399783D01*
X125887870Y-113441213D01*
X125621708Y-113536397D01*
X125496486Y-113603329D01*
X125424903Y-113847298D01*
X111708000Y-113847298D01*
X111708000Y-109435000D01*
X114464928Y-109435000D01*
X114477188Y-109559482D01*
X114513498Y-109679180D01*
X114572463Y-109789494D01*
X114651815Y-109886185D01*
X114748506Y-109965537D01*
X114858820Y-110024502D01*
X114978518Y-110060812D01*
X115103000Y-110073072D01*
X115792250Y-110070000D01*
X115951000Y-109911250D01*
X115951000Y-108712000D01*
X116205000Y-108712000D01*
X116205000Y-109911250D01*
X116363750Y-110070000D01*
X117053000Y-110073072D01*
X117177482Y-110060812D01*
X117297180Y-110024502D01*
X117407494Y-109965537D01*
X117504185Y-109886185D01*
X117583537Y-109789494D01*
X117642502Y-109679180D01*
X117678812Y-109559482D01*
X117691072Y-109435000D01*
X124624928Y-109435000D01*
X124637188Y-109559482D01*
X124673498Y-109679180D01*
X124732463Y-109789494D01*
X124811815Y-109886185D01*
X124908506Y-109965537D01*
X125018820Y-110024502D01*
X125138518Y-110060812D01*
X125263000Y-110073072D01*
X125952250Y-110070000D01*
X126111000Y-109911250D01*
X126111000Y-108712000D01*
X126365000Y-108712000D01*
X126365000Y-109911250D01*
X126523750Y-110070000D01*
X127213000Y-110073072D01*
X127337482Y-110060812D01*
X127457180Y-110024502D01*
X127567494Y-109965537D01*
X127664185Y-109886185D01*
X127743537Y-109789494D01*
X127802502Y-109679180D01*
X127838812Y-109559482D01*
X127851072Y-109435000D01*
X134784928Y-109435000D01*
X134797188Y-109559482D01*
X134833498Y-109679180D01*
X134892463Y-109789494D01*
X134971815Y-109886185D01*
X135068506Y-109965537D01*
X135178820Y-110024502D01*
X135298518Y-110060812D01*
X135423000Y-110073072D01*
X136112250Y-110070000D01*
X136271000Y-109911250D01*
X136271000Y-108712000D01*
X134946750Y-108712000D01*
X134788000Y-108870750D01*
X134784928Y-109435000D01*
X127851072Y-109435000D01*
X127848000Y-108870750D01*
X127689250Y-108712000D01*
X126365000Y-108712000D01*
X126111000Y-108712000D01*
X124786750Y-108712000D01*
X124628000Y-108870750D01*
X124624928Y-109435000D01*
X117691072Y-109435000D01*
X117688000Y-108870750D01*
X117529250Y-108712000D01*
X116205000Y-108712000D01*
X115951000Y-108712000D01*
X114626750Y-108712000D01*
X114468000Y-108870750D01*
X114464928Y-109435000D01*
X111708000Y-109435000D01*
X111708000Y-95115413D01*
X115162192Y-95115413D01*
X115257956Y-95379814D01*
X115547571Y-95520704D01*
X115859108Y-95602384D01*
X116180595Y-95621718D01*
X116499675Y-95577961D01*
X116804088Y-95472795D01*
X116978044Y-95379814D01*
X117073808Y-95115413D01*
X116118000Y-94159605D01*
X115162192Y-95115413D01*
X111708000Y-95115413D01*
X111708000Y-94042595D01*
X114476282Y-94042595D01*
X114520039Y-94361675D01*
X114625205Y-94666088D01*
X114718186Y-94840044D01*
X114982587Y-94935808D01*
X115938395Y-93980000D01*
X116297605Y-93980000D01*
X117253413Y-94935808D01*
X117517814Y-94840044D01*
X117658704Y-94550429D01*
X117740384Y-94238892D01*
X117759718Y-93917405D01*
X117715961Y-93598325D01*
X117610795Y-93293912D01*
X117517814Y-93119956D01*
X117253413Y-93024192D01*
X116297605Y-93980000D01*
X115938395Y-93980000D01*
X114982587Y-93024192D01*
X114718186Y-93119956D01*
X114577296Y-93409571D01*
X114495616Y-93721108D01*
X114476282Y-94042595D01*
X111708000Y-94042595D01*
X111708000Y-92844587D01*
X115162192Y-92844587D01*
X116118000Y-93800395D01*
X117073808Y-92844587D01*
X116978044Y-92580186D01*
X116688429Y-92439296D01*
X116376892Y-92357616D01*
X116055405Y-92338282D01*
X115736325Y-92382039D01*
X115431912Y-92487205D01*
X115257956Y-92580186D01*
X115162192Y-92844587D01*
X111708000Y-92844587D01*
X111708000Y-88130413D01*
X115162192Y-88130413D01*
X115257956Y-88394814D01*
X115547571Y-88535704D01*
X115859108Y-88617384D01*
X116180595Y-88636718D01*
X116499675Y-88592961D01*
X116804088Y-88487795D01*
X116978044Y-88394814D01*
X117073808Y-88130413D01*
X116118000Y-87174605D01*
X115162192Y-88130413D01*
X111708000Y-88130413D01*
X111708000Y-87057595D01*
X114476282Y-87057595D01*
X114520039Y-87376675D01*
X114625205Y-87681088D01*
X114718186Y-87855044D01*
X114982587Y-87950808D01*
X115938395Y-86995000D01*
X116297605Y-86995000D01*
X117253413Y-87950808D01*
X117517814Y-87855044D01*
X117658704Y-87565429D01*
X117740384Y-87253892D01*
X117759718Y-86932405D01*
X117715961Y-86613325D01*
X117610795Y-86308912D01*
X117517814Y-86134956D01*
X117253413Y-86039192D01*
X116297605Y-86995000D01*
X115938395Y-86995000D01*
X114982587Y-86039192D01*
X114718186Y-86134956D01*
X114577296Y-86424571D01*
X114495616Y-86736108D01*
X114476282Y-87057595D01*
X111708000Y-87057595D01*
X111708000Y-85859587D01*
X115162192Y-85859587D01*
X116118000Y-86815395D01*
X117073808Y-85859587D01*
X116978044Y-85595186D01*
X116688429Y-85454296D01*
X116376892Y-85372616D01*
X116055405Y-85353282D01*
X115736325Y-85397039D01*
X115431912Y-85502205D01*
X115257956Y-85595186D01*
X115162192Y-85859587D01*
X111708000Y-85859587D01*
X111708000Y-81145413D01*
X115162192Y-81145413D01*
X115257956Y-81409814D01*
X115547571Y-81550704D01*
X115859108Y-81632384D01*
X116180595Y-81651718D01*
X116499675Y-81607961D01*
X116804088Y-81502795D01*
X116978044Y-81409814D01*
X117073808Y-81145413D01*
X116118000Y-80189605D01*
X115162192Y-81145413D01*
X111708000Y-81145413D01*
X111708000Y-80072595D01*
X114476282Y-80072595D01*
X114520039Y-80391675D01*
X114625205Y-80696088D01*
X114718186Y-80870044D01*
X114982587Y-80965808D01*
X115938395Y-80010000D01*
X116297605Y-80010000D01*
X117253413Y-80965808D01*
X117517814Y-80870044D01*
X117658704Y-80580429D01*
X117740384Y-80268892D01*
X117759718Y-79947405D01*
X117746219Y-79848967D01*
X119483000Y-79848967D01*
X119483000Y-80171033D01*
X119545832Y-80486912D01*
X119669082Y-80784463D01*
X119848013Y-81052252D01*
X120075748Y-81279987D01*
X120343537Y-81458918D01*
X120641088Y-81582168D01*
X120956967Y-81645000D01*
X121279033Y-81645000D01*
X121594912Y-81582168D01*
X121892463Y-81458918D01*
X122160252Y-81279987D01*
X122387987Y-81052252D01*
X122566918Y-80784463D01*
X122572909Y-80770000D01*
X126113000Y-80770000D01*
X126113001Y-81966956D01*
X125958241Y-82070363D01*
X125758363Y-82270241D01*
X125601320Y-82505273D01*
X125493147Y-82766426D01*
X125438000Y-83043665D01*
X125438000Y-83326335D01*
X125493147Y-83603574D01*
X125601320Y-83864727D01*
X125758363Y-84099759D01*
X125958241Y-84299637D01*
X126193273Y-84456680D01*
X126454426Y-84564853D01*
X126731665Y-84620000D01*
X127014335Y-84620000D01*
X127291574Y-84564853D01*
X127552727Y-84456680D01*
X127787759Y-84299637D01*
X127987637Y-84099759D01*
X128144680Y-83864727D01*
X128252853Y-83603574D01*
X128308000Y-83326335D01*
X128308000Y-83043665D01*
X128252853Y-82766426D01*
X128144680Y-82505273D01*
X127987637Y-82270241D01*
X127787759Y-82070363D01*
X127633000Y-81966957D01*
X127633000Y-80047333D01*
X127636677Y-80010000D01*
X127622003Y-79861014D01*
X127578546Y-79717753D01*
X127507974Y-79585724D01*
X127413001Y-79469999D01*
X127297276Y-79375026D01*
X127165247Y-79304454D01*
X127021986Y-79260997D01*
X126910333Y-79250000D01*
X126873000Y-79246323D01*
X126835667Y-79250000D01*
X122572909Y-79250000D01*
X122566918Y-79235537D01*
X122387987Y-78967748D01*
X122160252Y-78740013D01*
X121892463Y-78561082D01*
X121594912Y-78437832D01*
X121279033Y-78375000D01*
X120956967Y-78375000D01*
X120641088Y-78437832D01*
X120343537Y-78561082D01*
X120075748Y-78740013D01*
X119848013Y-78967748D01*
X119669082Y-79235537D01*
X119545832Y-79533088D01*
X119483000Y-79848967D01*
X117746219Y-79848967D01*
X117715961Y-79628325D01*
X117610795Y-79323912D01*
X117517814Y-79149956D01*
X117253413Y-79054192D01*
X116297605Y-80010000D01*
X115938395Y-80010000D01*
X114982587Y-79054192D01*
X114718186Y-79149956D01*
X114577296Y-79439571D01*
X114495616Y-79751108D01*
X114476282Y-80072595D01*
X111708000Y-80072595D01*
X111708000Y-78874587D01*
X115162192Y-78874587D01*
X116118000Y-79830395D01*
X117073808Y-78874587D01*
X116978044Y-78610186D01*
X116688429Y-78469296D01*
X116376892Y-78387616D01*
X116055405Y-78368282D01*
X115736325Y-78412039D01*
X115431912Y-78517205D01*
X115257956Y-78610186D01*
X115162192Y-78874587D01*
X111708000Y-78874587D01*
X111708000Y-73735000D01*
X124296293Y-73735000D01*
X124166406Y-73864887D01*
G37*
X124166406Y-73864887D02*
X123874536Y-74301702D01*
X123673492Y-74787065D01*
X123571000Y-75302323D01*
X123571000Y-75827677D01*
X123673492Y-76342935D01*
X123874536Y-76828298D01*
X124166406Y-77265113D01*
X124537887Y-77636594D01*
X124974702Y-77928464D01*
X125460065Y-78129508D01*
X125975323Y-78232000D01*
X126500677Y-78232000D01*
X127015935Y-78129508D01*
X127501298Y-77928464D01*
X127938113Y-77636594D01*
X128309594Y-77265113D01*
X128601464Y-76828298D01*
X128657001Y-76694219D01*
X128729203Y-76782197D01*
X128957395Y-76969469D01*
X129217737Y-77108625D01*
X129500224Y-77194316D01*
X129794000Y-77223251D01*
X130087777Y-77194316D01*
X130370264Y-77108625D01*
X130630606Y-76969469D01*
X130858797Y-76782197D01*
X131046069Y-76554006D01*
X131064000Y-76520459D01*
X131081931Y-76554006D01*
X131269203Y-76782197D01*
X131497395Y-76969469D01*
X131757737Y-77108625D01*
X132040224Y-77194316D01*
X132334000Y-77223251D01*
X132627777Y-77194316D01*
X132910264Y-77108625D01*
X133170606Y-76969469D01*
X133398797Y-76782197D01*
X133586069Y-76554006D01*
X133604000Y-76520459D01*
X133621931Y-76554006D01*
X133809203Y-76782197D01*
X134037395Y-76969469D01*
X134297737Y-77108625D01*
X134580224Y-77194316D01*
X134874000Y-77223251D01*
X135167777Y-77194316D01*
X135450264Y-77108625D01*
X135710606Y-76969469D01*
X135938797Y-76782197D01*
X136126069Y-76554006D01*
X136147424Y-76514053D01*
X136295514Y-76716729D01*
X136511965Y-76915733D01*
X136763081Y-77068686D01*
X137039211Y-77169709D01*
X137054974Y-77172358D01*
X137287000Y-77051217D01*
X137287000Y-75692000D01*
X137267000Y-75692000D01*
X137267000Y-75438000D01*
X137287000Y-75438000D01*
X137287000Y-74078783D01*
X137541000Y-74078783D01*
X137541000Y-75438000D01*
X137561000Y-75438000D01*
X137561000Y-75692000D01*
X137541000Y-75692000D01*
X137541000Y-77051217D01*
X137773026Y-77172358D01*
X137788789Y-77169709D01*
X138064919Y-77068686D01*
X138316035Y-76915733D01*
X138532486Y-76716729D01*
X138680576Y-76514053D01*
X138701931Y-76554006D01*
X138889203Y-76782197D01*
X139117395Y-76969469D01*
X139377737Y-77108625D01*
X139660224Y-77194316D01*
X139954000Y-77223251D01*
X140247777Y-77194316D01*
X140530264Y-77108625D01*
X140790606Y-76969469D01*
X141018797Y-76782197D01*
X141206069Y-76554006D01*
X141224000Y-76520459D01*
X141241931Y-76554006D01*
X141429203Y-76782197D01*
X141657395Y-76969469D01*
X141917737Y-77108625D01*
X142200224Y-77194316D01*
X142494000Y-77223251D01*
X142787777Y-77194316D01*
X143070264Y-77108625D01*
X143330606Y-76969469D01*
X143558797Y-76782197D01*
X143746069Y-76554006D01*
X143764000Y-76520459D01*
X143781931Y-76554006D01*
X143969203Y-76782197D01*
X144197395Y-76969469D01*
X144457737Y-77108625D01*
X144740224Y-77194316D01*
X145034000Y-77223251D01*
X145327777Y-77194316D01*
X145610264Y-77108625D01*
X145870606Y-76969469D01*
X146098797Y-76782197D01*
X146286069Y-76554006D01*
X146304000Y-76520459D01*
X146321931Y-76554006D01*
X146509203Y-76782197D01*
X146737395Y-76969469D01*
X146997737Y-77108625D01*
X147280224Y-77194316D01*
X147574000Y-77223251D01*
X147867777Y-77194316D01*
X148150264Y-77108625D01*
X148410606Y-76969469D01*
X148638797Y-76782197D01*
X148826069Y-76554006D01*
X148844000Y-76520459D01*
X148861931Y-76554006D01*
X149049203Y-76782197D01*
X149277395Y-76969469D01*
X149537737Y-77108625D01*
X149820224Y-77194316D01*
X150114000Y-77223251D01*
X150407777Y-77194316D01*
X150690264Y-77108625D01*
X150950606Y-76969469D01*
X151178797Y-76782197D01*
X151366069Y-76554006D01*
X151384000Y-76520459D01*
X151401931Y-76554006D01*
X151589203Y-76782197D01*
X151817395Y-76969469D01*
X152077737Y-77108625D01*
X152360224Y-77194316D01*
X152654000Y-77223251D01*
X152947777Y-77194316D01*
X153230264Y-77108625D01*
X153490606Y-76969469D01*
X153718797Y-76782197D01*
X153906069Y-76554006D01*
X154045225Y-76293663D01*
X154130916Y-76011176D01*
X154152600Y-75791018D01*
X154152600Y-75338981D01*
X154130916Y-75118823D01*
X154045225Y-74836336D01*
X153906069Y-74575994D01*
X153718797Y-74347803D01*
X153490605Y-74160531D01*
X153230263Y-74021375D01*
X152947776Y-73935684D01*
X152654000Y-73906749D01*
X152360223Y-73935684D01*
X152077736Y-74021375D01*
X151817394Y-74160531D01*
X151589203Y-74347803D01*
X151401931Y-74575995D01*
X151384000Y-74609541D01*
X151366069Y-74575994D01*
X151178797Y-74347803D01*
X150950605Y-74160531D01*
X150690263Y-74021375D01*
X150407776Y-73935684D01*
X150114000Y-73906749D01*
X149820223Y-73935684D01*
X149537736Y-74021375D01*
X149277394Y-74160531D01*
X149049203Y-74347803D01*
X148861931Y-74575995D01*
X148844000Y-74609541D01*
X148826069Y-74575994D01*
X148638797Y-74347803D01*
X148410605Y-74160531D01*
X148150263Y-74021375D01*
X147867776Y-73935684D01*
X147574000Y-73906749D01*
X147280223Y-73935684D01*
X146997736Y-74021375D01*
X146737394Y-74160531D01*
X146509203Y-74347803D01*
X146321931Y-74575995D01*
X146304000Y-74609541D01*
X146286069Y-74575994D01*
X146098797Y-74347803D01*
X145870605Y-74160531D01*
X145610263Y-74021375D01*
X145327776Y-73935684D01*
X145034000Y-73906749D01*
X144740223Y-73935684D01*
X144457736Y-74021375D01*
X144197394Y-74160531D01*
X143969203Y-74347803D01*
X143781931Y-74575995D01*
X143764000Y-74609541D01*
X143746069Y-74575994D01*
X143558797Y-74347803D01*
X143330605Y-74160531D01*
X143070263Y-74021375D01*
X142787776Y-73935684D01*
X142494000Y-73906749D01*
X142200223Y-73935684D01*
X141917736Y-74021375D01*
X141657394Y-74160531D01*
X141429203Y-74347803D01*
X141241931Y-74575995D01*
X141224000Y-74609541D01*
X141206069Y-74575994D01*
X141018797Y-74347803D01*
X140790605Y-74160531D01*
X140530263Y-74021375D01*
X140247776Y-73935684D01*
X139954000Y-73906749D01*
X139660223Y-73935684D01*
X139377736Y-74021375D01*
X139117394Y-74160531D01*
X138889203Y-74347803D01*
X138701931Y-74575995D01*
X138680576Y-74615947D01*
X138532486Y-74413271D01*
X138316035Y-74214267D01*
X138064919Y-74061314D01*
X137788789Y-73960291D01*
X137773026Y-73957642D01*
X137541000Y-74078783D01*
X137287000Y-74078783D01*
X137054974Y-73957642D01*
X137039211Y-73960291D01*
X136763081Y-74061314D01*
X136511965Y-74214267D01*
X136295514Y-74413271D01*
X136147424Y-74615947D01*
X136126069Y-74575994D01*
X135938797Y-74347803D01*
X135710605Y-74160531D01*
X135450263Y-74021375D01*
X135167776Y-73935684D01*
X134874000Y-73906749D01*
X134580223Y-73935684D01*
X134297736Y-74021375D01*
X134037394Y-74160531D01*
X133809203Y-74347803D01*
X133621931Y-74575995D01*
X133604000Y-74609541D01*
X133586069Y-74575994D01*
X133398797Y-74347803D01*
X133170605Y-74160531D01*
X132910263Y-74021375D01*
X132627776Y-73935684D01*
X132334000Y-73906749D01*
X132040223Y-73935684D01*
X131757736Y-74021375D01*
X131497394Y-74160531D01*
X131269203Y-74347803D01*
X131081931Y-74575995D01*
X131064000Y-74609541D01*
X131046069Y-74575994D01*
X130858797Y-74347803D01*
X130630605Y-74160531D01*
X130370263Y-74021375D01*
X130087776Y-73935684D01*
X129794000Y-73906749D01*
X129500223Y-73935684D01*
X129217736Y-74021375D01*
X128957394Y-74160531D01*
X128729203Y-74347803D01*
X128657001Y-74435781D01*
X128601464Y-74301702D01*
X128309594Y-73864887D01*
X128179707Y-73735000D01*
X175219909Y-73735000D01*
X176328001Y-74843093D01*
X176328000Y-85944125D01*
X176324565Y-85979000D01*
X176328000Y-86013875D01*
X176328000Y-86013876D01*
X176338273Y-86118183D01*
X176378872Y-86252019D01*
X176444800Y-86375362D01*
X176533525Y-86483474D01*
X176560617Y-86505708D01*
X178868001Y-88813093D01*
X178868001Y-88863294D01*
X178738113Y-88733406D01*
X178301298Y-88441536D01*
X177815935Y-88240492D01*
X177300677Y-88138000D01*
X176775323Y-88138000D01*
X176260065Y-88240492D01*
X175774702Y-88441536D01*
X175337887Y-88733406D01*
X174966406Y-89104887D01*
X174674536Y-89541702D01*
X174473492Y-90027065D01*
X174371000Y-90542323D01*
X174371000Y-91067677D01*
X174473492Y-91582935D01*
X174674536Y-92068298D01*
X174966406Y-92505113D01*
X175337887Y-92876594D01*
X175774702Y-93168464D01*
X176260065Y-93369508D01*
X176775323Y-93472000D01*
X177300677Y-93472000D01*
X177815935Y-93369508D01*
X178301298Y-93168464D01*
X178738113Y-92876594D01*
X178868001Y-92746706D01*
X178868000Y-116803293D01*
X178738113Y-116673406D01*
X178301298Y-116381536D01*
X177815935Y-116180492D01*
X177300677Y-116078000D01*
X176775323Y-116078000D01*
X176260065Y-116180492D01*
X175774702Y-116381536D01*
X175337887Y-116673406D01*
X174966406Y-117044887D01*
X174674536Y-117481702D01*
X174473492Y-117967065D01*
X174371000Y-118482323D01*
X174371000Y-119007677D01*
X174473492Y-119522935D01*
X174674536Y-120008298D01*
X174966406Y-120445113D01*
X175337887Y-120816594D01*
X175774702Y-121108464D01*
X176260065Y-121309508D01*
X176775323Y-121412000D01*
X177300677Y-121412000D01*
X177815935Y-121309508D01*
X178301298Y-121108464D01*
X178738113Y-120816594D01*
X178868000Y-120686707D01*
X178868000Y-120990908D01*
X176560617Y-123298292D01*
X176533526Y-123320525D01*
X176511293Y-123347616D01*
X176444801Y-123428637D01*
X176378872Y-123551981D01*
X176338274Y-123685816D01*
X176324565Y-123825000D01*
X176328001Y-123859885D01*
X176328000Y-125655000D01*
X126909707Y-125655000D01*
X127039594Y-125525113D01*
X127331464Y-125088298D01*
X127532508Y-124602935D01*
X127635000Y-124087677D01*
X127635000Y-123562323D01*
X127532508Y-123047065D01*
X127331464Y-122561702D01*
X127039594Y-122124887D01*
X126668113Y-121753406D01*
X126231298Y-121461536D01*
X125745935Y-121260492D01*
X125230677Y-121158000D01*
X124705323Y-121158000D01*
X124190065Y-121260492D01*
X123704702Y-121461536D01*
X123267887Y-121753406D01*
X122896406Y-122124887D01*
X122604536Y-122561702D01*
X122403492Y-123047065D01*
X122301000Y-123562323D01*
X122301000Y-124087677D01*
X122403492Y-124602935D01*
X122604536Y-125088298D01*
X122896406Y-125525113D01*
X123026293Y-125655000D01*
X111708000Y-125655000D01*
X111708000Y-118780000D01*
X114439928Y-118780000D01*
X114439928Y-119980000D01*
X114456992Y-120153254D01*
X114507528Y-120319850D01*
X114589595Y-120473386D01*
X114700038Y-120607962D01*
X114834614Y-120718405D01*
X114988150Y-120800472D01*
X115154746Y-120851008D01*
X115328000Y-120868072D01*
X116828000Y-120868072D01*
X117001254Y-120851008D01*
X117167850Y-120800472D01*
X117234213Y-120765000D01*
X123629971Y-120765000D01*
X123698000Y-120771700D01*
X123766029Y-120765000D01*
X123766037Y-120765000D01*
X123969507Y-120744960D01*
X124230581Y-120665764D01*
X124471188Y-120537157D01*
X124682081Y-120364081D01*
X124725454Y-120311231D01*
X125920500Y-119116185D01*
X126543338Y-119739024D01*
X126625148Y-120008715D01*
X126776969Y-120292752D01*
X126981286Y-120541714D01*
X127230248Y-120746031D01*
X127514285Y-120897852D01*
X127822484Y-120991343D01*
X128062678Y-121015000D01*
X147713000Y-121015000D01*
X147713001Y-122717716D01*
X147622797Y-122607803D01*
X147394605Y-122420531D01*
X147134263Y-122281375D01*
X146851776Y-122195684D01*
X146558000Y-122166749D01*
X146264223Y-122195684D01*
X145981736Y-122281375D01*
X145721394Y-122420531D01*
X145493203Y-122607803D01*
X145305931Y-122835995D01*
X145288000Y-122869541D01*
X145270069Y-122835994D01*
X145082797Y-122607803D01*
X144854605Y-122420531D01*
X144594263Y-122281375D01*
X144311776Y-122195684D01*
X144018000Y-122166749D01*
X143724223Y-122195684D01*
X143441736Y-122281375D01*
X143181394Y-122420531D01*
X142953203Y-122607803D01*
X142765931Y-122835995D01*
X142748000Y-122869541D01*
X142730069Y-122835994D01*
X142542797Y-122607803D01*
X142314605Y-122420531D01*
X142054263Y-122281375D01*
X141771776Y-122195684D01*
X141478000Y-122166749D01*
X141184223Y-122195684D01*
X140901736Y-122281375D01*
X140641394Y-122420531D01*
X140413203Y-122607803D01*
X140225931Y-122835995D01*
X140208000Y-122869541D01*
X140190069Y-122835994D01*
X140002797Y-122607803D01*
X139774605Y-122420531D01*
X139514263Y-122281375D01*
X139231776Y-122195684D01*
X138938000Y-122166749D01*
X138644223Y-122195684D01*
X138361736Y-122281375D01*
X138101394Y-122420531D01*
X137873203Y-122607803D01*
X137685931Y-122835995D01*
X137546775Y-123096337D01*
X137461084Y-123378824D01*
X137439400Y-123598982D01*
X137439400Y-124051019D01*
X137461084Y-124271177D01*
X137546775Y-124553664D01*
X137685931Y-124814006D01*
X137873203Y-125042197D01*
X138101395Y-125229469D01*
X138361737Y-125368625D01*
X138644224Y-125454316D01*
X138938000Y-125483251D01*
X139231777Y-125454316D01*
X139514264Y-125368625D01*
X139774606Y-125229469D01*
X140002797Y-125042197D01*
X140190069Y-124814006D01*
X140208000Y-124780459D01*
X140225931Y-124814006D01*
X140413203Y-125042197D01*
X140641395Y-125229469D01*
X140901737Y-125368625D01*
X141184224Y-125454316D01*
X141478000Y-125483251D01*
X141771777Y-125454316D01*
X142054264Y-125368625D01*
X142314606Y-125229469D01*
X142542797Y-125042197D01*
X142730069Y-124814006D01*
X142748000Y-124780459D01*
X142765931Y-124814006D01*
X142953203Y-125042197D01*
X143181395Y-125229469D01*
X143441737Y-125368625D01*
X143724224Y-125454316D01*
X144018000Y-125483251D01*
X144311777Y-125454316D01*
X144594264Y-125368625D01*
X144854606Y-125229469D01*
X145082797Y-125042197D01*
X145270069Y-124814006D01*
X145288000Y-124780459D01*
X145305931Y-124814006D01*
X145493203Y-125042197D01*
X145721395Y-125229469D01*
X145981737Y-125368625D01*
X146264224Y-125454316D01*
X146558000Y-125483251D01*
X146851777Y-125454316D01*
X147134264Y-125368625D01*
X147394606Y-125229469D01*
X147622797Y-125042197D01*
X147810069Y-124814006D01*
X147828000Y-124780459D01*
X147845931Y-124814006D01*
X148033203Y-125042197D01*
X148261395Y-125229469D01*
X148521737Y-125368625D01*
X148804224Y-125454316D01*
X149098000Y-125483251D01*
X149391777Y-125454316D01*
X149674264Y-125368625D01*
X149934606Y-125229469D01*
X150162797Y-125042197D01*
X150350069Y-124814006D01*
X150371424Y-124774053D01*
X150519514Y-124976729D01*
X150735965Y-125175733D01*
X150987081Y-125328686D01*
X151263211Y-125429709D01*
X151278974Y-125432358D01*
X151511000Y-125311217D01*
X151511000Y-123952000D01*
X151765000Y-123952000D01*
X151765000Y-125311217D01*
X151997026Y-125432358D01*
X152012789Y-125429709D01*
X152288919Y-125328686D01*
X152540035Y-125175733D01*
X152756486Y-124976729D01*
X152908000Y-124769367D01*
X153059514Y-124976729D01*
X153275965Y-125175733D01*
X153527081Y-125328686D01*
X153803211Y-125429709D01*
X153818974Y-125432358D01*
X154051000Y-125311217D01*
X154051000Y-123952000D01*
X151765000Y-123952000D01*
X151511000Y-123952000D01*
X151491000Y-123952000D01*
X151491000Y-123698000D01*
X151511000Y-123698000D01*
X151511000Y-122338783D01*
X151765000Y-122338783D01*
X151765000Y-123698000D01*
X154051000Y-123698000D01*
X154051000Y-122338783D01*
X154305000Y-122338783D01*
X154305000Y-123698000D01*
X154325000Y-123698000D01*
X154325000Y-123952000D01*
X154305000Y-123952000D01*
X154305000Y-125311217D01*
X154537026Y-125432358D01*
X154552789Y-125429709D01*
X154828919Y-125328686D01*
X155080035Y-125175733D01*
X155296486Y-124976729D01*
X155444576Y-124774053D01*
X155465931Y-124814006D01*
X155653203Y-125042197D01*
X155881395Y-125229469D01*
X156141737Y-125368625D01*
X156424224Y-125454316D01*
X156718000Y-125483251D01*
X157011777Y-125454316D01*
X157294264Y-125368625D01*
X157554606Y-125229469D01*
X157782797Y-125042197D01*
X157970069Y-124814006D01*
X158109225Y-124553663D01*
X158194916Y-124271176D01*
X158216600Y-124051018D01*
X158216600Y-123598982D01*
X160299400Y-123598982D01*
X160299400Y-124051019D01*
X160321084Y-124271177D01*
X160406775Y-124553664D01*
X160545931Y-124814006D01*
X160733203Y-125042197D01*
X160961395Y-125229469D01*
X161221737Y-125368625D01*
X161504224Y-125454316D01*
X161798000Y-125483251D01*
X162091777Y-125454316D01*
X162374264Y-125368625D01*
X162634606Y-125229469D01*
X162862797Y-125042197D01*
X163050069Y-124814006D01*
X163068000Y-124780459D01*
X163085931Y-124814006D01*
X163273203Y-125042197D01*
X163501395Y-125229469D01*
X163761737Y-125368625D01*
X164044224Y-125454316D01*
X164338000Y-125483251D01*
X164631777Y-125454316D01*
X164914264Y-125368625D01*
X165174606Y-125229469D01*
X165402797Y-125042197D01*
X165590069Y-124814006D01*
X165608000Y-124780459D01*
X165625931Y-124814006D01*
X165813203Y-125042197D01*
X166041395Y-125229469D01*
X166301737Y-125368625D01*
X166584224Y-125454316D01*
X166878000Y-125483251D01*
X167171777Y-125454316D01*
X167454264Y-125368625D01*
X167714606Y-125229469D01*
X167942797Y-125042197D01*
X168130069Y-124814006D01*
X168148000Y-124780459D01*
X168165931Y-124814006D01*
X168353203Y-125042197D01*
X168581395Y-125229469D01*
X168841737Y-125368625D01*
X169124224Y-125454316D01*
X169418000Y-125483251D01*
X169711777Y-125454316D01*
X169994264Y-125368625D01*
X170254606Y-125229469D01*
X170482797Y-125042197D01*
X170670069Y-124814006D01*
X170688000Y-124780459D01*
X170705931Y-124814006D01*
X170893203Y-125042197D01*
X171121395Y-125229469D01*
X171381737Y-125368625D01*
X171664224Y-125454316D01*
X171958000Y-125483251D01*
X172251777Y-125454316D01*
X172534264Y-125368625D01*
X172794606Y-125229469D01*
X173022797Y-125042197D01*
X173210069Y-124814006D01*
X173228000Y-124780459D01*
X173245931Y-124814006D01*
X173433203Y-125042197D01*
X173661395Y-125229469D01*
X173921737Y-125368625D01*
X174204224Y-125454316D01*
X174498000Y-125483251D01*
X174791777Y-125454316D01*
X175074264Y-125368625D01*
X175334606Y-125229469D01*
X175562797Y-125042197D01*
X175750069Y-124814006D01*
X175889225Y-124553663D01*
X175974916Y-124271176D01*
X175996600Y-124051018D01*
X175996600Y-123598981D01*
X175974916Y-123378823D01*
X175889225Y-123096336D01*
X175750069Y-122835994D01*
X175562797Y-122607803D01*
X175334605Y-122420531D01*
X175074263Y-122281375D01*
X174791776Y-122195684D01*
X174498000Y-122166749D01*
X174204223Y-122195684D01*
X173921736Y-122281375D01*
X173661394Y-122420531D01*
X173433203Y-122607803D01*
X173245931Y-122835995D01*
X173228000Y-122869541D01*
X173210069Y-122835994D01*
X173022797Y-122607803D01*
X172794605Y-122420531D01*
X172534263Y-122281375D01*
X172251776Y-122195684D01*
X171958000Y-122166749D01*
X171664223Y-122195684D01*
X171381736Y-122281375D01*
X171121394Y-122420531D01*
X170893203Y-122607803D01*
X170705931Y-122835995D01*
X170688000Y-122869541D01*
X170670069Y-122835994D01*
X170482797Y-122607803D01*
X170254605Y-122420531D01*
X169994263Y-122281375D01*
X169711776Y-122195684D01*
X169418000Y-122166749D01*
X169124223Y-122195684D01*
X168841736Y-122281375D01*
X168581394Y-122420531D01*
X168353203Y-122607803D01*
X168165931Y-122835995D01*
X168148000Y-122869541D01*
X168130069Y-122835994D01*
X167942797Y-122607803D01*
X167714605Y-122420531D01*
X167454263Y-122281375D01*
X167171776Y-122195684D01*
X166878000Y-122166749D01*
X166584223Y-122195684D01*
X166301736Y-122281375D01*
X166041394Y-122420531D01*
X165813203Y-122607803D01*
X165625931Y-122835995D01*
X165608000Y-122869541D01*
X165590069Y-122835994D01*
X165402797Y-122607803D01*
X165174605Y-122420531D01*
X164914263Y-122281375D01*
X164631776Y-122195684D01*
X164338000Y-122166749D01*
X164044223Y-122195684D01*
X163761736Y-122281375D01*
X163501394Y-122420531D01*
X163273203Y-122607803D01*
X163085931Y-122835995D01*
X163068000Y-122869541D01*
X163050069Y-122835994D01*
X162862797Y-122607803D01*
X162634605Y-122420531D01*
X162374263Y-122281375D01*
X162091776Y-122195684D01*
X161798000Y-122166749D01*
X161504223Y-122195684D01*
X161221736Y-122281375D01*
X160961394Y-122420531D01*
X160733203Y-122607803D01*
X160545931Y-122835995D01*
X160406775Y-123096337D01*
X160321084Y-123378824D01*
X160299400Y-123598982D01*
X158216600Y-123598982D01*
X158216600Y-123598981D01*
X158194916Y-123378823D01*
X158109225Y-123096336D01*
X157970069Y-122835994D01*
X157782797Y-122607803D01*
X157554605Y-122420531D01*
X157294263Y-122281375D01*
X157011776Y-122195684D01*
X156718000Y-122166749D01*
X156424223Y-122195684D01*
X156141736Y-122281375D01*
X155881394Y-122420531D01*
X155653203Y-122607803D01*
X155465931Y-122835995D01*
X155444576Y-122875947D01*
X155296486Y-122673271D01*
X155080035Y-122474267D01*
X154828919Y-122321314D01*
X154552789Y-122220291D01*
X154537026Y-122217642D01*
X154305000Y-122338783D01*
X154051000Y-122338783D01*
X153818974Y-122217642D01*
X153803211Y-122220291D01*
X153527081Y-122321314D01*
X153275965Y-122474267D01*
X153059514Y-122673271D01*
X152908000Y-122880633D01*
X152756486Y-122673271D01*
X152540035Y-122474267D01*
X152288919Y-122321314D01*
X152012789Y-122220291D01*
X151997026Y-122217642D01*
X151765000Y-122338783D01*
X151511000Y-122338783D01*
X151278974Y-122217642D01*
X151263211Y-122220291D01*
X150987081Y-122321314D01*
X150735965Y-122474267D01*
X150519514Y-122673271D01*
X150483000Y-122723244D01*
X150483000Y-120257264D01*
X150615852Y-120008715D01*
X150709343Y-119700516D01*
X150740911Y-119380000D01*
X150709343Y-119059484D01*
X150615852Y-118751285D01*
X150464031Y-118467248D01*
X150259714Y-118218286D01*
X150010752Y-118013969D01*
X149726715Y-117862148D01*
X149418516Y-117768657D01*
X149178322Y-117745000D01*
X138418000Y-117745000D01*
X138418000Y-116771963D01*
X138397960Y-116568493D01*
X138318764Y-116307419D01*
X138190157Y-116066812D01*
X138168000Y-116039814D01*
X138168000Y-114135131D01*
X139701141Y-112601991D01*
X139744449Y-112566449D01*
X139886284Y-112393623D01*
X139991676Y-112196447D01*
X140056577Y-111982499D01*
X140073000Y-111815752D01*
X140073000Y-111815751D01*
X140078491Y-111760000D01*
X140073000Y-111704248D01*
X140073000Y-110397911D01*
X141813000Y-110397911D01*
X141813000Y-110582089D01*
X141848932Y-110762729D01*
X141919414Y-110932889D01*
X141988000Y-111035536D01*
X141988001Y-111722658D01*
X141984323Y-111760000D01*
X141998997Y-111908986D01*
X142042454Y-112052247D01*
X142113026Y-112184276D01*
X142207999Y-112300001D01*
X142323724Y-112394974D01*
X142455753Y-112465546D01*
X142599014Y-112509003D01*
X142710667Y-112520000D01*
X142748000Y-112523677D01*
X142785333Y-112520000D01*
X150457465Y-112520000D01*
X150560111Y-112588586D01*
X150730271Y-112659068D01*
X150910911Y-112695000D01*
X151095089Y-112695000D01*
X151275729Y-112659068D01*
X151445889Y-112588586D01*
X151599028Y-112486262D01*
X151729262Y-112356028D01*
X151831586Y-112202889D01*
X151902068Y-112032729D01*
X151938000Y-111852089D01*
X151938000Y-111667911D01*
X151902068Y-111487271D01*
X151831586Y-111317111D01*
X151729262Y-111163972D01*
X151599028Y-111033738D01*
X151445889Y-110931414D01*
X151275729Y-110860932D01*
X151095089Y-110825000D01*
X150910911Y-110825000D01*
X150730271Y-110860932D01*
X150560111Y-110931414D01*
X150457465Y-111000000D01*
X143531744Y-111000000D01*
X143576586Y-110932889D01*
X143647068Y-110762729D01*
X143683000Y-110582089D01*
X143683000Y-110397911D01*
X143647068Y-110217271D01*
X143576586Y-110047111D01*
X143474262Y-109893972D01*
X143344028Y-109763738D01*
X143190889Y-109661414D01*
X143020729Y-109590932D01*
X142840089Y-109555000D01*
X142655911Y-109555000D01*
X142475271Y-109590932D01*
X142305111Y-109661414D01*
X142151972Y-109763738D01*
X142021738Y-109893972D01*
X141919414Y-110047111D01*
X141848932Y-110217271D01*
X141813000Y-110397911D01*
X140073000Y-110397911D01*
X140073000Y-109435000D01*
X144944928Y-109435000D01*
X144957188Y-109559482D01*
X144993498Y-109679180D01*
X145052463Y-109789494D01*
X145131815Y-109886185D01*
X145228506Y-109965537D01*
X145338820Y-110024502D01*
X145458518Y-110060812D01*
X145583000Y-110073072D01*
X146272250Y-110070000D01*
X146431000Y-109911250D01*
X146431000Y-108712000D01*
X146685000Y-108712000D01*
X146685000Y-109911250D01*
X146843750Y-110070000D01*
X147533000Y-110073072D01*
X147657482Y-110060812D01*
X147777180Y-110024502D01*
X147887494Y-109965537D01*
X147984185Y-109886185D01*
X148063537Y-109789494D01*
X148122502Y-109679180D01*
X148158812Y-109559482D01*
X148171072Y-109435000D01*
X148168000Y-108870750D01*
X148009250Y-108712000D01*
X146685000Y-108712000D01*
X146431000Y-108712000D01*
X145106750Y-108712000D01*
X144948000Y-108870750D01*
X144944928Y-109435000D01*
X140073000Y-109435000D01*
X140073000Y-107450752D01*
X140078491Y-107395000D01*
X140061255Y-107220000D01*
X145209574Y-107220000D01*
X145131815Y-107283815D01*
X145052463Y-107380506D01*
X144993498Y-107490820D01*
X144957188Y-107610518D01*
X144944928Y-107735000D01*
X144948000Y-108299250D01*
X145106750Y-108458000D01*
X146431000Y-108458000D01*
X146431000Y-108438000D01*
X146685000Y-108438000D01*
X146685000Y-108458000D01*
X148009250Y-108458000D01*
X148168000Y-108299250D01*
X148171072Y-107735000D01*
X148158812Y-107610518D01*
X148122502Y-107490820D01*
X148063537Y-107380506D01*
X147984185Y-107283815D01*
X147887494Y-107204463D01*
X147777180Y-107145498D01*
X147742392Y-107134945D01*
X147923706Y-106914014D01*
X148061599Y-106656034D01*
X148146513Y-106376111D01*
X148175185Y-106085000D01*
X148146513Y-105793889D01*
X148061599Y-105513966D01*
X147923706Y-105255986D01*
X147738134Y-105029866D01*
X147512014Y-104844294D01*
X147494626Y-104835000D01*
X147512014Y-104825706D01*
X147738134Y-104640134D01*
X147923706Y-104414014D01*
X147960595Y-104345000D01*
X150768199Y-104345000D01*
X151513001Y-105089803D01*
X151513000Y-109309464D01*
X151444414Y-109412111D01*
X151373932Y-109582271D01*
X151338000Y-109762911D01*
X151338000Y-109947089D01*
X151373932Y-110127729D01*
X151444414Y-110297889D01*
X151546738Y-110451028D01*
X151676972Y-110581262D01*
X151830111Y-110683586D01*
X152000271Y-110754068D01*
X152180911Y-110790000D01*
X152365089Y-110790000D01*
X152545729Y-110754068D01*
X152715889Y-110683586D01*
X152869028Y-110581262D01*
X152908000Y-110542290D01*
X152946972Y-110581262D01*
X153100111Y-110683586D01*
X153270271Y-110754068D01*
X153450911Y-110790000D01*
X153635089Y-110790000D01*
X153815729Y-110754068D01*
X153985889Y-110683586D01*
X154139028Y-110581262D01*
X154269262Y-110451028D01*
X154371586Y-110297889D01*
X154442068Y-110127729D01*
X154478000Y-109947089D01*
X154478000Y-109762911D01*
X154442068Y-109582271D01*
X154371586Y-109412111D01*
X154303000Y-109309465D01*
X154303000Y-102907322D01*
X154306676Y-102869999D01*
X154303000Y-102832676D01*
X154303000Y-102832667D01*
X154292003Y-102721014D01*
X154248546Y-102577753D01*
X154177974Y-102445724D01*
X154083001Y-102329999D01*
X154054003Y-102306201D01*
X152321804Y-100574003D01*
X152298001Y-100544999D01*
X152182276Y-100450026D01*
X152050247Y-100379454D01*
X151906986Y-100335997D01*
X151795333Y-100325000D01*
X151795322Y-100325000D01*
X151758000Y-100321324D01*
X151720678Y-100325000D01*
X147960595Y-100325000D01*
X147923706Y-100255986D01*
X147738134Y-100029866D01*
X147512014Y-99844294D01*
X147254034Y-99706401D01*
X146974111Y-99621487D01*
X146755950Y-99600000D01*
X146360050Y-99600000D01*
X146141889Y-99621487D01*
X145861966Y-99706401D01*
X145603986Y-99844294D01*
X145377866Y-100029866D01*
X145192294Y-100255986D01*
X145155405Y-100325000D01*
X137800595Y-100325000D01*
X137763706Y-100255986D01*
X137578134Y-100029866D01*
X137352014Y-99844294D01*
X137094034Y-99706401D01*
X136814111Y-99621487D01*
X136758846Y-99616044D01*
X135691804Y-98549003D01*
X135668001Y-98519999D01*
X135552276Y-98425026D01*
X135420247Y-98354454D01*
X135276986Y-98310997D01*
X135165333Y-98300000D01*
X135165322Y-98300000D01*
X135128000Y-98296324D01*
X135090678Y-98300000D01*
X134172802Y-98300000D01*
X133588000Y-97715199D01*
X133588000Y-94747594D01*
X133657013Y-94710706D01*
X133883134Y-94525134D01*
X134068706Y-94299014D01*
X134078000Y-94281626D01*
X134087294Y-94299013D01*
X134272866Y-94525134D01*
X134498986Y-94710706D01*
X134568001Y-94747595D01*
X134568000Y-96487083D01*
X134564375Y-96528832D01*
X134572088Y-96598837D01*
X134578997Y-96668985D01*
X134580284Y-96673228D01*
X134580770Y-96677638D01*
X134601993Y-96744795D01*
X134622454Y-96812246D01*
X134624547Y-96816162D01*
X134625882Y-96820386D01*
X134659787Y-96882090D01*
X134693026Y-96944275D01*
X134719620Y-96976681D01*
X135112418Y-97550076D01*
X135128026Y-97579276D01*
X135154618Y-97611678D01*
X135157108Y-97615313D01*
X135178314Y-97640552D01*
X135199201Y-97666002D01*
X135202313Y-97669114D01*
X135229281Y-97701210D01*
X135255116Y-97721917D01*
X135834200Y-98301002D01*
X135857999Y-98330001D01*
X135973724Y-98424974D01*
X136105753Y-98495546D01*
X136249014Y-98539003D01*
X136350484Y-98548997D01*
X136398000Y-98553677D01*
X136435333Y-98550000D01*
X142202465Y-98550000D01*
X142305111Y-98618586D01*
X142475271Y-98689068D01*
X142655911Y-98725000D01*
X142840089Y-98725000D01*
X143020729Y-98689068D01*
X143190889Y-98618586D01*
X143344028Y-98516262D01*
X143474262Y-98386028D01*
X143576586Y-98232889D01*
X143647068Y-98062729D01*
X143683000Y-97882089D01*
X143683000Y-97697911D01*
X143647068Y-97517271D01*
X143576586Y-97347111D01*
X143474262Y-97193972D01*
X143344028Y-97063738D01*
X143190889Y-96961414D01*
X143020729Y-96890932D01*
X142840089Y-96855000D01*
X142655911Y-96855000D01*
X142475271Y-96890932D01*
X142305111Y-96961414D01*
X142202465Y-97030000D01*
X136712802Y-97030000D01*
X136350198Y-96667397D01*
X136088000Y-96284649D01*
X136088000Y-94747594D01*
X136157013Y-94710706D01*
X136383134Y-94525134D01*
X136568706Y-94299014D01*
X136578000Y-94281626D01*
X136587294Y-94299013D01*
X136772866Y-94525134D01*
X136998986Y-94710706D01*
X137256966Y-94848599D01*
X137536889Y-94933513D01*
X137828000Y-94962185D01*
X138119110Y-94933513D01*
X138399033Y-94848599D01*
X138657013Y-94710706D01*
X138883134Y-94525134D01*
X139068706Y-94299014D01*
X139078000Y-94281626D01*
X139087294Y-94299013D01*
X139272866Y-94525134D01*
X139498986Y-94710706D01*
X139756966Y-94848599D01*
X140036889Y-94933513D01*
X140328000Y-94962185D01*
X140619110Y-94933513D01*
X140899033Y-94848599D01*
X141157013Y-94710706D01*
X141383134Y-94525134D01*
X141568706Y-94299014D01*
X141582462Y-94273278D01*
X141738951Y-94479429D01*
X141956807Y-94672496D01*
X142208142Y-94819352D01*
X142471110Y-94911476D01*
X142701000Y-94790155D01*
X142701000Y-93472000D01*
X142681000Y-93472000D01*
X142681000Y-93218000D01*
X142701000Y-93218000D01*
X142701000Y-91899845D01*
X142471110Y-91778524D01*
X142208142Y-91870648D01*
X141956807Y-92017504D01*
X141738951Y-92210571D01*
X141582462Y-92416722D01*
X141568706Y-92390986D01*
X141383134Y-92164866D01*
X141157014Y-91979294D01*
X140899034Y-91841401D01*
X140619111Y-91756487D01*
X140328000Y-91727815D01*
X140036890Y-91756487D01*
X139756967Y-91841401D01*
X139498987Y-91979294D01*
X139272866Y-92164866D01*
X139087294Y-92390986D01*
X139078000Y-92408374D01*
X139068706Y-92390986D01*
X138883134Y-92164866D01*
X138657014Y-91979294D01*
X138399034Y-91841401D01*
X138119111Y-91756487D01*
X137828000Y-91727815D01*
X137536890Y-91756487D01*
X137256967Y-91841401D01*
X136998987Y-91979294D01*
X136772866Y-92164866D01*
X136587294Y-92390986D01*
X136578000Y-92408374D01*
X136568706Y-92390986D01*
X136383134Y-92164866D01*
X136157014Y-91979294D01*
X136088000Y-91942405D01*
X136088000Y-89772322D01*
X136091676Y-89734999D01*
X136088000Y-89697676D01*
X136088000Y-89697667D01*
X136077003Y-89586014D01*
X136033546Y-89442753D01*
X135962974Y-89310724D01*
X135868001Y-89194999D01*
X135839004Y-89171202D01*
X133152801Y-86485000D01*
X148002868Y-86485000D01*
X147064860Y-87423009D01*
X147021552Y-87458551D01*
X146879717Y-87631377D01*
X146853146Y-87681088D01*
X146774324Y-87828554D01*
X146709423Y-88042502D01*
X146687509Y-88265000D01*
X146693001Y-88320761D01*
X146693000Y-91915746D01*
X146600038Y-91992038D01*
X146489595Y-92126614D01*
X146435223Y-92228337D01*
X146383134Y-92164866D01*
X146157014Y-91979294D01*
X145899034Y-91841401D01*
X145619111Y-91756487D01*
X145328000Y-91727815D01*
X145036890Y-91756487D01*
X144756967Y-91841401D01*
X144498987Y-91979294D01*
X144272866Y-92164866D01*
X144087294Y-92390986D01*
X144073538Y-92416722D01*
X143917049Y-92210571D01*
X143699193Y-92017504D01*
X143447858Y-91870648D01*
X143184890Y-91778524D01*
X142955000Y-91899845D01*
X142955000Y-93218000D01*
X142975000Y-93218000D01*
X142975000Y-93472000D01*
X142955000Y-93472000D01*
X142955000Y-94790155D01*
X143184890Y-94911476D01*
X143447858Y-94819352D01*
X143699193Y-94672496D01*
X143917049Y-94479429D01*
X144073538Y-94273278D01*
X144087294Y-94299013D01*
X144272866Y-94525134D01*
X144498986Y-94710706D01*
X144756966Y-94848599D01*
X145036889Y-94933513D01*
X145328000Y-94962185D01*
X145619110Y-94933513D01*
X145899033Y-94848599D01*
X146157013Y-94710706D01*
X146383134Y-94525134D01*
X146435223Y-94461663D01*
X146489595Y-94563386D01*
X146600038Y-94697962D01*
X146734614Y-94808405D01*
X146888150Y-94890472D01*
X147054746Y-94941008D01*
X147228000Y-94958072D01*
X148428000Y-94958072D01*
X148601254Y-94941008D01*
X148767850Y-94890472D01*
X148921386Y-94808405D01*
X149055962Y-94697962D01*
X149166405Y-94563386D01*
X149248472Y-94409850D01*
X149299008Y-94243254D01*
X149316072Y-94070000D01*
X149316072Y-92620000D01*
X149299008Y-92446746D01*
X149248472Y-92280150D01*
X149166405Y-92126614D01*
X149055962Y-91992038D01*
X148963000Y-91915747D01*
X148963000Y-88735131D01*
X149433000Y-88265132D01*
X149433000Y-88357089D01*
X149468932Y-88537729D01*
X149539414Y-88707889D01*
X149641738Y-88861028D01*
X149771972Y-88991262D01*
X149925111Y-89093586D01*
X150095271Y-89164068D01*
X150275911Y-89200000D01*
X150460089Y-89200000D01*
X150640729Y-89164068D01*
X150729865Y-89127147D01*
X150738932Y-89172729D01*
X150775853Y-89261865D01*
X150730271Y-89270932D01*
X150560111Y-89341414D01*
X150406972Y-89443738D01*
X150276738Y-89573972D01*
X150174414Y-89727111D01*
X150103932Y-89897271D01*
X150068000Y-90077911D01*
X150068000Y-90262089D01*
X150103932Y-90442729D01*
X150174414Y-90612889D01*
X150276738Y-90766028D01*
X150406972Y-90896262D01*
X150560111Y-90998586D01*
X150730271Y-91069068D01*
X150910911Y-91105000D01*
X151095089Y-91105000D01*
X151275729Y-91069068D01*
X151445889Y-90998586D01*
X151548535Y-90930000D01*
X154794623Y-90930000D01*
X154724833Y-90967303D01*
X154527582Y-91129182D01*
X154365703Y-91326434D01*
X154245417Y-91551475D01*
X154171344Y-91795658D01*
X154152600Y-91985971D01*
X154152600Y-93434030D01*
X154171344Y-93624343D01*
X154245417Y-93868526D01*
X154365704Y-94093567D01*
X154527583Y-94290818D01*
X154688000Y-94422468D01*
X154688000Y-96371256D01*
X154620889Y-96326414D01*
X154450729Y-96255932D01*
X154270089Y-96220000D01*
X154085911Y-96220000D01*
X153905271Y-96255932D01*
X153735111Y-96326414D01*
X153581972Y-96428738D01*
X153451738Y-96558972D01*
X153349414Y-96712111D01*
X153278932Y-96882271D01*
X153243000Y-97062911D01*
X153243000Y-97247089D01*
X153278932Y-97427729D01*
X153349414Y-97597889D01*
X153451738Y-97751028D01*
X153581972Y-97881262D01*
X153735111Y-97983586D01*
X153905271Y-98054068D01*
X154085911Y-98090000D01*
X154270089Y-98090000D01*
X154450729Y-98054068D01*
X154620889Y-97983586D01*
X154688001Y-97938744D01*
X154688001Y-101562657D01*
X154684323Y-101600000D01*
X154698997Y-101748986D01*
X154742454Y-101892247D01*
X154813026Y-102024276D01*
X154907999Y-102140001D01*
X155023724Y-102234974D01*
X155115675Y-102284124D01*
X155100815Y-102435000D01*
X155129487Y-102726111D01*
X155214401Y-103006034D01*
X155352294Y-103264014D01*
X155537866Y-103490134D01*
X155763986Y-103675706D01*
X155781374Y-103685000D01*
X155763986Y-103694294D01*
X155537866Y-103879866D01*
X155352294Y-104105986D01*
X155214401Y-104363966D01*
X155129487Y-104643889D01*
X155100815Y-104935000D01*
X155129487Y-105226111D01*
X155214401Y-105506034D01*
X155352294Y-105764014D01*
X155537866Y-105990134D01*
X155763986Y-106175706D01*
X155781374Y-106185000D01*
X155763986Y-106194294D01*
X155537866Y-106379866D01*
X155352294Y-106605986D01*
X155214401Y-106863966D01*
X155129487Y-107143889D01*
X155100815Y-107435000D01*
X155129487Y-107726111D01*
X155214401Y-108006034D01*
X155352294Y-108264014D01*
X155537866Y-108490134D01*
X155763986Y-108675706D01*
X155789722Y-108689462D01*
X155583571Y-108845951D01*
X155390504Y-109063807D01*
X155243648Y-109315142D01*
X155151524Y-109578110D01*
X155272845Y-109808000D01*
X156591000Y-109808000D01*
X156591000Y-109788000D01*
X156845000Y-109788000D01*
X156845000Y-109808000D01*
X158163155Y-109808000D01*
X158284476Y-109578110D01*
X158192352Y-109315142D01*
X158045496Y-109063807D01*
X157852429Y-108845951D01*
X157646278Y-108689462D01*
X157672014Y-108675706D01*
X157898134Y-108490134D01*
X158083706Y-108264014D01*
X158221599Y-108006034D01*
X158306513Y-107726111D01*
X158335185Y-107435000D01*
X158306513Y-107143889D01*
X158221599Y-106863966D01*
X158083706Y-106605986D01*
X157898134Y-106379866D01*
X157672014Y-106194294D01*
X157654626Y-106185000D01*
X157672014Y-106175706D01*
X157898134Y-105990134D01*
X158083706Y-105764014D01*
X158161482Y-105618505D01*
X158252276Y-105569974D01*
X158368001Y-105475001D01*
X158391803Y-105445998D01*
X159768000Y-104069802D01*
X159768001Y-110810197D01*
X158903199Y-111675000D01*
X158120595Y-111675000D01*
X158083706Y-111605986D01*
X157898134Y-111379866D01*
X157672014Y-111194294D01*
X157646278Y-111180538D01*
X157852429Y-111024049D01*
X158045496Y-110806193D01*
X158192352Y-110554858D01*
X158284476Y-110291890D01*
X158163155Y-110062000D01*
X156845000Y-110062000D01*
X156845000Y-110082000D01*
X156591000Y-110082000D01*
X156591000Y-110062000D01*
X155272845Y-110062000D01*
X155151524Y-110291890D01*
X155243648Y-110554858D01*
X155390504Y-110806193D01*
X155583571Y-111024049D01*
X155789722Y-111180538D01*
X155763986Y-111194294D01*
X155537866Y-111379866D01*
X155352294Y-111605986D01*
X155214401Y-111863966D01*
X155129487Y-112143889D01*
X155100815Y-112435000D01*
X155129487Y-112726111D01*
X155214401Y-113006034D01*
X155352294Y-113264014D01*
X155537866Y-113490134D01*
X155601337Y-113542223D01*
X155499614Y-113596595D01*
X155365038Y-113707038D01*
X155254595Y-113841614D01*
X155172528Y-113995150D01*
X155121992Y-114161746D01*
X155104928Y-114335000D01*
X155104928Y-115535000D01*
X155121992Y-115708254D01*
X155172528Y-115874850D01*
X155254595Y-116028386D01*
X155296953Y-116080000D01*
X151317802Y-116080000D01*
X149661804Y-114424003D01*
X149638001Y-114394999D01*
X149522276Y-114300026D01*
X149390247Y-114229454D01*
X149246986Y-114185997D01*
X149135333Y-114175000D01*
X149135322Y-114175000D01*
X149098000Y-114171324D01*
X149060678Y-114175000D01*
X145198535Y-114175000D01*
X145095889Y-114106414D01*
X144925729Y-114035932D01*
X144745089Y-114000000D01*
X144560911Y-114000000D01*
X144380271Y-114035932D01*
X144210111Y-114106414D01*
X144056972Y-114208738D01*
X143926738Y-114338972D01*
X143824414Y-114492111D01*
X143753932Y-114662271D01*
X143718000Y-114842911D01*
X143718000Y-115027089D01*
X143753932Y-115207729D01*
X143824414Y-115377889D01*
X143926738Y-115531028D01*
X144056972Y-115661262D01*
X144210111Y-115763586D01*
X144380271Y-115834068D01*
X144560911Y-115870000D01*
X144745089Y-115870000D01*
X144925729Y-115834068D01*
X145095889Y-115763586D01*
X145198535Y-115695000D01*
X148783199Y-115695000D01*
X150439201Y-117351003D01*
X150462999Y-117380001D01*
X150578724Y-117474974D01*
X150710753Y-117545546D01*
X150854014Y-117589003D01*
X150965667Y-117600000D01*
X150965677Y-117600000D01*
X151003000Y-117603676D01*
X151040323Y-117600000D01*
X171920678Y-117600000D01*
X171958000Y-117603676D01*
X171995322Y-117600000D01*
X171995333Y-117600000D01*
X172106986Y-117589003D01*
X172250247Y-117545546D01*
X172382276Y-117474974D01*
X172498001Y-117380001D01*
X172521803Y-117350998D01*
X173104002Y-116768800D01*
X173133001Y-116745001D01*
X173227974Y-116629276D01*
X173298546Y-116497247D01*
X173342003Y-116353986D01*
X173353000Y-116242333D01*
X173356677Y-116205000D01*
X173353000Y-116167667D01*
X173353000Y-109892332D01*
X173356677Y-109855000D01*
X173342003Y-109706014D01*
X173298546Y-109562753D01*
X173227974Y-109430724D01*
X173156799Y-109343997D01*
X173133001Y-109314999D01*
X173104004Y-109291202D01*
X172521803Y-108709002D01*
X172498001Y-108679999D01*
X172382276Y-108585026D01*
X172250247Y-108514454D01*
X172106986Y-108470997D01*
X171995333Y-108460000D01*
X171995322Y-108460000D01*
X171958000Y-108456324D01*
X171920678Y-108460000D01*
X171331178Y-108460000D01*
X171206475Y-108273368D01*
X170999632Y-108066525D01*
X170817466Y-107944805D01*
X170934355Y-107875178D01*
X171150588Y-107680269D01*
X171324641Y-107446920D01*
X171449825Y-107184099D01*
X171494476Y-107036890D01*
X171373155Y-106807000D01*
X170180000Y-106807000D01*
X170180000Y-106827000D01*
X169926000Y-106827000D01*
X169926000Y-106807000D01*
X169906000Y-106807000D01*
X169906000Y-106553000D01*
X169926000Y-106553000D01*
X169926000Y-106533000D01*
X170180000Y-106533000D01*
X170180000Y-106553000D01*
X171373155Y-106553000D01*
X171494476Y-106323110D01*
X171449825Y-106175901D01*
X171324641Y-105913080D01*
X171150588Y-105679731D01*
X170934355Y-105484822D01*
X170817466Y-105415195D01*
X170999632Y-105293475D01*
X171206475Y-105086632D01*
X171368990Y-104843411D01*
X171480932Y-104573158D01*
X171538000Y-104286260D01*
X171538000Y-104260131D01*
X173356141Y-102441991D01*
X173399449Y-102406449D01*
X173541284Y-102233623D01*
X173646676Y-102036447D01*
X173711577Y-101822499D01*
X173728000Y-101655752D01*
X173728000Y-101655743D01*
X173733490Y-101600001D01*
X173728000Y-101544259D01*
X173728000Y-88955752D01*
X173733491Y-88900000D01*
X173711577Y-88677501D01*
X173646676Y-88463553D01*
X173541284Y-88266377D01*
X173540143Y-88264987D01*
X173399449Y-88093551D01*
X173356141Y-88058009D01*
X171529996Y-86231865D01*
X171494449Y-86188551D01*
X171321623Y-86046716D01*
X171124447Y-85941324D01*
X170910499Y-85876423D01*
X170743752Y-85860000D01*
X170743751Y-85860000D01*
X170688000Y-85854509D01*
X170632249Y-85860000D01*
X167817801Y-85860000D01*
X168659004Y-85018798D01*
X168688001Y-84995001D01*
X168782974Y-84879276D01*
X168853546Y-84747247D01*
X168897003Y-84603986D01*
X168908000Y-84492333D01*
X168908000Y-84492324D01*
X168911676Y-84455001D01*
X168908000Y-84417678D01*
X168908000Y-84262469D01*
X169068418Y-84130818D01*
X169230297Y-83933567D01*
X169350583Y-83708526D01*
X169424656Y-83464343D01*
X169443400Y-83274030D01*
X169443400Y-81825970D01*
X169424656Y-81635657D01*
X169350583Y-81391474D01*
X169230297Y-81166433D01*
X169068418Y-80969182D01*
X168871166Y-80807303D01*
X168646125Y-80687017D01*
X168622719Y-80679917D01*
X165098000Y-77155199D01*
X165098000Y-77010416D01*
X165174606Y-76969469D01*
X165402797Y-76782197D01*
X165590069Y-76554006D01*
X165608000Y-76520459D01*
X165625931Y-76554006D01*
X165813203Y-76782197D01*
X166041395Y-76969469D01*
X166301737Y-77108625D01*
X166584224Y-77194316D01*
X166878000Y-77223251D01*
X167171777Y-77194316D01*
X167454264Y-77108625D01*
X167714606Y-76969469D01*
X167942797Y-76782197D01*
X168130069Y-76554006D01*
X168148000Y-76520459D01*
X168165931Y-76554006D01*
X168353203Y-76782197D01*
X168581395Y-76969469D01*
X168841737Y-77108625D01*
X169124224Y-77194316D01*
X169418000Y-77223251D01*
X169711777Y-77194316D01*
X169994264Y-77108625D01*
X170254606Y-76969469D01*
X170482797Y-76782197D01*
X170670069Y-76554006D01*
X170688000Y-76520459D01*
X170705931Y-76554006D01*
X170893203Y-76782197D01*
X171121395Y-76969469D01*
X171381737Y-77108625D01*
X171664224Y-77194316D01*
X171958000Y-77223251D01*
X172251777Y-77194316D01*
X172534264Y-77108625D01*
X172794606Y-76969469D01*
X173022797Y-76782197D01*
X173210069Y-76554006D01*
X173228000Y-76520459D01*
X173245931Y-76554006D01*
X173433203Y-76782197D01*
X173661395Y-76969469D01*
X173921737Y-77108625D01*
X174204224Y-77194316D01*
X174498000Y-77223251D01*
X174791777Y-77194316D01*
X175074264Y-77108625D01*
X175334606Y-76969469D01*
X175562797Y-76782197D01*
X175750069Y-76554006D01*
X175889225Y-76293663D01*
X175974916Y-76011176D01*
X175996600Y-75791018D01*
X175996600Y-75338981D01*
X175974916Y-75118823D01*
X175889225Y-74836336D01*
X175750069Y-74575994D01*
X175562797Y-74347803D01*
X175334605Y-74160531D01*
X175074263Y-74021375D01*
X174791776Y-73935684D01*
X174498000Y-73906749D01*
X174204223Y-73935684D01*
X173921736Y-74021375D01*
X173661394Y-74160531D01*
X173433203Y-74347803D01*
X173245931Y-74575995D01*
X173228000Y-74609541D01*
X173210069Y-74575994D01*
X173022797Y-74347803D01*
X172794605Y-74160531D01*
X172534263Y-74021375D01*
X172251776Y-73935684D01*
X171958000Y-73906749D01*
X171664223Y-73935684D01*
X171381736Y-74021375D01*
X171121394Y-74160531D01*
X170893203Y-74347803D01*
X170705931Y-74575995D01*
X170688000Y-74609541D01*
X170670069Y-74575994D01*
X170482797Y-74347803D01*
X170254605Y-74160531D01*
X169994263Y-74021375D01*
X169711776Y-73935684D01*
X169418000Y-73906749D01*
X169124223Y-73935684D01*
X168841736Y-74021375D01*
X168581394Y-74160531D01*
X168353203Y-74347803D01*
X168165931Y-74575995D01*
X168148000Y-74609541D01*
X168130069Y-74575994D01*
X167942797Y-74347803D01*
X167714605Y-74160531D01*
X167454263Y-74021375D01*
X167171776Y-73935684D01*
X166878000Y-73906749D01*
X166584223Y-73935684D01*
X166301736Y-74021375D01*
X166041394Y-74160531D01*
X165813203Y-74347803D01*
X165625931Y-74575995D01*
X165608000Y-74609541D01*
X165590069Y-74575994D01*
X165402797Y-74347803D01*
X165174605Y-74160531D01*
X164914263Y-74021375D01*
X164631776Y-73935684D01*
X164338000Y-73906749D01*
X164044223Y-73935684D01*
X163761736Y-74021375D01*
X163501394Y-74160531D01*
X163273203Y-74347803D01*
X163085931Y-74575995D01*
X163068000Y-74609541D01*
X163050069Y-74575994D01*
X162862797Y-74347803D01*
X162634605Y-74160531D01*
X162374263Y-74021375D01*
X162091776Y-73935684D01*
X161798000Y-73906749D01*
X161504223Y-73935684D01*
X161221736Y-74021375D01*
X160961394Y-74160531D01*
X160733203Y-74347803D01*
X160545931Y-74575995D01*
X160528000Y-74609541D01*
X160510069Y-74575994D01*
X160322797Y-74347803D01*
X160094605Y-74160531D01*
X159834263Y-74021375D01*
X159551776Y-73935684D01*
X159258000Y-73906749D01*
X158964223Y-73935684D01*
X158681736Y-74021375D01*
X158421394Y-74160531D01*
X158193203Y-74347803D01*
X158005931Y-74575995D01*
X157988000Y-74609541D01*
X157970069Y-74575994D01*
X157782797Y-74347803D01*
X157554605Y-74160531D01*
X157294263Y-74021375D01*
X157011776Y-73935684D01*
X156718000Y-73906749D01*
X156424223Y-73935684D01*
X156141736Y-74021375D01*
X155881394Y-74160531D01*
X155653203Y-74347803D01*
X155465931Y-74575995D01*
X155326775Y-74836337D01*
X155241084Y-75118824D01*
X155219400Y-75338982D01*
X155219400Y-75791019D01*
X155241084Y-76011177D01*
X155326775Y-76293664D01*
X155465931Y-76554006D01*
X155653203Y-76782197D01*
X155881395Y-76969469D01*
X155958000Y-77010416D01*
X155958000Y-77790198D01*
X154936998Y-78811201D01*
X154908000Y-78834999D01*
X154884202Y-78863997D01*
X154884201Y-78863998D01*
X154813026Y-78950724D01*
X154742454Y-79082754D01*
X154712180Y-79182558D01*
X154698998Y-79226014D01*
X154691272Y-79304454D01*
X154684324Y-79375000D01*
X154688001Y-79412332D01*
X154688001Y-80837530D01*
X154527582Y-80969182D01*
X154365703Y-81166434D01*
X154245417Y-81391475D01*
X154171344Y-81635658D01*
X154152600Y-81825971D01*
X154152600Y-83274030D01*
X154171344Y-83464343D01*
X154245417Y-83708526D01*
X154365704Y-83933567D01*
X154527583Y-84130818D01*
X154724834Y-84292697D01*
X154949875Y-84412983D01*
X155194058Y-84487056D01*
X155448000Y-84512067D01*
X155701943Y-84487056D01*
X155946126Y-84412983D01*
X156171167Y-84292697D01*
X156368418Y-84130818D01*
X156530297Y-83933567D01*
X156650583Y-83708526D01*
X156718000Y-83486285D01*
X156785417Y-83708526D01*
X156905704Y-83933567D01*
X157067583Y-84130818D01*
X157264834Y-84292697D01*
X157489875Y-84412983D01*
X157734058Y-84487056D01*
X157988000Y-84512067D01*
X158241943Y-84487056D01*
X158486126Y-84412983D01*
X158711167Y-84292697D01*
X158908418Y-84130818D01*
X159070297Y-83933567D01*
X159190583Y-83708526D01*
X159258000Y-83486285D01*
X159325417Y-83708526D01*
X159445704Y-83933567D01*
X159607583Y-84130818D01*
X159804834Y-84292697D01*
X160029875Y-84412983D01*
X160274058Y-84487056D01*
X160528000Y-84512067D01*
X160781943Y-84487056D01*
X161026126Y-84412983D01*
X161251167Y-84292697D01*
X161448418Y-84130818D01*
X161610297Y-83933567D01*
X161730583Y-83708526D01*
X161800506Y-83478023D01*
X161822267Y-83587680D01*
X161919807Y-83823461D01*
X162061471Y-84035683D01*
X162241816Y-84216189D01*
X162453911Y-84358044D01*
X162689605Y-84455795D01*
X162740895Y-84463820D01*
X162941000Y-84339933D01*
X162941000Y-82677000D01*
X162921000Y-82677000D01*
X162921000Y-82423000D01*
X162941000Y-82423000D01*
X162941000Y-80760067D01*
X162740895Y-80636180D01*
X162689605Y-80644205D01*
X162453911Y-80741956D01*
X162241816Y-80883811D01*
X162061471Y-81064317D01*
X161919807Y-81276539D01*
X161822267Y-81512320D01*
X161800506Y-81621977D01*
X161730583Y-81391474D01*
X161610297Y-81166433D01*
X161448418Y-80969182D01*
X161251166Y-80807303D01*
X161026125Y-80687017D01*
X160781942Y-80612944D01*
X160528000Y-80587933D01*
X160274057Y-80612944D01*
X160029874Y-80687017D01*
X159804833Y-80807303D01*
X159607582Y-80969182D01*
X159445703Y-81166434D01*
X159325417Y-81391475D01*
X159258000Y-81613716D01*
X159190583Y-81391474D01*
X159070297Y-81166433D01*
X158908418Y-80969182D01*
X158748000Y-80837532D01*
X158748000Y-79689801D01*
X159769004Y-78668798D01*
X159798001Y-78645001D01*
X159892974Y-78529276D01*
X159963546Y-78397247D01*
X160007003Y-78253986D01*
X160018000Y-78142333D01*
X160018000Y-78142324D01*
X160021676Y-78105001D01*
X160018000Y-78067678D01*
X160018000Y-77010416D01*
X160094606Y-76969469D01*
X160322797Y-76782197D01*
X160510069Y-76554006D01*
X160528000Y-76520459D01*
X160545931Y-76554006D01*
X160733203Y-76782197D01*
X160961395Y-76969469D01*
X161038000Y-77010415D01*
X161038000Y-77432677D01*
X161034324Y-77470000D01*
X161038000Y-77507322D01*
X161038000Y-77507332D01*
X161048997Y-77618985D01*
X161092454Y-77762246D01*
X161163026Y-77894276D01*
X161191084Y-77928464D01*
X161257999Y-78010001D01*
X161287003Y-78033804D01*
X164488756Y-81235558D01*
X164405417Y-81391475D01*
X164335494Y-81621977D01*
X164313733Y-81512320D01*
X164216193Y-81276539D01*
X164074529Y-81064317D01*
X163894184Y-80883811D01*
X163682089Y-80741956D01*
X163446395Y-80644205D01*
X163395105Y-80636180D01*
X163195000Y-80760067D01*
X163195000Y-82423000D01*
X163215000Y-82423000D01*
X163215000Y-82677000D01*
X163195000Y-82677000D01*
X163195000Y-84339933D01*
X163395105Y-84463820D01*
X163446395Y-84455795D01*
X163682089Y-84358044D01*
X163894184Y-84216189D01*
X164074529Y-84035683D01*
X164216193Y-83823461D01*
X164313733Y-83587680D01*
X164335494Y-83478023D01*
X164405417Y-83708526D01*
X164525704Y-83933567D01*
X164687583Y-84130818D01*
X164884834Y-84292697D01*
X165109875Y-84412983D01*
X165354058Y-84487056D01*
X165608000Y-84512067D01*
X165861943Y-84487056D01*
X166106126Y-84412983D01*
X166331167Y-84292697D01*
X166528418Y-84130818D01*
X166690297Y-83933567D01*
X166810583Y-83708526D01*
X166878000Y-83486285D01*
X166945417Y-83708526D01*
X167065704Y-83933567D01*
X167227583Y-84130818D01*
X167320844Y-84207355D01*
X166563199Y-84965000D01*
X124012802Y-84965000D01*
X122991804Y-83944003D01*
X122968001Y-83914999D01*
X122852276Y-83820026D01*
X122720247Y-83749454D01*
X122576986Y-83705997D01*
X122465333Y-83695000D01*
X122465322Y-83695000D01*
X122428000Y-83691324D01*
X122390678Y-83695000D01*
X119925322Y-83695000D01*
X119887999Y-83691324D01*
X119850676Y-83695000D01*
X119850667Y-83695000D01*
X119739014Y-83705997D01*
X119595753Y-83749454D01*
X119463724Y-83820026D01*
X119347999Y-83914999D01*
X119324201Y-83943997D01*
X118106998Y-85161201D01*
X118078000Y-85184999D01*
X118054202Y-85213997D01*
X118054201Y-85213998D01*
X117983026Y-85300724D01*
X117912454Y-85432754D01*
X117891387Y-85502205D01*
X117868999Y-85576013D01*
X117868998Y-85576015D01*
X117854324Y-85725000D01*
X117858001Y-85762332D01*
X117858000Y-91442677D01*
X117854324Y-91480000D01*
X117858000Y-91517322D01*
X117858000Y-91517332D01*
X117868997Y-91628985D01*
X117900224Y-91731928D01*
X117912454Y-91772246D01*
X117983026Y-91904276D01*
X118022871Y-91952826D01*
X118077999Y-92020001D01*
X118107003Y-92043804D01*
X119551823Y-93488625D01*
X119545832Y-93503088D01*
X119483000Y-93818967D01*
X119483000Y-94141033D01*
X119545832Y-94456912D01*
X119669082Y-94754463D01*
X119848013Y-95022252D01*
X120075748Y-95249987D01*
X120343537Y-95428918D01*
X120641088Y-95552168D01*
X120956967Y-95615000D01*
X121279033Y-95615000D01*
X121594912Y-95552168D01*
X121892463Y-95428918D01*
X122160252Y-95249987D01*
X122387987Y-95022252D01*
X122566918Y-94754463D01*
X122690168Y-94456912D01*
X122753000Y-94141033D01*
X122753000Y-93818967D01*
X122690168Y-93503088D01*
X122566918Y-93205537D01*
X122565668Y-93203665D01*
X125438000Y-93203665D01*
X125438000Y-93486335D01*
X125493147Y-93763574D01*
X125601320Y-94024727D01*
X125758363Y-94259759D01*
X125958241Y-94459637D01*
X126193273Y-94616680D01*
X126454426Y-94724853D01*
X126731665Y-94780000D01*
X127014335Y-94780000D01*
X127291574Y-94724853D01*
X127552727Y-94616680D01*
X127787759Y-94459637D01*
X127987637Y-94259759D01*
X128144680Y-94024727D01*
X128252853Y-93763574D01*
X128308000Y-93486335D01*
X128308000Y-93203665D01*
X128252853Y-92926426D01*
X128144680Y-92665273D01*
X127987637Y-92430241D01*
X127787759Y-92230363D01*
X127552727Y-92073320D01*
X127291574Y-91965147D01*
X127014335Y-91910000D01*
X126731665Y-91910000D01*
X126454426Y-91965147D01*
X126193273Y-92073320D01*
X125958241Y-92230363D01*
X125758363Y-92430241D01*
X125601320Y-92665273D01*
X125493147Y-92926426D01*
X125438000Y-93203665D01*
X122565668Y-93203665D01*
X122387987Y-92937748D01*
X122160252Y-92710013D01*
X121892463Y-92531082D01*
X121594912Y-92407832D01*
X121279033Y-92345000D01*
X120956967Y-92345000D01*
X120641088Y-92407832D01*
X120626625Y-92413823D01*
X119378000Y-91165199D01*
X119378000Y-86039801D01*
X120202802Y-85215000D01*
X122113199Y-85215000D01*
X123133198Y-86235000D01*
X122572909Y-86235000D01*
X122566918Y-86220537D01*
X122387987Y-85952748D01*
X122160252Y-85725013D01*
X121892463Y-85546082D01*
X121594912Y-85422832D01*
X121279033Y-85360000D01*
X120956967Y-85360000D01*
X120641088Y-85422832D01*
X120343537Y-85546082D01*
X120075748Y-85725013D01*
X119848013Y-85952748D01*
X119669082Y-86220537D01*
X119545832Y-86518088D01*
X119483000Y-86833967D01*
X119483000Y-87156033D01*
X119545832Y-87471912D01*
X119669082Y-87769463D01*
X119848013Y-88037252D01*
X120075748Y-88264987D01*
X120343537Y-88443918D01*
X120641088Y-88567168D01*
X120956967Y-88630000D01*
X121279033Y-88630000D01*
X121594912Y-88567168D01*
X121892463Y-88443918D01*
X122160252Y-88264987D01*
X122387987Y-88037252D01*
X122566918Y-87769463D01*
X122572909Y-87755000D01*
X132273199Y-87755000D01*
X134568000Y-90049802D01*
X134568001Y-91942406D01*
X134498987Y-91979294D01*
X134272866Y-92164866D01*
X134087294Y-92390986D01*
X134078000Y-92408374D01*
X134068706Y-92390986D01*
X133883134Y-92164866D01*
X133657014Y-91979294D01*
X133399034Y-91841401D01*
X133119111Y-91756487D01*
X132828000Y-91727815D01*
X132536890Y-91756487D01*
X132256967Y-91841401D01*
X131998987Y-91979294D01*
X131772866Y-92164866D01*
X131587294Y-92390986D01*
X131449401Y-92648966D01*
X131364487Y-92928889D01*
X131343000Y-93147050D01*
X131343000Y-93542949D01*
X131364487Y-93761110D01*
X131449401Y-94041033D01*
X131587294Y-94299013D01*
X131772866Y-94525134D01*
X131998986Y-94710706D01*
X132068001Y-94747595D01*
X132068000Y-97992677D01*
X132064324Y-98030000D01*
X132068000Y-98067322D01*
X132068000Y-98067332D01*
X132078997Y-98178985D01*
X132114591Y-98296324D01*
X132122454Y-98322246D01*
X132193026Y-98454276D01*
X132226896Y-98495546D01*
X132287999Y-98570001D01*
X132317002Y-98593804D01*
X133294200Y-99571002D01*
X133317999Y-99600001D01*
X133346997Y-99623799D01*
X133433723Y-99694974D01*
X133565753Y-99765546D01*
X133709014Y-99809003D01*
X133820667Y-99820000D01*
X133820677Y-99820000D01*
X133858000Y-99823676D01*
X133895323Y-99820000D01*
X134813199Y-99820000D01*
X135130058Y-100136860D01*
X135032294Y-100255986D01*
X134995405Y-100325000D01*
X127640595Y-100325000D01*
X127603706Y-100255986D01*
X127418134Y-100029866D01*
X127192014Y-99844294D01*
X126934034Y-99706401D01*
X126654111Y-99621487D01*
X126435950Y-99600000D01*
X126040050Y-99600000D01*
X125821889Y-99621487D01*
X125541966Y-99706401D01*
X125283986Y-99844294D01*
X125057866Y-100029866D01*
X124872294Y-100255986D01*
X124835405Y-100325000D01*
X117480595Y-100325000D01*
X117443706Y-100255986D01*
X117258134Y-100029866D01*
X117032014Y-99844294D01*
X116774034Y-99706401D01*
X116494111Y-99621487D01*
X116275950Y-99600000D01*
X115880050Y-99600000D01*
X115661889Y-99621487D01*
X115381966Y-99706401D01*
X115123986Y-99844294D01*
X114897866Y-100029866D01*
X114712294Y-100255986D01*
X114574401Y-100513966D01*
X114489487Y-100793889D01*
X114460815Y-101085000D01*
X114489487Y-101376111D01*
X114574401Y-101656034D01*
X114712294Y-101914014D01*
X114897866Y-102140134D01*
X115123986Y-102325706D01*
X115141374Y-102335000D01*
X115123986Y-102344294D01*
X114897866Y-102529866D01*
X114712294Y-102755986D01*
X114574401Y-103013966D01*
X114489487Y-103293889D01*
X114460815Y-103585000D01*
X114489487Y-103876111D01*
X114574401Y-104156034D01*
X114712294Y-104414014D01*
X114897866Y-104640134D01*
X115123986Y-104825706D01*
X115141374Y-104835000D01*
X115123986Y-104844294D01*
X114897866Y-105029866D01*
X114712294Y-105255986D01*
X114574401Y-105513966D01*
X114489487Y-105793889D01*
X114460815Y-106085000D01*
X114489487Y-106376111D01*
X114574401Y-106656034D01*
X114712294Y-106914014D01*
X114893608Y-107134945D01*
X114858820Y-107145498D01*
X114748506Y-107204463D01*
X114651815Y-107283815D01*
X114572463Y-107380506D01*
X114513498Y-107490820D01*
X114477188Y-107610518D01*
X114464928Y-107735000D01*
X114468000Y-108299250D01*
X114626750Y-108458000D01*
X115951000Y-108458000D01*
X115951000Y-108438000D01*
X116205000Y-108438000D01*
X116205000Y-108458000D01*
X117529250Y-108458000D01*
X117688000Y-108299250D01*
X117691072Y-107735000D01*
X117678812Y-107610518D01*
X117642502Y-107490820D01*
X117583537Y-107380506D01*
X117504185Y-107283815D01*
X117426426Y-107220000D01*
X124889574Y-107220000D01*
X124811815Y-107283815D01*
X124732463Y-107380506D01*
X124673498Y-107490820D01*
X124637188Y-107610518D01*
X124624928Y-107735000D01*
X124628000Y-108299250D01*
X124786750Y-108458000D01*
X126111000Y-108458000D01*
X126111000Y-108438000D01*
X126365000Y-108438000D01*
X126365000Y-108458000D01*
X127689250Y-108458000D01*
X127848000Y-108299250D01*
X127851072Y-107735000D01*
X127838812Y-107610518D01*
X127802502Y-107490820D01*
X127743537Y-107380506D01*
X127664185Y-107283815D01*
X127586426Y-107220000D01*
X135049574Y-107220000D01*
X134971815Y-107283815D01*
X134892463Y-107380506D01*
X134833498Y-107490820D01*
X134797188Y-107610518D01*
X134784928Y-107735000D01*
X134788000Y-108299250D01*
X134946750Y-108458000D01*
X136271000Y-108458000D01*
X136271000Y-108438000D01*
X136525000Y-108438000D01*
X136525000Y-108458000D01*
X136545000Y-108458000D01*
X136545000Y-108712000D01*
X136525000Y-108712000D01*
X136525000Y-109911250D01*
X136683750Y-110070000D01*
X137373000Y-110073072D01*
X137497482Y-110060812D01*
X137617180Y-110024502D01*
X137727494Y-109965537D01*
X137803000Y-109903571D01*
X137803000Y-111289868D01*
X136269860Y-112823009D01*
X136226552Y-112858551D01*
X136084717Y-113031377D01*
X136064087Y-113069974D01*
X135979324Y-113228554D01*
X135914423Y-113442502D01*
X135892509Y-113665000D01*
X135898001Y-113720761D01*
X135898000Y-116039814D01*
X135875843Y-116066813D01*
X135747236Y-116307420D01*
X135668040Y-116568494D01*
X135648000Y-116771964D01*
X135648000Y-117745000D01*
X128466685Y-117745000D01*
X127676072Y-116954387D01*
X127676072Y-116040000D01*
X127663812Y-115915518D01*
X127627502Y-115795820D01*
X127568537Y-115685506D01*
X127489185Y-115588815D01*
X127476242Y-115578193D01*
X127595571Y-115326004D01*
X127664300Y-115051816D01*
X127678217Y-114769488D01*
X127636787Y-114489870D01*
X127541603Y-114223708D01*
X127474671Y-114098486D01*
X127230702Y-114026903D01*
X126417605Y-114840000D01*
X126431748Y-114854143D01*
X126252143Y-115033748D01*
X126238000Y-115019605D01*
X126223858Y-115033748D01*
X126044253Y-114854143D01*
X126058395Y-114840000D01*
X125245298Y-114026903D01*
X125001329Y-114098486D01*
X124880429Y-114353996D01*
X124811700Y-114628184D01*
X124797783Y-114910512D01*
X124839213Y-115190130D01*
X124934397Y-115456292D01*
X124999616Y-115578309D01*
X124986815Y-115588815D01*
X124907463Y-115685506D01*
X124848498Y-115795820D01*
X124812188Y-115915518D01*
X124799928Y-116040000D01*
X124799928Y-116319387D01*
X123124315Y-117995000D01*
X117234213Y-117995000D01*
X117219407Y-117987086D01*
X117219795Y-117986802D01*
X117416664Y-117772046D01*
X117567854Y-117523009D01*
X117667554Y-117249261D01*
X117669476Y-117236890D01*
X117548155Y-117007000D01*
X116205000Y-117007000D01*
X116205000Y-117027000D01*
X115951000Y-117027000D01*
X115951000Y-117007000D01*
X114607845Y-117007000D01*
X114486524Y-117236890D01*
X114488446Y-117249261D01*
X114588146Y-117523009D01*
X114739336Y-117772046D01*
X114936205Y-117986802D01*
X114936593Y-117987086D01*
X114834614Y-118041595D01*
X114700038Y-118152038D01*
X114589595Y-118286614D01*
X114507528Y-118440150D01*
X114456992Y-118606746D01*
X114439928Y-118780000D01*
X111708000Y-118780000D01*
X111708000Y-116523110D01*
X114486524Y-116523110D01*
X114607845Y-116753000D01*
X115951000Y-116753000D01*
X115951000Y-115552768D01*
X116205000Y-115552768D01*
X116205000Y-116753000D01*
X117548155Y-116753000D01*
X117669476Y-116523110D01*
X117667554Y-116510739D01*
X117567854Y-116236991D01*
X117416664Y-115987954D01*
X117219795Y-115773198D01*
X116984812Y-115600975D01*
X116720745Y-115477904D01*
X116437742Y-115408715D01*
X116205000Y-115552768D01*
X115951000Y-115552768D01*
X115718258Y-115408715D01*
X115435255Y-115477904D01*
X115171188Y-115600975D01*
X114936205Y-115773198D01*
X114739336Y-115987954D01*
X114588146Y-116236991D01*
X114488446Y-116510739D01*
X114486524Y-116523110D01*
X111708000Y-116523110D01*
X111708000Y-113847298D01*
X125424903Y-113847298D01*
X126238000Y-114660395D01*
X127051097Y-113847298D01*
X126979514Y-113603329D01*
X126724004Y-113482429D01*
X126449816Y-113413700D01*
X126167488Y-113399783D01*
X125887870Y-113441213D01*
X125621708Y-113536397D01*
X125496486Y-113603329D01*
X125424903Y-113847298D01*
X111708000Y-113847298D01*
X111708000Y-109435000D01*
X114464928Y-109435000D01*
X114477188Y-109559482D01*
X114513498Y-109679180D01*
X114572463Y-109789494D01*
X114651815Y-109886185D01*
X114748506Y-109965537D01*
X114858820Y-110024502D01*
X114978518Y-110060812D01*
X115103000Y-110073072D01*
X115792250Y-110070000D01*
X115951000Y-109911250D01*
X115951000Y-108712000D01*
X116205000Y-108712000D01*
X116205000Y-109911250D01*
X116363750Y-110070000D01*
X117053000Y-110073072D01*
X117177482Y-110060812D01*
X117297180Y-110024502D01*
X117407494Y-109965537D01*
X117504185Y-109886185D01*
X117583537Y-109789494D01*
X117642502Y-109679180D01*
X117678812Y-109559482D01*
X117691072Y-109435000D01*
X124624928Y-109435000D01*
X124637188Y-109559482D01*
X124673498Y-109679180D01*
X124732463Y-109789494D01*
X124811815Y-109886185D01*
X124908506Y-109965537D01*
X125018820Y-110024502D01*
X125138518Y-110060812D01*
X125263000Y-110073072D01*
X125952250Y-110070000D01*
X126111000Y-109911250D01*
X126111000Y-108712000D01*
X126365000Y-108712000D01*
X126365000Y-109911250D01*
X126523750Y-110070000D01*
X127213000Y-110073072D01*
X127337482Y-110060812D01*
X127457180Y-110024502D01*
X127567494Y-109965537D01*
X127664185Y-109886185D01*
X127743537Y-109789494D01*
X127802502Y-109679180D01*
X127838812Y-109559482D01*
X127851072Y-109435000D01*
X134784928Y-109435000D01*
X134797188Y-109559482D01*
X134833498Y-109679180D01*
X134892463Y-109789494D01*
X134971815Y-109886185D01*
X135068506Y-109965537D01*
X135178820Y-110024502D01*
X135298518Y-110060812D01*
X135423000Y-110073072D01*
X136112250Y-110070000D01*
X136271000Y-109911250D01*
X136271000Y-108712000D01*
X134946750Y-108712000D01*
X134788000Y-108870750D01*
X134784928Y-109435000D01*
X127851072Y-109435000D01*
X127848000Y-108870750D01*
X127689250Y-108712000D01*
X126365000Y-108712000D01*
X126111000Y-108712000D01*
X124786750Y-108712000D01*
X124628000Y-108870750D01*
X124624928Y-109435000D01*
X117691072Y-109435000D01*
X117688000Y-108870750D01*
X117529250Y-108712000D01*
X116205000Y-108712000D01*
X115951000Y-108712000D01*
X114626750Y-108712000D01*
X114468000Y-108870750D01*
X114464928Y-109435000D01*
X111708000Y-109435000D01*
X111708000Y-95115413D01*
X115162192Y-95115413D01*
X115257956Y-95379814D01*
X115547571Y-95520704D01*
X115859108Y-95602384D01*
X116180595Y-95621718D01*
X116499675Y-95577961D01*
X116804088Y-95472795D01*
X116978044Y-95379814D01*
X117073808Y-95115413D01*
X116118000Y-94159605D01*
X115162192Y-95115413D01*
X111708000Y-95115413D01*
X111708000Y-94042595D01*
X114476282Y-94042595D01*
X114520039Y-94361675D01*
X114625205Y-94666088D01*
X114718186Y-94840044D01*
X114982587Y-94935808D01*
X115938395Y-93980000D01*
X116297605Y-93980000D01*
X117253413Y-94935808D01*
X117517814Y-94840044D01*
X117658704Y-94550429D01*
X117740384Y-94238892D01*
X117759718Y-93917405D01*
X117715961Y-93598325D01*
X117610795Y-93293912D01*
X117517814Y-93119956D01*
X117253413Y-93024192D01*
X116297605Y-93980000D01*
X115938395Y-93980000D01*
X114982587Y-93024192D01*
X114718186Y-93119956D01*
X114577296Y-93409571D01*
X114495616Y-93721108D01*
X114476282Y-94042595D01*
X111708000Y-94042595D01*
X111708000Y-92844587D01*
X115162192Y-92844587D01*
X116118000Y-93800395D01*
X117073808Y-92844587D01*
X116978044Y-92580186D01*
X116688429Y-92439296D01*
X116376892Y-92357616D01*
X116055405Y-92338282D01*
X115736325Y-92382039D01*
X115431912Y-92487205D01*
X115257956Y-92580186D01*
X115162192Y-92844587D01*
X111708000Y-92844587D01*
X111708000Y-88130413D01*
X115162192Y-88130413D01*
X115257956Y-88394814D01*
X115547571Y-88535704D01*
X115859108Y-88617384D01*
X116180595Y-88636718D01*
X116499675Y-88592961D01*
X116804088Y-88487795D01*
X116978044Y-88394814D01*
X117073808Y-88130413D01*
X116118000Y-87174605D01*
X115162192Y-88130413D01*
X111708000Y-88130413D01*
X111708000Y-87057595D01*
X114476282Y-87057595D01*
X114520039Y-87376675D01*
X114625205Y-87681088D01*
X114718186Y-87855044D01*
X114982587Y-87950808D01*
X115938395Y-86995000D01*
X116297605Y-86995000D01*
X117253413Y-87950808D01*
X117517814Y-87855044D01*
X117658704Y-87565429D01*
X117740384Y-87253892D01*
X117759718Y-86932405D01*
X117715961Y-86613325D01*
X117610795Y-86308912D01*
X117517814Y-86134956D01*
X117253413Y-86039192D01*
X116297605Y-86995000D01*
X115938395Y-86995000D01*
X114982587Y-86039192D01*
X114718186Y-86134956D01*
X114577296Y-86424571D01*
X114495616Y-86736108D01*
X114476282Y-87057595D01*
X111708000Y-87057595D01*
X111708000Y-85859587D01*
X115162192Y-85859587D01*
X116118000Y-86815395D01*
X117073808Y-85859587D01*
X116978044Y-85595186D01*
X116688429Y-85454296D01*
X116376892Y-85372616D01*
X116055405Y-85353282D01*
X115736325Y-85397039D01*
X115431912Y-85502205D01*
X115257956Y-85595186D01*
X115162192Y-85859587D01*
X111708000Y-85859587D01*
X111708000Y-81145413D01*
X115162192Y-81145413D01*
X115257956Y-81409814D01*
X115547571Y-81550704D01*
X115859108Y-81632384D01*
X116180595Y-81651718D01*
X116499675Y-81607961D01*
X116804088Y-81502795D01*
X116978044Y-81409814D01*
X117073808Y-81145413D01*
X116118000Y-80189605D01*
X115162192Y-81145413D01*
X111708000Y-81145413D01*
X111708000Y-80072595D01*
X114476282Y-80072595D01*
X114520039Y-80391675D01*
X114625205Y-80696088D01*
X114718186Y-80870044D01*
X114982587Y-80965808D01*
X115938395Y-80010000D01*
X116297605Y-80010000D01*
X117253413Y-80965808D01*
X117517814Y-80870044D01*
X117658704Y-80580429D01*
X117740384Y-80268892D01*
X117759718Y-79947405D01*
X117746219Y-79848967D01*
X119483000Y-79848967D01*
X119483000Y-80171033D01*
X119545832Y-80486912D01*
X119669082Y-80784463D01*
X119848013Y-81052252D01*
X120075748Y-81279987D01*
X120343537Y-81458918D01*
X120641088Y-81582168D01*
X120956967Y-81645000D01*
X121279033Y-81645000D01*
X121594912Y-81582168D01*
X121892463Y-81458918D01*
X122160252Y-81279987D01*
X122387987Y-81052252D01*
X122566918Y-80784463D01*
X122572909Y-80770000D01*
X126113000Y-80770000D01*
X126113001Y-81966956D01*
X125958241Y-82070363D01*
X125758363Y-82270241D01*
X125601320Y-82505273D01*
X125493147Y-82766426D01*
X125438000Y-83043665D01*
X125438000Y-83326335D01*
X125493147Y-83603574D01*
X125601320Y-83864727D01*
X125758363Y-84099759D01*
X125958241Y-84299637D01*
X126193273Y-84456680D01*
X126454426Y-84564853D01*
X126731665Y-84620000D01*
X127014335Y-84620000D01*
X127291574Y-84564853D01*
X127552727Y-84456680D01*
X127787759Y-84299637D01*
X127987637Y-84099759D01*
X128144680Y-83864727D01*
X128252853Y-83603574D01*
X128308000Y-83326335D01*
X128308000Y-83043665D01*
X128252853Y-82766426D01*
X128144680Y-82505273D01*
X127987637Y-82270241D01*
X127787759Y-82070363D01*
X127633000Y-81966957D01*
X127633000Y-80047333D01*
X127636677Y-80010000D01*
X127622003Y-79861014D01*
X127578546Y-79717753D01*
X127507974Y-79585724D01*
X127413001Y-79469999D01*
X127297276Y-79375026D01*
X127165247Y-79304454D01*
X127021986Y-79260997D01*
X126910333Y-79250000D01*
X126873000Y-79246323D01*
X126835667Y-79250000D01*
X122572909Y-79250000D01*
X122566918Y-79235537D01*
X122387987Y-78967748D01*
X122160252Y-78740013D01*
X121892463Y-78561082D01*
X121594912Y-78437832D01*
X121279033Y-78375000D01*
X120956967Y-78375000D01*
X120641088Y-78437832D01*
X120343537Y-78561082D01*
X120075748Y-78740013D01*
X119848013Y-78967748D01*
X119669082Y-79235537D01*
X119545832Y-79533088D01*
X119483000Y-79848967D01*
X117746219Y-79848967D01*
X117715961Y-79628325D01*
X117610795Y-79323912D01*
X117517814Y-79149956D01*
X117253413Y-79054192D01*
X116297605Y-80010000D01*
X115938395Y-80010000D01*
X114982587Y-79054192D01*
X114718186Y-79149956D01*
X114577296Y-79439571D01*
X114495616Y-79751108D01*
X114476282Y-80072595D01*
X111708000Y-80072595D01*
X111708000Y-78874587D01*
X115162192Y-78874587D01*
X116118000Y-79830395D01*
X117073808Y-78874587D01*
X116978044Y-78610186D01*
X116688429Y-78469296D01*
X116376892Y-78387616D01*
X116055405Y-78368282D01*
X115736325Y-78412039D01*
X115431912Y-78517205D01*
X115257956Y-78610186D01*
X115162192Y-78874587D01*
X111708000Y-78874587D01*
X111708000Y-73735000D01*
X124296293Y-73735000D01*
X124166406Y-73864887D01*
G36*
X163195000Y-92583000D02*
G01*
X163215000Y-92583000D01*
X163215000Y-92837000D01*
X163195000Y-92837000D01*
X163195000Y-94499933D01*
X163395105Y-94623820D01*
X163446395Y-94615795D01*
X163682089Y-94518044D01*
X163894184Y-94376189D01*
X164074529Y-94195683D01*
X164216193Y-93983461D01*
X164313733Y-93747680D01*
X164335494Y-93638023D01*
X164405417Y-93868526D01*
X164525704Y-94093567D01*
X164687583Y-94290818D01*
X164848001Y-94422469D01*
X164848001Y-94935197D01*
X164023199Y-95760000D01*
X161835322Y-95760000D01*
X161797999Y-95756324D01*
X161760676Y-95760000D01*
X161760667Y-95760000D01*
X161649014Y-95770997D01*
X161505753Y-95814454D01*
X161373724Y-95885026D01*
X161257999Y-95979999D01*
X161234201Y-96008997D01*
X160190891Y-97052308D01*
X160157068Y-96882271D01*
X160086586Y-96712111D01*
X159984262Y-96558972D01*
X159854028Y-96428738D01*
X159700889Y-96326414D01*
X159530729Y-96255932D01*
X159350089Y-96220000D01*
X159165911Y-96220000D01*
X158985271Y-96255932D01*
X158815111Y-96326414D01*
X158748000Y-96371256D01*
X158748000Y-94422469D01*
X158908418Y-94290818D01*
X159070297Y-94093567D01*
X159190583Y-93868526D01*
X159258000Y-93646285D01*
X159325417Y-93868526D01*
X159445704Y-94093567D01*
X159607583Y-94290818D01*
X159804834Y-94452697D01*
X160029875Y-94572983D01*
X160274058Y-94647056D01*
X160528000Y-94672067D01*
X160781943Y-94647056D01*
X161026126Y-94572983D01*
X161251167Y-94452697D01*
X161448418Y-94290818D01*
X161610297Y-94093567D01*
X161730583Y-93868526D01*
X161800506Y-93638023D01*
X161822267Y-93747680D01*
X161919807Y-93983461D01*
X162061471Y-94195683D01*
X162241816Y-94376189D01*
X162453911Y-94518044D01*
X162689605Y-94615795D01*
X162740895Y-94623820D01*
X162941000Y-94499933D01*
X162941000Y-92837000D01*
X162921000Y-92837000D01*
X162921000Y-92583000D01*
X162941000Y-92583000D01*
X162941000Y-92563000D01*
X163195000Y-92563000D01*
X163195000Y-92583000D01*
G37*
X163195000Y-92583000D02*
X163215000Y-92583000D01*
X163215000Y-92837000D01*
X163195000Y-92837000D01*
X163195000Y-94499933D01*
X163395105Y-94623820D01*
X163446395Y-94615795D01*
X163682089Y-94518044D01*
X163894184Y-94376189D01*
X164074529Y-94195683D01*
X164216193Y-93983461D01*
X164313733Y-93747680D01*
X164335494Y-93638023D01*
X164405417Y-93868526D01*
X164525704Y-94093567D01*
X164687583Y-94290818D01*
X164848001Y-94422469D01*
X164848001Y-94935197D01*
X164023199Y-95760000D01*
X161835322Y-95760000D01*
X161797999Y-95756324D01*
X161760676Y-95760000D01*
X161760667Y-95760000D01*
X161649014Y-95770997D01*
X161505753Y-95814454D01*
X161373724Y-95885026D01*
X161257999Y-95979999D01*
X161234201Y-96008997D01*
X160190891Y-97052308D01*
X160157068Y-96882271D01*
X160086586Y-96712111D01*
X159984262Y-96558972D01*
X159854028Y-96428738D01*
X159700889Y-96326414D01*
X159530729Y-96255932D01*
X159350089Y-96220000D01*
X159165911Y-96220000D01*
X158985271Y-96255932D01*
X158815111Y-96326414D01*
X158748000Y-96371256D01*
X158748000Y-94422469D01*
X158908418Y-94290818D01*
X159070297Y-94093567D01*
X159190583Y-93868526D01*
X159258000Y-93646285D01*
X159325417Y-93868526D01*
X159445704Y-94093567D01*
X159607583Y-94290818D01*
X159804834Y-94452697D01*
X160029875Y-94572983D01*
X160274058Y-94647056D01*
X160528000Y-94672067D01*
X160781943Y-94647056D01*
X161026126Y-94572983D01*
X161251167Y-94452697D01*
X161448418Y-94290818D01*
X161610297Y-94093567D01*
X161730583Y-93868526D01*
X161800506Y-93638023D01*
X161822267Y-93747680D01*
X161919807Y-93983461D01*
X162061471Y-94195683D01*
X162241816Y-94376189D01*
X162453911Y-94518044D01*
X162689605Y-94615795D01*
X162740895Y-94623820D01*
X162941000Y-94499933D01*
X162941000Y-92837000D01*
X162921000Y-92837000D01*
X162921000Y-92583000D01*
X162941000Y-92583000D01*
X162941000Y-92563000D01*
X163195000Y-92563000D01*
X163195000Y-92583000D01*
%TD*%
M02*
