M48
; DRILL file {KiCad 5.1.6-c6e7f7d~87~ubuntu18.04.1} date Thu Dec 17 14:24:24 2020
; FORMAT={-:-/ absolute / inch / decimal}
; #@! TF.CreationDate,2020-12-17T14:24:24+09:00
; #@! TF.GenerationSoftware,Kicad,Pcbnew,5.1.6-c6e7f7d~87~ubuntu18.04.1
FMAT,2
INCH
T1C0.0157
T2C0.0315
T3C0.0320
T4C0.0374
T5C0.0394
T6C0.0400
T7C0.1200
%
G90
G05
T1
X5.545Y-4.275
X5.62Y-3.85
X5.62Y-4.35
X5.695Y-4.525
X5.92Y-3.475
X5.945Y-3.55
X5.945Y-4.4
X5.97Y-3.5
X5.995Y-4.325
X6.02Y-3.525
X6.045Y-4.325
X6.07Y-3.825
X6.27Y-3.825
X6.32Y-3.425
T2
X4.995Y-3.275
X4.995Y-3.675
X4.97Y-4.5213
X4.97Y-4.6
T3
X6.12Y-3.25
X6.12Y-3.65
X6.22Y-3.25
X6.22Y-3.65
X6.32Y-3.25
X6.32Y-3.65
X6.42Y-3.25
X6.42Y-3.65
X6.52Y-3.25
X6.52Y-3.65
X6.62Y-3.25
X6.62Y-3.65
T4
X5.37Y-3.9797
X5.37Y-4.0781
X5.37Y-4.1766
X5.37Y-4.275
X4.97Y-3.9797
X4.97Y-4.0781
X4.97Y-4.1766
X4.97Y-4.275
X4.57Y-3.9797
X4.57Y-4.0781
X4.57Y-4.1766
X4.57Y-4.275
X5.77Y-3.9797
X5.77Y-4.0781
X5.77Y-4.1766
X5.77Y-4.275
X6.17Y-4.0329
X6.17Y-4.1313
X6.17Y-4.2297
X6.17Y-4.3281
X6.17Y-4.4266
X6.17Y-4.525
X5.2294Y-3.675
X5.3279Y-3.675
X5.4263Y-3.675
X5.5247Y-3.675
X5.6231Y-3.675
X5.7216Y-3.675
X5.82Y-3.675
T5
X4.5716Y-3.425
X4.7684Y-3.425
X4.5716Y-3.15
X4.7684Y-3.15
X6.595Y-4.1
X6.595Y-4.2
X6.595Y-4.3
X6.595Y-4.4
X6.595Y-4.5
X6.695Y-4.1
X6.695Y-4.2
X6.695Y-4.3
X6.695Y-4.4
X6.695Y-4.5
X4.5716Y-3.7
X4.7684Y-3.7
X4.57Y-4.6016
X4.57Y-4.7
T6
X5.47Y-4.875
X5.57Y-4.875
X5.67Y-4.875
X5.77Y-4.875
X5.87Y-4.875
X5.97Y-4.875
X6.07Y-4.875
X6.17Y-4.875
X5.11Y-2.975
X5.21Y-2.975
X5.31Y-2.975
X5.41Y-2.975
X5.51Y-2.975
X5.61Y-2.975
X5.71Y-2.975
X5.81Y-2.975
X5.91Y-2.975
X6.01Y-2.975
X6.37Y-4.875
X6.47Y-4.875
X6.57Y-4.875
X6.67Y-4.875
X6.77Y-4.875
X6.87Y-4.875
X6.17Y-2.975
X6.27Y-2.975
X6.37Y-2.975
X6.47Y-2.975
X6.57Y-2.975
X6.67Y-2.975
X6.77Y-2.975
X6.87Y-2.975
T7
X4.97Y-2.975
X6.97Y-3.575
X6.97Y-4.675
X4.92Y-4.875
T0
M30
