%TF.GenerationSoftware,KiCad,Pcbnew,5.1.6-c6e7f7d~87~ubuntu18.04.1*%
%TF.CreationDate,2021-02-25T00:55:28+09:00*%
%TF.ProjectId,M302,4d333032-2e6b-4696-9361-645f70636258,rev?*%
%TF.SameCoordinates,Original*%
%TF.FileFunction,Legend,Bot*%
%TF.FilePolarity,Positive*%
%FSLAX46Y46*%
G04 Gerber Fmt 4.6, Leading zero omitted, Abs format (unit mm)*
G04 Created by KiCad (PCBNEW 5.1.6-c6e7f7d~87~ubuntu18.04.1) date 2021-02-25 00:55:28*
%MOMM*%
%LPD*%
G01*
G04 APERTURE LIST*
%ADD10C,0.150000*%
G04 APERTURE END LIST*
D10*
X137858476Y-105497380D02*
X138334666Y-105497380D01*
X138382285Y-105973571D01*
X138334666Y-105925952D01*
X138239428Y-105878333D01*
X138001333Y-105878333D01*
X137906095Y-105925952D01*
X137858476Y-105973571D01*
X137810857Y-106068809D01*
X137810857Y-106306904D01*
X137858476Y-106402142D01*
X137906095Y-106449761D01*
X138001333Y-106497380D01*
X138239428Y-106497380D01*
X138334666Y-106449761D01*
X138382285Y-106402142D01*
X137525142Y-105497380D02*
X137191809Y-106497380D01*
X136858476Y-105497380D01*
X138882285Y-103909761D02*
X138739428Y-103957380D01*
X138501333Y-103957380D01*
X138406095Y-103909761D01*
X138358476Y-103862142D01*
X138310857Y-103766904D01*
X138310857Y-103671666D01*
X138358476Y-103576428D01*
X138406095Y-103528809D01*
X138501333Y-103481190D01*
X138691809Y-103433571D01*
X138787047Y-103385952D01*
X138834666Y-103338333D01*
X138882285Y-103243095D01*
X138882285Y-103147857D01*
X138834666Y-103052619D01*
X138787047Y-103005000D01*
X138691809Y-102957380D01*
X138453714Y-102957380D01*
X138310857Y-103005000D01*
X137882285Y-103957380D02*
X137882285Y-102957380D01*
X137644190Y-102957380D01*
X137501333Y-103005000D01*
X137406095Y-103100238D01*
X137358476Y-103195476D01*
X137310857Y-103385952D01*
X137310857Y-103528809D01*
X137358476Y-103719285D01*
X137406095Y-103814523D01*
X137501333Y-103909761D01*
X137644190Y-103957380D01*
X137882285Y-103957380D01*
X136929904Y-103671666D02*
X136453714Y-103671666D01*
X137025142Y-103957380D02*
X136691809Y-102957380D01*
X136358476Y-103957380D01*
X138858476Y-101369761D02*
X138715619Y-101417380D01*
X138477523Y-101417380D01*
X138382285Y-101369761D01*
X138334666Y-101322142D01*
X138287047Y-101226904D01*
X138287047Y-101131666D01*
X138334666Y-101036428D01*
X138382285Y-100988809D01*
X138477523Y-100941190D01*
X138668000Y-100893571D01*
X138763238Y-100845952D01*
X138810857Y-100798333D01*
X138858476Y-100703095D01*
X138858476Y-100607857D01*
X138810857Y-100512619D01*
X138763238Y-100465000D01*
X138668000Y-100417380D01*
X138429904Y-100417380D01*
X138287047Y-100465000D01*
X137287047Y-101322142D02*
X137334666Y-101369761D01*
X137477523Y-101417380D01*
X137572761Y-101417380D01*
X137715619Y-101369761D01*
X137810857Y-101274523D01*
X137858476Y-101179285D01*
X137906095Y-100988809D01*
X137906095Y-100845952D01*
X137858476Y-100655476D01*
X137810857Y-100560238D01*
X137715619Y-100465000D01*
X137572761Y-100417380D01*
X137477523Y-100417380D01*
X137334666Y-100465000D01*
X137287047Y-100512619D01*
X136382285Y-101417380D02*
X136858476Y-101417380D01*
X136858476Y-100417380D01*
M02*
