%TF.GenerationSoftware,KiCad,Pcbnew,5.1.6-c6e7f7d~87~ubuntu18.04.1*%
%TF.CreationDate,2021-02-25T00:55:28+09:00*%
%TF.ProjectId,M302,4d333032-2e6b-4696-9361-645f70636258,rev?*%
%TF.SameCoordinates,Original*%
%TF.FileFunction,Legend,Top*%
%TF.FilePolarity,Positive*%
%FSLAX46Y46*%
G04 Gerber Fmt 4.6, Leading zero omitted, Abs format (unit mm)*
G04 Created by KiCad (PCBNEW 5.1.6-c6e7f7d~87~ubuntu18.04.1) date 2021-02-25 00:55:28*
%MOMM*%
%LPD*%
G01*
G04 APERTURE LIST*
%ADD10C,0.300000*%
%ADD11C,0.150000*%
%ADD12C,0.600000*%
%ADD13C,0.120000*%
%ADD14C,0.127000*%
%ADD15C,0.120650*%
%ADD16C,0.048768*%
G04 APERTURE END LIST*
D10*
X131303000Y-85538571D02*
X131803000Y-87038571D01*
X132303000Y-85538571D01*
X133374428Y-86967142D02*
X133231571Y-87038571D01*
X132945857Y-87038571D01*
X132803000Y-86967142D01*
X132731571Y-86824285D01*
X132731571Y-86252857D01*
X132803000Y-86110000D01*
X132945857Y-86038571D01*
X133231571Y-86038571D01*
X133374428Y-86110000D01*
X133445857Y-86252857D01*
X133445857Y-86395714D01*
X132731571Y-86538571D01*
X134088714Y-87038571D02*
X134088714Y-86038571D01*
X134088714Y-86324285D02*
X134160142Y-86181428D01*
X134231571Y-86110000D01*
X134374428Y-86038571D01*
X134517285Y-86038571D01*
X134945857Y-86967142D02*
X135088714Y-87038571D01*
X135374428Y-87038571D01*
X135517285Y-86967142D01*
X135588714Y-86824285D01*
X135588714Y-86752857D01*
X135517285Y-86610000D01*
X135374428Y-86538571D01*
X135160142Y-86538571D01*
X135017285Y-86467142D01*
X134945857Y-86324285D01*
X134945857Y-86252857D01*
X135017285Y-86110000D01*
X135160142Y-86038571D01*
X135374428Y-86038571D01*
X135517285Y-86110000D01*
X136231571Y-87038571D02*
X136231571Y-86038571D01*
X136231571Y-85538571D02*
X136160142Y-85610000D01*
X136231571Y-85681428D01*
X136303000Y-85610000D01*
X136231571Y-85538571D01*
X136231571Y-85681428D01*
X137160142Y-87038571D02*
X137017285Y-86967142D01*
X136945857Y-86895714D01*
X136874428Y-86752857D01*
X136874428Y-86324285D01*
X136945857Y-86181428D01*
X137017285Y-86110000D01*
X137160142Y-86038571D01*
X137374428Y-86038571D01*
X137517285Y-86110000D01*
X137588714Y-86181428D01*
X137660142Y-86324285D01*
X137660142Y-86752857D01*
X137588714Y-86895714D01*
X137517285Y-86967142D01*
X137374428Y-87038571D01*
X137160142Y-87038571D01*
X138303000Y-86038571D02*
X138303000Y-87038571D01*
X138303000Y-86181428D02*
X138374428Y-86110000D01*
X138517285Y-86038571D01*
X138731571Y-86038571D01*
X138874428Y-86110000D01*
X138945857Y-86252857D01*
X138945857Y-87038571D01*
X141588714Y-87038571D02*
X140731571Y-87038571D01*
X141160142Y-87038571D02*
X141160142Y-85538571D01*
X141017285Y-85752857D01*
X140874428Y-85895714D01*
X140731571Y-85967142D01*
X142231571Y-86895714D02*
X142303000Y-86967142D01*
X142231571Y-87038571D01*
X142160142Y-86967142D01*
X142231571Y-86895714D01*
X142231571Y-87038571D01*
X143731571Y-87038571D02*
X142874428Y-87038571D01*
X143303000Y-87038571D02*
X143303000Y-85538571D01*
X143160142Y-85752857D01*
X143017285Y-85895714D01*
X142874428Y-85967142D01*
X145160142Y-87038571D02*
X144303000Y-87038571D01*
X144731571Y-87038571D02*
X144731571Y-85538571D01*
X144588714Y-85752857D01*
X144445857Y-85895714D01*
X144303000Y-85967142D01*
D11*
X145923000Y-86995000D02*
X145923000Y-79375000D01*
X152273000Y-86995000D02*
X145923000Y-86995000D01*
X152273000Y-79375000D02*
X152273000Y-86995000D01*
X145923000Y-79375000D02*
X152273000Y-79375000D01*
X143756095Y-81352380D02*
X143756095Y-80352380D01*
X144327523Y-81352380D02*
X143898952Y-80780952D01*
X144327523Y-80352380D02*
X143756095Y-80923809D01*
X143779904Y-82716666D02*
X144256095Y-82716666D01*
X143684666Y-83002380D02*
X144018000Y-82002380D01*
X144351333Y-83002380D01*
X144018000Y-84652380D02*
X144018000Y-83652380D01*
X130143214Y-78747880D02*
X129571785Y-78747880D01*
X129857500Y-78747880D02*
X129857500Y-77747880D01*
X129762261Y-77890738D01*
X129667023Y-77985976D01*
X129571785Y-78033595D01*
X156813214Y-78620880D02*
X156241785Y-78620880D01*
X156527500Y-78620880D02*
X156527500Y-77620880D01*
X156432261Y-77763738D01*
X156337023Y-77858976D01*
X156241785Y-77906595D01*
X162147214Y-121610380D02*
X161575785Y-121610380D01*
X161861500Y-121610380D02*
X161861500Y-120610380D01*
X161766261Y-120753238D01*
X161671023Y-120848476D01*
X161575785Y-120896095D01*
X147383714Y-80162380D02*
X147383714Y-80971904D01*
X147431333Y-81067142D01*
X147478952Y-81114761D01*
X147574190Y-81162380D01*
X147764666Y-81162380D01*
X147859904Y-81114761D01*
X147907523Y-81067142D01*
X147955142Y-80971904D01*
X147955142Y-80162380D01*
X148431333Y-80638571D02*
X148764666Y-80638571D01*
X148907523Y-81162380D02*
X148431333Y-81162380D01*
X148431333Y-80162380D01*
X148907523Y-80162380D01*
X149907523Y-81067142D02*
X149859904Y-81114761D01*
X149717047Y-81162380D01*
X149621809Y-81162380D01*
X149478952Y-81114761D01*
X149383714Y-81019523D01*
X149336095Y-80924285D01*
X149288476Y-80733809D01*
X149288476Y-80590952D01*
X149336095Y-80400476D01*
X149383714Y-80305238D01*
X149478952Y-80210000D01*
X149621809Y-80162380D01*
X149717047Y-80162380D01*
X149859904Y-80210000D01*
X149907523Y-80257619D01*
X150288476Y-81114761D02*
X150431333Y-81162380D01*
X150669428Y-81162380D01*
X150764666Y-81114761D01*
X150812285Y-81067142D01*
X150859904Y-80971904D01*
X150859904Y-80876666D01*
X150812285Y-80781428D01*
X150764666Y-80733809D01*
X150669428Y-80686190D01*
X150478952Y-80638571D01*
X150383714Y-80590952D01*
X150336095Y-80543333D01*
X150288476Y-80448095D01*
X150288476Y-80352857D01*
X150336095Y-80257619D01*
X150383714Y-80210000D01*
X150478952Y-80162380D01*
X150717047Y-80162380D01*
X150859904Y-80210000D01*
X146645619Y-82764761D02*
X146788476Y-82812380D01*
X147026571Y-82812380D01*
X147121809Y-82764761D01*
X147169428Y-82717142D01*
X147217047Y-82621904D01*
X147217047Y-82526666D01*
X147169428Y-82431428D01*
X147121809Y-82383809D01*
X147026571Y-82336190D01*
X146836095Y-82288571D01*
X146740857Y-82240952D01*
X146693238Y-82193333D01*
X146645619Y-82098095D01*
X146645619Y-82002857D01*
X146693238Y-81907619D01*
X146740857Y-81860000D01*
X146836095Y-81812380D01*
X147074190Y-81812380D01*
X147217047Y-81860000D01*
X147645619Y-82812380D02*
X147645619Y-81812380D01*
X148121809Y-82812380D02*
X148121809Y-81812380D01*
X148455142Y-82526666D01*
X148788476Y-81812380D01*
X148788476Y-82812380D01*
X149264666Y-82812380D02*
X149264666Y-81812380D01*
X149645619Y-81812380D01*
X149740857Y-81860000D01*
X149788476Y-81907619D01*
X149836095Y-82002857D01*
X149836095Y-82145714D01*
X149788476Y-82240952D01*
X149740857Y-82288571D01*
X149645619Y-82336190D01*
X149264666Y-82336190D01*
X150740857Y-82812380D02*
X150264666Y-82812380D01*
X150264666Y-81812380D01*
X151074190Y-82288571D02*
X151407523Y-82288571D01*
X151550380Y-82812380D02*
X151074190Y-82812380D01*
X151074190Y-81812380D01*
X151550380Y-81812380D01*
X147336095Y-84462380D02*
X147336095Y-83462380D01*
X147907523Y-84462380D01*
X147907523Y-83462380D01*
X148574190Y-83462380D02*
X148764666Y-83462380D01*
X148859904Y-83510000D01*
X148955142Y-83605238D01*
X149002761Y-83795714D01*
X149002761Y-84129047D01*
X148955142Y-84319523D01*
X148859904Y-84414761D01*
X148764666Y-84462380D01*
X148574190Y-84462380D01*
X148478952Y-84414761D01*
X148383714Y-84319523D01*
X148336095Y-84129047D01*
X148336095Y-83795714D01*
X148383714Y-83605238D01*
X148478952Y-83510000D01*
X148574190Y-83462380D01*
X149431333Y-84462380D02*
X149431333Y-83462380D01*
X149669428Y-83462380D01*
X149812285Y-83510000D01*
X149907523Y-83605238D01*
X149955142Y-83700476D01*
X150002761Y-83890952D01*
X150002761Y-84033809D01*
X149955142Y-84224285D01*
X149907523Y-84319523D01*
X149812285Y-84414761D01*
X149669428Y-84462380D01*
X149431333Y-84462380D01*
X150431333Y-83938571D02*
X150764666Y-83938571D01*
X150907523Y-84462380D02*
X150431333Y-84462380D01*
X150431333Y-83462380D01*
X150907523Y-83462380D01*
X146693238Y-86064761D02*
X146836095Y-86112380D01*
X147074190Y-86112380D01*
X147169428Y-86064761D01*
X147217047Y-86017142D01*
X147264666Y-85921904D01*
X147264666Y-85826666D01*
X147217047Y-85731428D01*
X147169428Y-85683809D01*
X147074190Y-85636190D01*
X146883714Y-85588571D01*
X146788476Y-85540952D01*
X146740857Y-85493333D01*
X146693238Y-85398095D01*
X146693238Y-85302857D01*
X146740857Y-85207619D01*
X146788476Y-85160000D01*
X146883714Y-85112380D01*
X147121809Y-85112380D01*
X147264666Y-85160000D01*
X147693238Y-86112380D02*
X147693238Y-85112380D01*
X147693238Y-85588571D02*
X148264666Y-85588571D01*
X148264666Y-86112380D02*
X148264666Y-85112380D01*
X148740857Y-86112380D02*
X148740857Y-85112380D01*
X149217047Y-85588571D02*
X149550380Y-85588571D01*
X149693238Y-86112380D02*
X149217047Y-86112380D01*
X149217047Y-85112380D01*
X149693238Y-85112380D01*
X150598000Y-86112380D02*
X150121809Y-86112380D01*
X150121809Y-85112380D01*
X150931333Y-86112380D02*
X150931333Y-85112380D01*
X151169428Y-85112380D01*
X151312285Y-85160000D01*
X151407523Y-85255238D01*
X151455142Y-85350476D01*
X151502761Y-85540952D01*
X151502761Y-85683809D01*
X151455142Y-85874285D01*
X151407523Y-85969523D01*
X151312285Y-86064761D01*
X151169428Y-86112380D01*
X150931333Y-86112380D01*
X163099904Y-103592380D02*
X163718952Y-103592380D01*
X163385619Y-103973333D01*
X163528476Y-103973333D01*
X163623714Y-104020952D01*
X163671333Y-104068571D01*
X163718952Y-104163809D01*
X163718952Y-104401904D01*
X163671333Y-104497142D01*
X163623714Y-104544761D01*
X163528476Y-104592380D01*
X163242761Y-104592380D01*
X163147523Y-104544761D01*
X163099904Y-104497142D01*
X164004666Y-103592380D02*
X164338000Y-104592380D01*
X164671333Y-103592380D01*
X164909428Y-103592380D02*
X165528476Y-103592380D01*
X165195142Y-103973333D01*
X165338000Y-103973333D01*
X165433238Y-104020952D01*
X165480857Y-104068571D01*
X165528476Y-104163809D01*
X165528476Y-104401904D01*
X165480857Y-104497142D01*
X165433238Y-104544761D01*
X165338000Y-104592380D01*
X165052285Y-104592380D01*
X164957047Y-104544761D01*
X164909428Y-104497142D01*
X162131571Y-107132380D02*
X162131571Y-106132380D01*
X162464904Y-106846666D01*
X162798238Y-106132380D01*
X162798238Y-107132380D01*
X163274428Y-107132380D02*
X163274428Y-106132380D01*
X163703000Y-107084761D02*
X163845857Y-107132380D01*
X164083952Y-107132380D01*
X164179190Y-107084761D01*
X164226809Y-107037142D01*
X164274428Y-106941904D01*
X164274428Y-106846666D01*
X164226809Y-106751428D01*
X164179190Y-106703809D01*
X164083952Y-106656190D01*
X163893476Y-106608571D01*
X163798238Y-106560952D01*
X163750619Y-106513333D01*
X163703000Y-106418095D01*
X163703000Y-106322857D01*
X163750619Y-106227619D01*
X163798238Y-106180000D01*
X163893476Y-106132380D01*
X164131571Y-106132380D01*
X164274428Y-106180000D01*
X164893476Y-106132380D02*
X165083952Y-106132380D01*
X165179190Y-106180000D01*
X165274428Y-106275238D01*
X165322047Y-106465714D01*
X165322047Y-106799047D01*
X165274428Y-106989523D01*
X165179190Y-107084761D01*
X165083952Y-107132380D01*
X164893476Y-107132380D01*
X164798238Y-107084761D01*
X164703000Y-106989523D01*
X164655380Y-106799047D01*
X164655380Y-106465714D01*
X164703000Y-106275238D01*
X164798238Y-106180000D01*
X164893476Y-106132380D01*
X162131571Y-109672380D02*
X162131571Y-108672380D01*
X162464904Y-109386666D01*
X162798238Y-108672380D01*
X162798238Y-109672380D01*
X163464904Y-108672380D02*
X163655380Y-108672380D01*
X163750619Y-108720000D01*
X163845857Y-108815238D01*
X163893476Y-109005714D01*
X163893476Y-109339047D01*
X163845857Y-109529523D01*
X163750619Y-109624761D01*
X163655380Y-109672380D01*
X163464904Y-109672380D01*
X163369666Y-109624761D01*
X163274428Y-109529523D01*
X163226809Y-109339047D01*
X163226809Y-109005714D01*
X163274428Y-108815238D01*
X163369666Y-108720000D01*
X163464904Y-108672380D01*
X164274428Y-109624761D02*
X164417285Y-109672380D01*
X164655380Y-109672380D01*
X164750619Y-109624761D01*
X164798238Y-109577142D01*
X164845857Y-109481904D01*
X164845857Y-109386666D01*
X164798238Y-109291428D01*
X164750619Y-109243809D01*
X164655380Y-109196190D01*
X164464904Y-109148571D01*
X164369666Y-109100952D01*
X164322047Y-109053333D01*
X164274428Y-108958095D01*
X164274428Y-108862857D01*
X164322047Y-108767619D01*
X164369666Y-108720000D01*
X164464904Y-108672380D01*
X164703000Y-108672380D01*
X164845857Y-108720000D01*
X165274428Y-109672380D02*
X165274428Y-108672380D01*
X163576095Y-112164761D02*
X163718952Y-112212380D01*
X163957047Y-112212380D01*
X164052285Y-112164761D01*
X164099904Y-112117142D01*
X164147523Y-112021904D01*
X164147523Y-111926666D01*
X164099904Y-111831428D01*
X164052285Y-111783809D01*
X163957047Y-111736190D01*
X163766571Y-111688571D01*
X163671333Y-111640952D01*
X163623714Y-111593333D01*
X163576095Y-111498095D01*
X163576095Y-111402857D01*
X163623714Y-111307619D01*
X163671333Y-111260000D01*
X163766571Y-111212380D01*
X164004666Y-111212380D01*
X164147523Y-111260000D01*
X164528476Y-112164761D02*
X164671333Y-112212380D01*
X164909428Y-112212380D01*
X165004666Y-112164761D01*
X165052285Y-112117142D01*
X165099904Y-112021904D01*
X165099904Y-111926666D01*
X165052285Y-111831428D01*
X165004666Y-111783809D01*
X164909428Y-111736190D01*
X164718952Y-111688571D01*
X164623714Y-111640952D01*
X164576095Y-111593333D01*
X164528476Y-111498095D01*
X164528476Y-111402857D01*
X164576095Y-111307619D01*
X164623714Y-111260000D01*
X164718952Y-111212380D01*
X164957047Y-111212380D01*
X165099904Y-111260000D01*
X163052285Y-114704761D02*
X163195142Y-114752380D01*
X163433238Y-114752380D01*
X163528476Y-114704761D01*
X163576095Y-114657142D01*
X163623714Y-114561904D01*
X163623714Y-114466666D01*
X163576095Y-114371428D01*
X163528476Y-114323809D01*
X163433238Y-114276190D01*
X163242761Y-114228571D01*
X163147523Y-114180952D01*
X163099904Y-114133333D01*
X163052285Y-114038095D01*
X163052285Y-113942857D01*
X163099904Y-113847619D01*
X163147523Y-113800000D01*
X163242761Y-113752380D01*
X163480857Y-113752380D01*
X163623714Y-113800000D01*
X164623714Y-114657142D02*
X164576095Y-114704761D01*
X164433238Y-114752380D01*
X164338000Y-114752380D01*
X164195142Y-114704761D01*
X164099904Y-114609523D01*
X164052285Y-114514285D01*
X164004666Y-114323809D01*
X164004666Y-114180952D01*
X164052285Y-113990476D01*
X164099904Y-113895238D01*
X164195142Y-113800000D01*
X164338000Y-113752380D01*
X164433238Y-113752380D01*
X164576095Y-113800000D01*
X164623714Y-113847619D01*
X165052285Y-114752380D02*
X165052285Y-113752380D01*
X165623714Y-114752380D02*
X165195142Y-114180952D01*
X165623714Y-113752380D02*
X165052285Y-114323809D01*
X172680380Y-109672380D02*
X172347047Y-109196190D01*
X172108952Y-109672380D02*
X172108952Y-108672380D01*
X172489904Y-108672380D01*
X172585142Y-108720000D01*
X172632761Y-108767619D01*
X172680380Y-108862857D01*
X172680380Y-109005714D01*
X172632761Y-109100952D01*
X172585142Y-109148571D01*
X172489904Y-109196190D01*
X172108952Y-109196190D01*
X173061333Y-109624761D02*
X173204190Y-109672380D01*
X173442285Y-109672380D01*
X173537523Y-109624761D01*
X173585142Y-109577142D01*
X173632761Y-109481904D01*
X173632761Y-109386666D01*
X173585142Y-109291428D01*
X173537523Y-109243809D01*
X173442285Y-109196190D01*
X173251809Y-109148571D01*
X173156571Y-109100952D01*
X173108952Y-109053333D01*
X173061333Y-108958095D01*
X173061333Y-108862857D01*
X173108952Y-108767619D01*
X173156571Y-108720000D01*
X173251809Y-108672380D01*
X173489904Y-108672380D01*
X173632761Y-108720000D01*
X173918476Y-108672380D02*
X174489904Y-108672380D01*
X174204190Y-109672380D02*
X174204190Y-108672380D01*
X172466095Y-106180000D02*
X172370857Y-106132380D01*
X172228000Y-106132380D01*
X172085142Y-106180000D01*
X171989904Y-106275238D01*
X171942285Y-106370476D01*
X171894666Y-106560952D01*
X171894666Y-106703809D01*
X171942285Y-106894285D01*
X171989904Y-106989523D01*
X172085142Y-107084761D01*
X172228000Y-107132380D01*
X172323238Y-107132380D01*
X172466095Y-107084761D01*
X172513714Y-107037142D01*
X172513714Y-106703809D01*
X172323238Y-106703809D01*
X172942285Y-107132380D02*
X172942285Y-106132380D01*
X173513714Y-107132380D01*
X173513714Y-106132380D01*
X173989904Y-107132380D02*
X173989904Y-106132380D01*
X174228000Y-106132380D01*
X174370857Y-106180000D01*
X174466095Y-106275238D01*
X174513714Y-106370476D01*
X174561333Y-106560952D01*
X174561333Y-106703809D01*
X174513714Y-106894285D01*
X174466095Y-106989523D01*
X174370857Y-107084761D01*
X174228000Y-107132380D01*
X173989904Y-107132380D01*
X172402523Y-103592380D02*
X171926333Y-103592380D01*
X171878714Y-104068571D01*
X171926333Y-104020952D01*
X172021571Y-103973333D01*
X172259666Y-103973333D01*
X172354904Y-104020952D01*
X172402523Y-104068571D01*
X172450142Y-104163809D01*
X172450142Y-104401904D01*
X172402523Y-104497142D01*
X172354904Y-104544761D01*
X172259666Y-104592380D01*
X172021571Y-104592380D01*
X171926333Y-104544761D01*
X171878714Y-104497142D01*
X172735857Y-103592380D02*
X173069190Y-104592380D01*
X173402523Y-103592380D01*
X178760380Y-115838809D02*
X177760380Y-115838809D01*
X178236571Y-115838809D02*
X178236571Y-115267380D01*
X178760380Y-115267380D02*
X177760380Y-115267380D01*
X177760380Y-114600714D02*
X177760380Y-114410238D01*
X177808000Y-114315000D01*
X177903238Y-114219761D01*
X178093714Y-114172142D01*
X178427047Y-114172142D01*
X178617523Y-114219761D01*
X178712761Y-114315000D01*
X178760380Y-114410238D01*
X178760380Y-114600714D01*
X178712761Y-114695952D01*
X178617523Y-114791190D01*
X178427047Y-114838809D01*
X178093714Y-114838809D01*
X177903238Y-114791190D01*
X177808000Y-114695952D01*
X177760380Y-114600714D01*
X178760380Y-113267380D02*
X178760380Y-113743571D01*
X177760380Y-113743571D01*
X178760380Y-112457857D02*
X178760380Y-112934047D01*
X177760380Y-112934047D01*
X178284190Y-111934047D02*
X178760380Y-111934047D01*
X177760380Y-112267380D02*
X178284190Y-111934047D01*
X177760380Y-111600714D01*
X178760380Y-109695952D02*
X178760380Y-109743571D01*
X178712761Y-109838809D01*
X178569904Y-109981666D01*
X178284190Y-110219761D01*
X178141333Y-110315000D01*
X177998476Y-110362619D01*
X177903238Y-110362619D01*
X177808000Y-110315000D01*
X177760380Y-110219761D01*
X177760380Y-110172142D01*
X177808000Y-110076904D01*
X177903238Y-110029285D01*
X177950857Y-110029285D01*
X178046095Y-110076904D01*
X178093714Y-110124523D01*
X178284190Y-110410238D01*
X178331809Y-110457857D01*
X178427047Y-110505476D01*
X178569904Y-110505476D01*
X178665142Y-110457857D01*
X178712761Y-110410238D01*
X178760380Y-110315000D01*
X178760380Y-110172142D01*
X178712761Y-110076904D01*
X178665142Y-110029285D01*
X178474666Y-109886428D01*
X178331809Y-109838809D01*
X178236571Y-109838809D01*
X178665142Y-107934047D02*
X178712761Y-107981666D01*
X178760380Y-108124523D01*
X178760380Y-108219761D01*
X178712761Y-108362619D01*
X178617523Y-108457857D01*
X178522285Y-108505476D01*
X178331809Y-108553095D01*
X178188952Y-108553095D01*
X177998476Y-108505476D01*
X177903238Y-108457857D01*
X177808000Y-108362619D01*
X177760380Y-108219761D01*
X177760380Y-108124523D01*
X177808000Y-107981666D01*
X177855619Y-107934047D01*
X178760380Y-107362619D02*
X178712761Y-107457857D01*
X178665142Y-107505476D01*
X178569904Y-107553095D01*
X178284190Y-107553095D01*
X178188952Y-107505476D01*
X178141333Y-107457857D01*
X178093714Y-107362619D01*
X178093714Y-107219761D01*
X178141333Y-107124523D01*
X178188952Y-107076904D01*
X178284190Y-107029285D01*
X178569904Y-107029285D01*
X178665142Y-107076904D01*
X178712761Y-107124523D01*
X178760380Y-107219761D01*
X178760380Y-107362619D01*
X178665142Y-106600714D02*
X178712761Y-106553095D01*
X178760380Y-106600714D01*
X178712761Y-106648333D01*
X178665142Y-106600714D01*
X178760380Y-106600714D01*
X178712761Y-106076904D02*
X178760380Y-106076904D01*
X178855619Y-106124523D01*
X178903238Y-106172142D01*
X178760380Y-105172142D02*
X178760380Y-105648333D01*
X177760380Y-105648333D01*
X178093714Y-104981666D02*
X178093714Y-104600714D01*
X177760380Y-104838809D02*
X178617523Y-104838809D01*
X178712761Y-104791190D01*
X178760380Y-104695952D01*
X178760380Y-104600714D01*
X178760380Y-103838809D02*
X177760380Y-103838809D01*
X178712761Y-103838809D02*
X178760380Y-103934047D01*
X178760380Y-104124523D01*
X178712761Y-104219761D01*
X178665142Y-104267380D01*
X178569904Y-104315000D01*
X178284190Y-104315000D01*
X178188952Y-104267380D01*
X178141333Y-104219761D01*
X178093714Y-104124523D01*
X178093714Y-103934047D01*
X178141333Y-103838809D01*
X178665142Y-103362619D02*
X178712761Y-103315000D01*
X178760380Y-103362619D01*
X178712761Y-103410238D01*
X178665142Y-103362619D01*
X178760380Y-103362619D01*
X177855619Y-102172142D02*
X177808000Y-102124523D01*
X177760380Y-102029285D01*
X177760380Y-101791190D01*
X177808000Y-101695952D01*
X177855619Y-101648333D01*
X177950857Y-101600714D01*
X178046095Y-101600714D01*
X178188952Y-101648333D01*
X178760380Y-102219761D01*
X178760380Y-101600714D01*
X177760380Y-100981666D02*
X177760380Y-100886428D01*
X177808000Y-100791190D01*
X177855619Y-100743571D01*
X177950857Y-100695952D01*
X178141333Y-100648333D01*
X178379428Y-100648333D01*
X178569904Y-100695952D01*
X178665142Y-100743571D01*
X178712761Y-100791190D01*
X178760380Y-100886428D01*
X178760380Y-100981666D01*
X178712761Y-101076904D01*
X178665142Y-101124523D01*
X178569904Y-101172142D01*
X178379428Y-101219761D01*
X178141333Y-101219761D01*
X177950857Y-101172142D01*
X177855619Y-101124523D01*
X177808000Y-101076904D01*
X177760380Y-100981666D01*
X177855619Y-100267380D02*
X177808000Y-100219761D01*
X177760380Y-100124523D01*
X177760380Y-99886428D01*
X177808000Y-99791190D01*
X177855619Y-99743571D01*
X177950857Y-99695952D01*
X178046095Y-99695952D01*
X178188952Y-99743571D01*
X178760380Y-100315000D01*
X178760380Y-99695952D01*
X178760380Y-98743571D02*
X178760380Y-99315000D01*
X178760380Y-99029285D02*
X177760380Y-99029285D01*
X177903238Y-99124523D01*
X177998476Y-99219761D01*
X178046095Y-99315000D01*
D12*
X131747285Y-84811904D02*
X131747285Y-79811904D01*
X132747285Y-83383333D01*
X133747285Y-79811904D01*
X133747285Y-84811904D01*
X134890142Y-79811904D02*
X136747285Y-79811904D01*
X135747285Y-81716666D01*
X136175857Y-81716666D01*
X136461571Y-81954761D01*
X136604428Y-82192857D01*
X136747285Y-82669047D01*
X136747285Y-83859523D01*
X136604428Y-84335714D01*
X136461571Y-84573809D01*
X136175857Y-84811904D01*
X135318714Y-84811904D01*
X135033000Y-84573809D01*
X134890142Y-84335714D01*
X138604428Y-79811904D02*
X138890142Y-79811904D01*
X139175857Y-80050000D01*
X139318714Y-80288095D01*
X139461571Y-80764285D01*
X139604428Y-81716666D01*
X139604428Y-82907142D01*
X139461571Y-83859523D01*
X139318714Y-84335714D01*
X139175857Y-84573809D01*
X138890142Y-84811904D01*
X138604428Y-84811904D01*
X138318714Y-84573809D01*
X138175857Y-84335714D01*
X138033000Y-83859523D01*
X137890142Y-82907142D01*
X137890142Y-81716666D01*
X138033000Y-80764285D01*
X138175857Y-80288095D01*
X138318714Y-80050000D01*
X138604428Y-79811904D01*
X140747285Y-80288095D02*
X140890142Y-80050000D01*
X141175857Y-79811904D01*
X141890142Y-79811904D01*
X142175857Y-80050000D01*
X142318714Y-80288095D01*
X142461571Y-80764285D01*
X142461571Y-81240476D01*
X142318714Y-81954761D01*
X140604428Y-84811904D01*
X142461571Y-84811904D01*
D11*
X117165619Y-76017380D02*
X116832285Y-75541190D01*
X116594190Y-76017380D02*
X116594190Y-75017380D01*
X116975142Y-75017380D01*
X117070380Y-75065000D01*
X117118000Y-75112619D01*
X117165619Y-75207857D01*
X117165619Y-75350714D01*
X117118000Y-75445952D01*
X117070380Y-75493571D01*
X116975142Y-75541190D01*
X116594190Y-75541190D01*
X117594190Y-75493571D02*
X117927523Y-75493571D01*
X118070380Y-76017380D02*
X117594190Y-76017380D01*
X117594190Y-75017380D01*
X118070380Y-75017380D01*
X118451333Y-75969761D02*
X118594190Y-76017380D01*
X118832285Y-76017380D01*
X118927523Y-75969761D01*
X118975142Y-75922142D01*
X119022761Y-75826904D01*
X119022761Y-75731666D01*
X118975142Y-75636428D01*
X118927523Y-75588809D01*
X118832285Y-75541190D01*
X118641809Y-75493571D01*
X118546571Y-75445952D01*
X118498952Y-75398333D01*
X118451333Y-75303095D01*
X118451333Y-75207857D01*
X118498952Y-75112619D01*
X118546571Y-75065000D01*
X118641809Y-75017380D01*
X118879904Y-75017380D01*
X119022761Y-75065000D01*
X119451333Y-75493571D02*
X119784666Y-75493571D01*
X119927523Y-76017380D02*
X119451333Y-76017380D01*
X119451333Y-75017380D01*
X119927523Y-75017380D01*
X120213238Y-75017380D02*
X120784666Y-75017380D01*
X120498952Y-76017380D02*
X120498952Y-75017380D01*
X111633000Y-97790000D02*
X111633000Y-76200000D01*
X123063000Y-97790000D02*
X111633000Y-97790000D01*
X123063000Y-76200000D02*
X123063000Y-97790000D01*
X111633000Y-76200000D02*
X123063000Y-76200000D01*
D10*
X112660857Y-116090000D02*
X112518000Y-116018571D01*
X112303714Y-116018571D01*
X112089428Y-116090000D01*
X111946571Y-116232857D01*
X111875142Y-116375714D01*
X111803714Y-116661428D01*
X111803714Y-116875714D01*
X111875142Y-117161428D01*
X111946571Y-117304285D01*
X112089428Y-117447142D01*
X112303714Y-117518571D01*
X112446571Y-117518571D01*
X112660857Y-117447142D01*
X112732285Y-117375714D01*
X112732285Y-116875714D01*
X112446571Y-116875714D01*
X111696571Y-119487142D02*
X112839428Y-119487142D01*
X112268000Y-120058571D02*
X112268000Y-118915714D01*
D11*
X139223714Y-121737380D02*
X138652285Y-121737380D01*
X138938000Y-121737380D02*
X138938000Y-120737380D01*
X138842761Y-120880238D01*
X138747523Y-120975476D01*
X138652285Y-121023095D01*
D13*
%TO.C,C4*%
X174128000Y-95400000D02*
X177368000Y-95400000D01*
X174128000Y-97640000D02*
X177368000Y-97640000D01*
X174128000Y-95400000D02*
X174128000Y-95465000D01*
X174128000Y-97575000D02*
X174128000Y-97640000D01*
X177368000Y-95400000D02*
X177368000Y-95465000D01*
X177368000Y-97575000D02*
X177368000Y-97640000D01*
%TO.C,C3*%
X177118000Y-101330000D02*
G75*
G03*
X177118000Y-101330000I-2620000J0D01*
G01*
X173458000Y-101330000D02*
X171918000Y-101330000D01*
X177078000Y-101330000D02*
X175538000Y-101330000D01*
X173458000Y-101370000D02*
X171918000Y-101370000D01*
X177078000Y-101370000D02*
X175538000Y-101370000D01*
X177077000Y-101410000D02*
X175538000Y-101410000D01*
X173458000Y-101410000D02*
X171919000Y-101410000D01*
X177076000Y-101450000D02*
X175538000Y-101450000D01*
X173458000Y-101450000D02*
X171920000Y-101450000D01*
X177074000Y-101490000D02*
X175538000Y-101490000D01*
X173458000Y-101490000D02*
X171922000Y-101490000D01*
X177071000Y-101530000D02*
X175538000Y-101530000D01*
X173458000Y-101530000D02*
X171925000Y-101530000D01*
X177067000Y-101570000D02*
X175538000Y-101570000D01*
X173458000Y-101570000D02*
X171929000Y-101570000D01*
X177063000Y-101610000D02*
X175538000Y-101610000D01*
X173458000Y-101610000D02*
X171933000Y-101610000D01*
X177059000Y-101650000D02*
X175538000Y-101650000D01*
X173458000Y-101650000D02*
X171937000Y-101650000D01*
X177054000Y-101690000D02*
X175538000Y-101690000D01*
X173458000Y-101690000D02*
X171942000Y-101690000D01*
X177048000Y-101730000D02*
X175538000Y-101730000D01*
X173458000Y-101730000D02*
X171948000Y-101730000D01*
X177041000Y-101770000D02*
X175538000Y-101770000D01*
X173458000Y-101770000D02*
X171955000Y-101770000D01*
X177034000Y-101810000D02*
X175538000Y-101810000D01*
X173458000Y-101810000D02*
X171962000Y-101810000D01*
X177026000Y-101850000D02*
X175538000Y-101850000D01*
X173458000Y-101850000D02*
X171970000Y-101850000D01*
X177018000Y-101890000D02*
X175538000Y-101890000D01*
X173458000Y-101890000D02*
X171978000Y-101890000D01*
X177009000Y-101930000D02*
X175538000Y-101930000D01*
X173458000Y-101930000D02*
X171987000Y-101930000D01*
X176999000Y-101970000D02*
X175538000Y-101970000D01*
X173458000Y-101970000D02*
X171997000Y-101970000D01*
X176989000Y-102010000D02*
X175538000Y-102010000D01*
X173458000Y-102010000D02*
X172007000Y-102010000D01*
X176978000Y-102051000D02*
X175538000Y-102051000D01*
X173458000Y-102051000D02*
X172018000Y-102051000D01*
X176966000Y-102091000D02*
X175538000Y-102091000D01*
X173458000Y-102091000D02*
X172030000Y-102091000D01*
X176953000Y-102131000D02*
X175538000Y-102131000D01*
X173458000Y-102131000D02*
X172043000Y-102131000D01*
X176940000Y-102171000D02*
X175538000Y-102171000D01*
X173458000Y-102171000D02*
X172056000Y-102171000D01*
X176926000Y-102211000D02*
X175538000Y-102211000D01*
X173458000Y-102211000D02*
X172070000Y-102211000D01*
X176912000Y-102251000D02*
X175538000Y-102251000D01*
X173458000Y-102251000D02*
X172084000Y-102251000D01*
X176896000Y-102291000D02*
X175538000Y-102291000D01*
X173458000Y-102291000D02*
X172100000Y-102291000D01*
X176880000Y-102331000D02*
X175538000Y-102331000D01*
X173458000Y-102331000D02*
X172116000Y-102331000D01*
X176863000Y-102371000D02*
X175538000Y-102371000D01*
X173458000Y-102371000D02*
X172133000Y-102371000D01*
X176846000Y-102411000D02*
X175538000Y-102411000D01*
X173458000Y-102411000D02*
X172150000Y-102411000D01*
X176827000Y-102451000D02*
X175538000Y-102451000D01*
X173458000Y-102451000D02*
X172169000Y-102451000D01*
X176808000Y-102491000D02*
X175538000Y-102491000D01*
X173458000Y-102491000D02*
X172188000Y-102491000D01*
X176788000Y-102531000D02*
X175538000Y-102531000D01*
X173458000Y-102531000D02*
X172208000Y-102531000D01*
X176766000Y-102571000D02*
X175538000Y-102571000D01*
X173458000Y-102571000D02*
X172230000Y-102571000D01*
X176745000Y-102611000D02*
X175538000Y-102611000D01*
X173458000Y-102611000D02*
X172251000Y-102611000D01*
X176722000Y-102651000D02*
X175538000Y-102651000D01*
X173458000Y-102651000D02*
X172274000Y-102651000D01*
X176698000Y-102691000D02*
X175538000Y-102691000D01*
X173458000Y-102691000D02*
X172298000Y-102691000D01*
X176673000Y-102731000D02*
X175538000Y-102731000D01*
X173458000Y-102731000D02*
X172323000Y-102731000D01*
X176647000Y-102771000D02*
X175538000Y-102771000D01*
X173458000Y-102771000D02*
X172349000Y-102771000D01*
X176620000Y-102811000D02*
X175538000Y-102811000D01*
X173458000Y-102811000D02*
X172376000Y-102811000D01*
X176593000Y-102851000D02*
X175538000Y-102851000D01*
X173458000Y-102851000D02*
X172403000Y-102851000D01*
X176563000Y-102891000D02*
X175538000Y-102891000D01*
X173458000Y-102891000D02*
X172433000Y-102891000D01*
X176533000Y-102931000D02*
X175538000Y-102931000D01*
X173458000Y-102931000D02*
X172463000Y-102931000D01*
X176502000Y-102971000D02*
X175538000Y-102971000D01*
X173458000Y-102971000D02*
X172494000Y-102971000D01*
X176469000Y-103011000D02*
X175538000Y-103011000D01*
X173458000Y-103011000D02*
X172527000Y-103011000D01*
X176435000Y-103051000D02*
X175538000Y-103051000D01*
X173458000Y-103051000D02*
X172561000Y-103051000D01*
X176399000Y-103091000D02*
X175538000Y-103091000D01*
X173458000Y-103091000D02*
X172597000Y-103091000D01*
X176362000Y-103131000D02*
X175538000Y-103131000D01*
X173458000Y-103131000D02*
X172634000Y-103131000D01*
X176324000Y-103171000D02*
X175538000Y-103171000D01*
X173458000Y-103171000D02*
X172672000Y-103171000D01*
X176283000Y-103211000D02*
X175538000Y-103211000D01*
X173458000Y-103211000D02*
X172713000Y-103211000D01*
X176241000Y-103251000D02*
X175538000Y-103251000D01*
X173458000Y-103251000D02*
X172755000Y-103251000D01*
X176197000Y-103291000D02*
X175538000Y-103291000D01*
X173458000Y-103291000D02*
X172799000Y-103291000D01*
X176151000Y-103331000D02*
X175538000Y-103331000D01*
X173458000Y-103331000D02*
X172845000Y-103331000D01*
X176103000Y-103371000D02*
X172893000Y-103371000D01*
X176052000Y-103411000D02*
X172944000Y-103411000D01*
X175998000Y-103451000D02*
X172998000Y-103451000D01*
X175941000Y-103491000D02*
X173055000Y-103491000D01*
X175881000Y-103531000D02*
X173115000Y-103531000D01*
X175817000Y-103571000D02*
X173179000Y-103571000D01*
X175749000Y-103611000D02*
X173247000Y-103611000D01*
X175676000Y-103651000D02*
X173320000Y-103651000D01*
X175596000Y-103691000D02*
X173400000Y-103691000D01*
X175509000Y-103731000D02*
X173487000Y-103731000D01*
X175413000Y-103771000D02*
X173583000Y-103771000D01*
X175303000Y-103811000D02*
X173693000Y-103811000D01*
X175175000Y-103851000D02*
X173821000Y-103851000D01*
X175016000Y-103891000D02*
X173980000Y-103891000D01*
X174782000Y-103931000D02*
X174214000Y-103931000D01*
X175973000Y-98525225D02*
X175973000Y-99025225D01*
X176223000Y-98775225D02*
X175723000Y-98775225D01*
%TO.C,C2*%
X139358000Y-116510000D02*
X139423000Y-116510000D01*
X137183000Y-116510000D02*
X137248000Y-116510000D01*
X139358000Y-119750000D02*
X139423000Y-119750000D01*
X137183000Y-119750000D02*
X137248000Y-119750000D01*
X139423000Y-119750000D02*
X139423000Y-116510000D01*
X137183000Y-119750000D02*
X137183000Y-116510000D01*
%TO.C,J9*%
X147618000Y-120325000D02*
X148868000Y-120325000D01*
X147618000Y-119075000D02*
X147618000Y-120325000D01*
X153118000Y-98175000D02*
X153118000Y-108725000D01*
X150168000Y-98175000D02*
X153118000Y-98175000D01*
X150168000Y-97425000D02*
X150168000Y-98175000D01*
X153118000Y-119275000D02*
X153118000Y-108725000D01*
X150168000Y-119275000D02*
X153118000Y-119275000D01*
X150168000Y-120025000D02*
X150168000Y-119275000D01*
X147918000Y-97425000D02*
X147918000Y-99225000D01*
X148668000Y-97425000D02*
X147918000Y-97425000D01*
X148668000Y-99225000D02*
X148668000Y-97425000D01*
X147918000Y-99225000D02*
X148668000Y-99225000D01*
X147918000Y-118225000D02*
X147918000Y-120025000D01*
X148668000Y-118225000D02*
X147918000Y-118225000D01*
X148668000Y-120025000D02*
X148668000Y-118225000D01*
X147918000Y-120025000D02*
X148668000Y-120025000D01*
X147918000Y-100725000D02*
X147918000Y-116725000D01*
X148668000Y-100725000D02*
X147918000Y-100725000D01*
X148668000Y-116725000D02*
X148668000Y-100725000D01*
X147918000Y-116725000D02*
X148668000Y-116725000D01*
X147908000Y-97415000D02*
X147908000Y-120035000D01*
X153878000Y-97415000D02*
X147908000Y-97415000D01*
X153878000Y-120035000D02*
X153878000Y-97415000D01*
X147908000Y-120035000D02*
X153878000Y-120035000D01*
%TO.C,R3*%
X173633000Y-79915000D02*
X173963000Y-79915000D01*
X173963000Y-79915000D02*
X173963000Y-86455000D01*
X173963000Y-86455000D02*
X173633000Y-86455000D01*
X171553000Y-79915000D02*
X171223000Y-79915000D01*
X171223000Y-79915000D02*
X171223000Y-86455000D01*
X171223000Y-86455000D02*
X171553000Y-86455000D01*
%TO.C,R2*%
X127103000Y-88995000D02*
X126773000Y-88995000D01*
X126773000Y-88995000D02*
X126773000Y-82455000D01*
X126773000Y-82455000D02*
X127103000Y-82455000D01*
X129183000Y-88995000D02*
X129513000Y-88995000D01*
X129513000Y-88995000D02*
X129513000Y-82455000D01*
X129513000Y-82455000D02*
X129183000Y-82455000D01*
%TO.C,R1*%
X123531835Y-88995000D02*
X123201835Y-88995000D01*
X123201835Y-88995000D02*
X123201835Y-82455000D01*
X123201835Y-82455000D02*
X123531835Y-82455000D01*
X125611835Y-88995000D02*
X125941835Y-88995000D01*
X125941835Y-88995000D02*
X125941835Y-82455000D01*
X125941835Y-82455000D02*
X125611835Y-82455000D01*
%TO.C,J5*%
X150678000Y-96095000D02*
X150678000Y-94845000D01*
X149428000Y-96095000D02*
X150678000Y-96095000D01*
X131028000Y-90595000D02*
X140328000Y-90595000D01*
X131028000Y-93545000D02*
X131028000Y-90595000D01*
X130278000Y-93545000D02*
X131028000Y-93545000D01*
X149628000Y-90595000D02*
X140328000Y-90595000D01*
X149628000Y-93545000D02*
X149628000Y-90595000D01*
X150378000Y-93545000D02*
X149628000Y-93545000D01*
X130278000Y-95795000D02*
X132078000Y-95795000D01*
X130278000Y-95045000D02*
X130278000Y-95795000D01*
X132078000Y-95045000D02*
X130278000Y-95045000D01*
X132078000Y-95795000D02*
X132078000Y-95045000D01*
X148578000Y-95795000D02*
X150378000Y-95795000D01*
X148578000Y-95045000D02*
X148578000Y-95795000D01*
X150378000Y-95045000D02*
X148578000Y-95045000D01*
X150378000Y-95795000D02*
X150378000Y-95045000D01*
X133578000Y-95795000D02*
X147078000Y-95795000D01*
X133578000Y-95045000D02*
X133578000Y-95795000D01*
X147078000Y-95045000D02*
X133578000Y-95045000D01*
X147078000Y-95795000D02*
X147078000Y-95045000D01*
X130268000Y-95805000D02*
X150388000Y-95805000D01*
X130268000Y-89835000D02*
X130268000Y-95805000D01*
X150388000Y-89835000D02*
X130268000Y-89835000D01*
X150388000Y-95805000D02*
X150388000Y-89835000D01*
%TO.C,SW3*%
X120400530Y-93980000D02*
G75*
G03*
X120400530Y-93980000I-1782530J0D01*
G01*
X121618000Y-95250000D02*
X121618000Y-92710000D01*
X119888000Y-96980000D02*
X121618000Y-95250000D01*
X117348000Y-96980000D02*
X119888000Y-96980000D01*
X115618000Y-95250000D02*
X117348000Y-96980000D01*
X115618000Y-92710000D02*
X115618000Y-95250000D01*
X117348000Y-90980000D02*
X115618000Y-92710000D01*
X119888000Y-90980000D02*
X117348000Y-90980000D01*
X121618000Y-92710000D02*
X119888000Y-90980000D01*
D14*
%TO.C,U1*%
X154178000Y-81280000D02*
X169418000Y-81280000D01*
X154178000Y-93980000D02*
X154178000Y-81280000D01*
X169418000Y-93980000D02*
X154178000Y-93980000D01*
X169418000Y-81280000D02*
X169418000Y-93980000D01*
D13*
%TO.C,J8*%
X113328000Y-122230000D02*
X114578000Y-122230000D01*
X113328000Y-120980000D02*
X113328000Y-122230000D01*
X118828000Y-115080000D02*
X118828000Y-118130000D01*
X115878000Y-115080000D02*
X118828000Y-115080000D01*
X115878000Y-114330000D02*
X115878000Y-115080000D01*
X118828000Y-121180000D02*
X118828000Y-118130000D01*
X115878000Y-121180000D02*
X118828000Y-121180000D01*
X115878000Y-121930000D02*
X115878000Y-121180000D01*
X113628000Y-114330000D02*
X113628000Y-116130000D01*
X114378000Y-114330000D02*
X113628000Y-114330000D01*
X114378000Y-116130000D02*
X114378000Y-114330000D01*
X113628000Y-116130000D02*
X114378000Y-116130000D01*
X113628000Y-120130000D02*
X113628000Y-121930000D01*
X114378000Y-120130000D02*
X113628000Y-120130000D01*
X114378000Y-121930000D02*
X114378000Y-120130000D01*
X113628000Y-121930000D02*
X114378000Y-121930000D01*
X113628000Y-117630000D02*
X113628000Y-118630000D01*
X114378000Y-117630000D02*
X113628000Y-117630000D01*
X114378000Y-118630000D02*
X114378000Y-117630000D01*
X113628000Y-118630000D02*
X114378000Y-118630000D01*
X113618000Y-114320000D02*
X113618000Y-121940000D01*
X119588000Y-114320000D02*
X113618000Y-114320000D01*
X119588000Y-121940000D02*
X119588000Y-114320000D01*
X113618000Y-121940000D02*
X119588000Y-121940000D01*
%TO.C,C1*%
X124513000Y-118394775D02*
X125013000Y-118394775D01*
X124763000Y-118644775D02*
X124763000Y-118144775D01*
X125954000Y-113239000D02*
X126522000Y-113239000D01*
X125720000Y-113279000D02*
X126756000Y-113279000D01*
X125561000Y-113319000D02*
X126915000Y-113319000D01*
X125433000Y-113359000D02*
X127043000Y-113359000D01*
X125323000Y-113399000D02*
X127153000Y-113399000D01*
X125227000Y-113439000D02*
X127249000Y-113439000D01*
X125140000Y-113479000D02*
X127336000Y-113479000D01*
X125060000Y-113519000D02*
X127416000Y-113519000D01*
X124987000Y-113559000D02*
X127489000Y-113559000D01*
X124919000Y-113599000D02*
X127557000Y-113599000D01*
X124855000Y-113639000D02*
X127621000Y-113639000D01*
X124795000Y-113679000D02*
X127681000Y-113679000D01*
X124738000Y-113719000D02*
X127738000Y-113719000D01*
X124684000Y-113759000D02*
X127792000Y-113759000D01*
X124633000Y-113799000D02*
X127843000Y-113799000D01*
X127278000Y-113839000D02*
X127891000Y-113839000D01*
X124585000Y-113839000D02*
X125198000Y-113839000D01*
X127278000Y-113879000D02*
X127937000Y-113879000D01*
X124539000Y-113879000D02*
X125198000Y-113879000D01*
X127278000Y-113919000D02*
X127981000Y-113919000D01*
X124495000Y-113919000D02*
X125198000Y-113919000D01*
X127278000Y-113959000D02*
X128023000Y-113959000D01*
X124453000Y-113959000D02*
X125198000Y-113959000D01*
X127278000Y-113999000D02*
X128064000Y-113999000D01*
X124412000Y-113999000D02*
X125198000Y-113999000D01*
X127278000Y-114039000D02*
X128102000Y-114039000D01*
X124374000Y-114039000D02*
X125198000Y-114039000D01*
X127278000Y-114079000D02*
X128139000Y-114079000D01*
X124337000Y-114079000D02*
X125198000Y-114079000D01*
X127278000Y-114119000D02*
X128175000Y-114119000D01*
X124301000Y-114119000D02*
X125198000Y-114119000D01*
X127278000Y-114159000D02*
X128209000Y-114159000D01*
X124267000Y-114159000D02*
X125198000Y-114159000D01*
X127278000Y-114199000D02*
X128242000Y-114199000D01*
X124234000Y-114199000D02*
X125198000Y-114199000D01*
X127278000Y-114239000D02*
X128273000Y-114239000D01*
X124203000Y-114239000D02*
X125198000Y-114239000D01*
X127278000Y-114279000D02*
X128303000Y-114279000D01*
X124173000Y-114279000D02*
X125198000Y-114279000D01*
X127278000Y-114319000D02*
X128333000Y-114319000D01*
X124143000Y-114319000D02*
X125198000Y-114319000D01*
X127278000Y-114359000D02*
X128360000Y-114359000D01*
X124116000Y-114359000D02*
X125198000Y-114359000D01*
X127278000Y-114399000D02*
X128387000Y-114399000D01*
X124089000Y-114399000D02*
X125198000Y-114399000D01*
X127278000Y-114439000D02*
X128413000Y-114439000D01*
X124063000Y-114439000D02*
X125198000Y-114439000D01*
X127278000Y-114479000D02*
X128438000Y-114479000D01*
X124038000Y-114479000D02*
X125198000Y-114479000D01*
X127278000Y-114519000D02*
X128462000Y-114519000D01*
X124014000Y-114519000D02*
X125198000Y-114519000D01*
X127278000Y-114559000D02*
X128485000Y-114559000D01*
X123991000Y-114559000D02*
X125198000Y-114559000D01*
X127278000Y-114599000D02*
X128506000Y-114599000D01*
X123970000Y-114599000D02*
X125198000Y-114599000D01*
X127278000Y-114639000D02*
X128528000Y-114639000D01*
X123948000Y-114639000D02*
X125198000Y-114639000D01*
X127278000Y-114679000D02*
X128548000Y-114679000D01*
X123928000Y-114679000D02*
X125198000Y-114679000D01*
X127278000Y-114719000D02*
X128567000Y-114719000D01*
X123909000Y-114719000D02*
X125198000Y-114719000D01*
X127278000Y-114759000D02*
X128586000Y-114759000D01*
X123890000Y-114759000D02*
X125198000Y-114759000D01*
X127278000Y-114799000D02*
X128603000Y-114799000D01*
X123873000Y-114799000D02*
X125198000Y-114799000D01*
X127278000Y-114839000D02*
X128620000Y-114839000D01*
X123856000Y-114839000D02*
X125198000Y-114839000D01*
X127278000Y-114879000D02*
X128636000Y-114879000D01*
X123840000Y-114879000D02*
X125198000Y-114879000D01*
X127278000Y-114919000D02*
X128652000Y-114919000D01*
X123824000Y-114919000D02*
X125198000Y-114919000D01*
X127278000Y-114959000D02*
X128666000Y-114959000D01*
X123810000Y-114959000D02*
X125198000Y-114959000D01*
X127278000Y-114999000D02*
X128680000Y-114999000D01*
X123796000Y-114999000D02*
X125198000Y-114999000D01*
X127278000Y-115039000D02*
X128693000Y-115039000D01*
X123783000Y-115039000D02*
X125198000Y-115039000D01*
X127278000Y-115079000D02*
X128706000Y-115079000D01*
X123770000Y-115079000D02*
X125198000Y-115079000D01*
X127278000Y-115119000D02*
X128718000Y-115119000D01*
X123758000Y-115119000D02*
X125198000Y-115119000D01*
X127278000Y-115160000D02*
X128729000Y-115160000D01*
X123747000Y-115160000D02*
X125198000Y-115160000D01*
X127278000Y-115200000D02*
X128739000Y-115200000D01*
X123737000Y-115200000D02*
X125198000Y-115200000D01*
X127278000Y-115240000D02*
X128749000Y-115240000D01*
X123727000Y-115240000D02*
X125198000Y-115240000D01*
X127278000Y-115280000D02*
X128758000Y-115280000D01*
X123718000Y-115280000D02*
X125198000Y-115280000D01*
X127278000Y-115320000D02*
X128766000Y-115320000D01*
X123710000Y-115320000D02*
X125198000Y-115320000D01*
X127278000Y-115360000D02*
X128774000Y-115360000D01*
X123702000Y-115360000D02*
X125198000Y-115360000D01*
X127278000Y-115400000D02*
X128781000Y-115400000D01*
X123695000Y-115400000D02*
X125198000Y-115400000D01*
X127278000Y-115440000D02*
X128788000Y-115440000D01*
X123688000Y-115440000D02*
X125198000Y-115440000D01*
X127278000Y-115480000D02*
X128794000Y-115480000D01*
X123682000Y-115480000D02*
X125198000Y-115480000D01*
X127278000Y-115520000D02*
X128799000Y-115520000D01*
X123677000Y-115520000D02*
X125198000Y-115520000D01*
X127278000Y-115560000D02*
X128803000Y-115560000D01*
X123673000Y-115560000D02*
X125198000Y-115560000D01*
X127278000Y-115600000D02*
X128807000Y-115600000D01*
X123669000Y-115600000D02*
X125198000Y-115600000D01*
X127278000Y-115640000D02*
X128811000Y-115640000D01*
X123665000Y-115640000D02*
X125198000Y-115640000D01*
X127278000Y-115680000D02*
X128814000Y-115680000D01*
X123662000Y-115680000D02*
X125198000Y-115680000D01*
X127278000Y-115720000D02*
X128816000Y-115720000D01*
X123660000Y-115720000D02*
X125198000Y-115720000D01*
X127278000Y-115760000D02*
X128817000Y-115760000D01*
X123659000Y-115760000D02*
X125198000Y-115760000D01*
X123658000Y-115800000D02*
X125198000Y-115800000D01*
X127278000Y-115800000D02*
X128818000Y-115800000D01*
X123658000Y-115840000D02*
X125198000Y-115840000D01*
X127278000Y-115840000D02*
X128818000Y-115840000D01*
X128858000Y-115840000D02*
G75*
G03*
X128858000Y-115840000I-2620000J0D01*
G01*
%TO.C,J7*%
X155238000Y-117785000D02*
X156488000Y-117785000D01*
X155238000Y-116535000D02*
X155238000Y-117785000D01*
X160738000Y-100635000D02*
X160738000Y-108685000D01*
X157788000Y-100635000D02*
X160738000Y-100635000D01*
X157788000Y-99885000D02*
X157788000Y-100635000D01*
X160738000Y-116735000D02*
X160738000Y-108685000D01*
X157788000Y-116735000D02*
X160738000Y-116735000D01*
X157788000Y-117485000D02*
X157788000Y-116735000D01*
X155538000Y-99885000D02*
X155538000Y-101685000D01*
X156288000Y-99885000D02*
X155538000Y-99885000D01*
X156288000Y-101685000D02*
X156288000Y-99885000D01*
X155538000Y-101685000D02*
X156288000Y-101685000D01*
X155538000Y-115685000D02*
X155538000Y-117485000D01*
X156288000Y-115685000D02*
X155538000Y-115685000D01*
X156288000Y-117485000D02*
X156288000Y-115685000D01*
X155538000Y-117485000D02*
X156288000Y-117485000D01*
X155538000Y-103185000D02*
X155538000Y-114185000D01*
X156288000Y-103185000D02*
X155538000Y-103185000D01*
X156288000Y-114185000D02*
X156288000Y-103185000D01*
X155538000Y-114185000D02*
X156288000Y-114185000D01*
X155528000Y-99875000D02*
X155528000Y-117495000D01*
X161498000Y-99875000D02*
X155528000Y-99875000D01*
X161498000Y-117495000D02*
X161498000Y-99875000D01*
X155528000Y-117495000D02*
X161498000Y-117495000D01*
%TO.C,J6*%
X166183000Y-102810000D02*
X167513000Y-102810000D01*
X166183000Y-104140000D02*
X166183000Y-102810000D01*
X168783000Y-102810000D02*
X171383000Y-102810000D01*
X168783000Y-105410000D02*
X168783000Y-102810000D01*
X166183000Y-105410000D02*
X168783000Y-105410000D01*
X171383000Y-102810000D02*
X171383000Y-115630000D01*
X166183000Y-105410000D02*
X166183000Y-115630000D01*
X166183000Y-115630000D02*
X171383000Y-115630000D01*
%TO.C,SW1*%
X115618000Y-81280000D02*
X117348000Y-83010000D01*
X117348000Y-83010000D02*
X119888000Y-83010000D01*
X119888000Y-83010000D02*
X121618000Y-81280000D01*
X121618000Y-81280000D02*
X121618000Y-78740000D01*
X121618000Y-78740000D02*
X119888000Y-77010000D01*
X119888000Y-77010000D02*
X117348000Y-77010000D01*
X117348000Y-77010000D02*
X115618000Y-78740000D01*
X115618000Y-78740000D02*
X115618000Y-81280000D01*
X120400530Y-80010000D02*
G75*
G03*
X120400530Y-80010000I-1782530J0D01*
G01*
%TO.C,SW2*%
X115618000Y-88265000D02*
X117348000Y-89995000D01*
X117348000Y-89995000D02*
X119888000Y-89995000D01*
X119888000Y-89995000D02*
X121618000Y-88265000D01*
X121618000Y-88265000D02*
X121618000Y-85725000D01*
X121618000Y-85725000D02*
X119888000Y-83995000D01*
X119888000Y-83995000D02*
X117348000Y-83995000D01*
X117348000Y-83995000D02*
X115618000Y-85725000D01*
X115618000Y-85725000D02*
X115618000Y-88265000D01*
X120400530Y-86995000D02*
G75*
G03*
X120400530Y-86995000I-1782530J0D01*
G01*
D11*
%TO.C,P1*%
X137388000Y-122275000D02*
X137388000Y-125375000D01*
X138938000Y-122275000D02*
X137388000Y-122275000D01*
X140208000Y-125095000D02*
X140208000Y-122555000D01*
X137388000Y-125375000D02*
X138938000Y-125375000D01*
X157988000Y-122555000D02*
X140208000Y-122555000D01*
X157988000Y-125095000D02*
X157988000Y-122555000D01*
X140208000Y-125095000D02*
X157988000Y-125095000D01*
%TO.C,P2*%
X160248000Y-122275000D02*
X160248000Y-125375000D01*
X161798000Y-122275000D02*
X160248000Y-122275000D01*
X163068000Y-125095000D02*
X163068000Y-122555000D01*
X160248000Y-125375000D02*
X161798000Y-125375000D01*
X175768000Y-122555000D02*
X163068000Y-122555000D01*
X175768000Y-125095000D02*
X175768000Y-122555000D01*
X163068000Y-125095000D02*
X175768000Y-125095000D01*
%TO.C,P3*%
X128244000Y-74015000D02*
X128244000Y-77115000D01*
X129794000Y-74015000D02*
X128244000Y-74015000D01*
X131064000Y-76835000D02*
X131064000Y-74295000D01*
X128244000Y-77115000D02*
X129794000Y-77115000D01*
X153924000Y-74295000D02*
X131064000Y-74295000D01*
X153924000Y-76835000D02*
X153924000Y-74295000D01*
X131064000Y-76835000D02*
X153924000Y-76835000D01*
%TO.C,P4*%
X155168000Y-74015000D02*
X155168000Y-77115000D01*
X156718000Y-74015000D02*
X155168000Y-74015000D01*
X157988000Y-76835000D02*
X157988000Y-74295000D01*
X155168000Y-77115000D02*
X156718000Y-77115000D01*
X175768000Y-74295000D02*
X157988000Y-74295000D01*
X175768000Y-76835000D02*
X175768000Y-74295000D01*
X157988000Y-76835000D02*
X175768000Y-76835000D01*
%TO.C,P5*%
X127254000Y-123825000D02*
G75*
G03*
X127254000Y-123825000I-2286000J0D01*
G01*
%TO.C,P6*%
X179324000Y-118745000D02*
G75*
G03*
X179324000Y-118745000I-2286000J0D01*
G01*
%TO.C,P7*%
X128524000Y-75565000D02*
G75*
G03*
X128524000Y-75565000I-2286000J0D01*
G01*
%TO.C,P8*%
X179324000Y-90805000D02*
G75*
G03*
X179324000Y-90805000I-2286000J0D01*
G01*
D13*
%TO.C,J1*%
X113618000Y-111145000D02*
X119588000Y-111145000D01*
X119588000Y-111145000D02*
X119588000Y-98525000D01*
X119588000Y-98525000D02*
X113618000Y-98525000D01*
X113618000Y-98525000D02*
X113618000Y-111145000D01*
X113628000Y-107835000D02*
X114378000Y-107835000D01*
X114378000Y-107835000D02*
X114378000Y-101835000D01*
X114378000Y-101835000D02*
X113628000Y-101835000D01*
X113628000Y-101835000D02*
X113628000Y-107835000D01*
X113628000Y-111135000D02*
X114378000Y-111135000D01*
X114378000Y-111135000D02*
X114378000Y-109335000D01*
X114378000Y-109335000D02*
X113628000Y-109335000D01*
X113628000Y-109335000D02*
X113628000Y-111135000D01*
X113628000Y-100335000D02*
X114378000Y-100335000D01*
X114378000Y-100335000D02*
X114378000Y-98535000D01*
X114378000Y-98535000D02*
X113628000Y-98535000D01*
X113628000Y-98535000D02*
X113628000Y-100335000D01*
X115878000Y-111135000D02*
X115878000Y-110385000D01*
X115878000Y-110385000D02*
X118828000Y-110385000D01*
X118828000Y-110385000D02*
X118828000Y-104835000D01*
X115878000Y-98535000D02*
X115878000Y-99285000D01*
X115878000Y-99285000D02*
X118828000Y-99285000D01*
X118828000Y-99285000D02*
X118828000Y-104835000D01*
X113328000Y-110185000D02*
X113328000Y-111435000D01*
X113328000Y-111435000D02*
X114578000Y-111435000D01*
%TO.C,J2*%
X121583000Y-111435000D02*
X122833000Y-111435000D01*
X121583000Y-110185000D02*
X121583000Y-111435000D01*
X127083000Y-99285000D02*
X127083000Y-104835000D01*
X124133000Y-99285000D02*
X127083000Y-99285000D01*
X124133000Y-98535000D02*
X124133000Y-99285000D01*
X127083000Y-110385000D02*
X127083000Y-104835000D01*
X124133000Y-110385000D02*
X127083000Y-110385000D01*
X124133000Y-111135000D02*
X124133000Y-110385000D01*
X121883000Y-98535000D02*
X121883000Y-100335000D01*
X122633000Y-98535000D02*
X121883000Y-98535000D01*
X122633000Y-100335000D02*
X122633000Y-98535000D01*
X121883000Y-100335000D02*
X122633000Y-100335000D01*
X121883000Y-109335000D02*
X121883000Y-111135000D01*
X122633000Y-109335000D02*
X121883000Y-109335000D01*
X122633000Y-111135000D02*
X122633000Y-109335000D01*
X121883000Y-111135000D02*
X122633000Y-111135000D01*
X121883000Y-101835000D02*
X121883000Y-107835000D01*
X122633000Y-101835000D02*
X121883000Y-101835000D01*
X122633000Y-107835000D02*
X122633000Y-101835000D01*
X121883000Y-107835000D02*
X122633000Y-107835000D01*
X121873000Y-98525000D02*
X121873000Y-111145000D01*
X127843000Y-98525000D02*
X121873000Y-98525000D01*
X127843000Y-111145000D02*
X127843000Y-98525000D01*
X121873000Y-111145000D02*
X127843000Y-111145000D01*
%TO.C,J3*%
X130128000Y-111145000D02*
X136098000Y-111145000D01*
X136098000Y-111145000D02*
X136098000Y-98525000D01*
X136098000Y-98525000D02*
X130128000Y-98525000D01*
X130128000Y-98525000D02*
X130128000Y-111145000D01*
X130138000Y-107835000D02*
X130888000Y-107835000D01*
X130888000Y-107835000D02*
X130888000Y-101835000D01*
X130888000Y-101835000D02*
X130138000Y-101835000D01*
X130138000Y-101835000D02*
X130138000Y-107835000D01*
X130138000Y-111135000D02*
X130888000Y-111135000D01*
X130888000Y-111135000D02*
X130888000Y-109335000D01*
X130888000Y-109335000D02*
X130138000Y-109335000D01*
X130138000Y-109335000D02*
X130138000Y-111135000D01*
X130138000Y-100335000D02*
X130888000Y-100335000D01*
X130888000Y-100335000D02*
X130888000Y-98535000D01*
X130888000Y-98535000D02*
X130138000Y-98535000D01*
X130138000Y-98535000D02*
X130138000Y-100335000D01*
X132388000Y-111135000D02*
X132388000Y-110385000D01*
X132388000Y-110385000D02*
X135338000Y-110385000D01*
X135338000Y-110385000D02*
X135338000Y-104835000D01*
X132388000Y-98535000D02*
X132388000Y-99285000D01*
X132388000Y-99285000D02*
X135338000Y-99285000D01*
X135338000Y-99285000D02*
X135338000Y-104835000D01*
X129838000Y-110185000D02*
X129838000Y-111435000D01*
X129838000Y-111435000D02*
X131088000Y-111435000D01*
%TO.C,J4*%
X138093000Y-111435000D02*
X139343000Y-111435000D01*
X138093000Y-110185000D02*
X138093000Y-111435000D01*
X143593000Y-99285000D02*
X143593000Y-104835000D01*
X140643000Y-99285000D02*
X143593000Y-99285000D01*
X140643000Y-98535000D02*
X140643000Y-99285000D01*
X143593000Y-110385000D02*
X143593000Y-104835000D01*
X140643000Y-110385000D02*
X143593000Y-110385000D01*
X140643000Y-111135000D02*
X140643000Y-110385000D01*
X138393000Y-98535000D02*
X138393000Y-100335000D01*
X139143000Y-98535000D02*
X138393000Y-98535000D01*
X139143000Y-100335000D02*
X139143000Y-98535000D01*
X138393000Y-100335000D02*
X139143000Y-100335000D01*
X138393000Y-109335000D02*
X138393000Y-111135000D01*
X139143000Y-109335000D02*
X138393000Y-109335000D01*
X139143000Y-111135000D02*
X139143000Y-109335000D01*
X138393000Y-111135000D02*
X139143000Y-111135000D01*
X138393000Y-101835000D02*
X138393000Y-107835000D01*
X139143000Y-101835000D02*
X138393000Y-101835000D01*
X139143000Y-107835000D02*
X139143000Y-101835000D01*
X138393000Y-107835000D02*
X139143000Y-107835000D01*
X138383000Y-98525000D02*
X138383000Y-111145000D01*
X144353000Y-98525000D02*
X138383000Y-98525000D01*
X144353000Y-111145000D02*
X144353000Y-98525000D01*
X138383000Y-111145000D02*
X144353000Y-111145000D01*
%TO.C,C4*%
D11*
X172426333Y-94972142D02*
X172378714Y-95019761D01*
X172235857Y-95067380D01*
X172140619Y-95067380D01*
X171997761Y-95019761D01*
X171902523Y-94924523D01*
X171854904Y-94829285D01*
X171807285Y-94638809D01*
X171807285Y-94495952D01*
X171854904Y-94305476D01*
X171902523Y-94210238D01*
X171997761Y-94115000D01*
X172140619Y-94067380D01*
X172235857Y-94067380D01*
X172378714Y-94115000D01*
X172426333Y-94162619D01*
X173283476Y-94400714D02*
X173283476Y-95067380D01*
X173045380Y-94019761D02*
X172807285Y-94734047D01*
X173426333Y-94734047D01*
X174688714Y-94067380D02*
X174783952Y-94067380D01*
X174879190Y-94115000D01*
X174926809Y-94162619D01*
X174974428Y-94257857D01*
X175022047Y-94448333D01*
X175022047Y-94686428D01*
X174974428Y-94876904D01*
X174926809Y-94972142D01*
X174879190Y-95019761D01*
X174783952Y-95067380D01*
X174688714Y-95067380D01*
X174593476Y-95019761D01*
X174545857Y-94972142D01*
X174498238Y-94876904D01*
X174450619Y-94686428D01*
X174450619Y-94448333D01*
X174498238Y-94257857D01*
X174545857Y-94162619D01*
X174593476Y-94115000D01*
X174688714Y-94067380D01*
X175450619Y-94972142D02*
X175498238Y-95019761D01*
X175450619Y-95067380D01*
X175403000Y-95019761D01*
X175450619Y-94972142D01*
X175450619Y-95067380D01*
X176450619Y-95067380D02*
X175879190Y-95067380D01*
X176164904Y-95067380D02*
X176164904Y-94067380D01*
X176069666Y-94210238D01*
X175974428Y-94305476D01*
X175879190Y-94353095D01*
X176879190Y-94400714D02*
X176879190Y-95400714D01*
X177355380Y-94924523D02*
X177403000Y-95019761D01*
X177498238Y-95067380D01*
X176879190Y-94924523D02*
X176926809Y-95019761D01*
X177022047Y-95067380D01*
X177212523Y-95067380D01*
X177307761Y-95019761D01*
X177355380Y-94924523D01*
X177355380Y-94400714D01*
X178260142Y-94543571D02*
X177926809Y-94543571D01*
X177926809Y-95067380D02*
X177926809Y-94067380D01*
X178403000Y-94067380D01*
%TO.C,C3*%
X171791333Y-99417142D02*
X171743714Y-99464761D01*
X171600857Y-99512380D01*
X171505619Y-99512380D01*
X171362761Y-99464761D01*
X171267523Y-99369523D01*
X171219904Y-99274285D01*
X171172285Y-99083809D01*
X171172285Y-98940952D01*
X171219904Y-98750476D01*
X171267523Y-98655238D01*
X171362761Y-98560000D01*
X171505619Y-98512380D01*
X171600857Y-98512380D01*
X171743714Y-98560000D01*
X171791333Y-98607619D01*
X172124666Y-98512380D02*
X172743714Y-98512380D01*
X172410380Y-98893333D01*
X172553238Y-98893333D01*
X172648476Y-98940952D01*
X172696095Y-98988571D01*
X172743714Y-99083809D01*
X172743714Y-99321904D01*
X172696095Y-99417142D01*
X172648476Y-99464761D01*
X172553238Y-99512380D01*
X172267523Y-99512380D01*
X172172285Y-99464761D01*
X172124666Y-99417142D01*
X176855380Y-111402380D02*
X176855380Y-111973809D01*
X176855380Y-111688095D02*
X175855380Y-111688095D01*
X175998238Y-111783333D01*
X176093476Y-111878571D01*
X176141095Y-111973809D01*
X175855380Y-110783333D02*
X175855380Y-110688095D01*
X175903000Y-110592857D01*
X175950619Y-110545238D01*
X176045857Y-110497619D01*
X176236333Y-110450000D01*
X176474428Y-110450000D01*
X176664904Y-110497619D01*
X176760142Y-110545238D01*
X176807761Y-110592857D01*
X176855380Y-110688095D01*
X176855380Y-110783333D01*
X176807761Y-110878571D01*
X176760142Y-110926190D01*
X176664904Y-110973809D01*
X176474428Y-111021428D01*
X176236333Y-111021428D01*
X176045857Y-110973809D01*
X175950619Y-110926190D01*
X175903000Y-110878571D01*
X175855380Y-110783333D01*
X175855380Y-109830952D02*
X175855380Y-109735714D01*
X175903000Y-109640476D01*
X175950619Y-109592857D01*
X176045857Y-109545238D01*
X176236333Y-109497619D01*
X176474428Y-109497619D01*
X176664904Y-109545238D01*
X176760142Y-109592857D01*
X176807761Y-109640476D01*
X176855380Y-109735714D01*
X176855380Y-109830952D01*
X176807761Y-109926190D01*
X176760142Y-109973809D01*
X176664904Y-110021428D01*
X176474428Y-110069047D01*
X176236333Y-110069047D01*
X176045857Y-110021428D01*
X175950619Y-109973809D01*
X175903000Y-109926190D01*
X175855380Y-109830952D01*
X176188714Y-108640476D02*
X176855380Y-108640476D01*
X176188714Y-109069047D02*
X176712523Y-109069047D01*
X176807761Y-109021428D01*
X176855380Y-108926190D01*
X176855380Y-108783333D01*
X176807761Y-108688095D01*
X176760142Y-108640476D01*
X176331571Y-107830952D02*
X176331571Y-108164285D01*
X176855380Y-108164285D02*
X175855380Y-108164285D01*
X175855380Y-107688095D01*
X175807761Y-106592857D02*
X177093476Y-107450000D01*
X175950619Y-106307142D02*
X175903000Y-106259523D01*
X175855380Y-106164285D01*
X175855380Y-105926190D01*
X175903000Y-105830952D01*
X175950619Y-105783333D01*
X176045857Y-105735714D01*
X176141095Y-105735714D01*
X176283952Y-105783333D01*
X176855380Y-106354761D01*
X176855380Y-105735714D01*
X175855380Y-104830952D02*
X175855380Y-105307142D01*
X176331571Y-105354761D01*
X176283952Y-105307142D01*
X176236333Y-105211904D01*
X176236333Y-104973809D01*
X176283952Y-104878571D01*
X176331571Y-104830952D01*
X176426809Y-104783333D01*
X176664904Y-104783333D01*
X176760142Y-104830952D01*
X176807761Y-104878571D01*
X176855380Y-104973809D01*
X176855380Y-105211904D01*
X176807761Y-105307142D01*
X176760142Y-105354761D01*
X175855380Y-104497619D02*
X176855380Y-104164285D01*
X175855380Y-103830952D01*
%TO.C,C2*%
X135596333Y-115292142D02*
X135548714Y-115339761D01*
X135405857Y-115387380D01*
X135310619Y-115387380D01*
X135167761Y-115339761D01*
X135072523Y-115244523D01*
X135024904Y-115149285D01*
X134977285Y-114958809D01*
X134977285Y-114815952D01*
X135024904Y-114625476D01*
X135072523Y-114530238D01*
X135167761Y-114435000D01*
X135310619Y-114387380D01*
X135405857Y-114387380D01*
X135548714Y-114435000D01*
X135596333Y-114482619D01*
X135977285Y-114482619D02*
X136024904Y-114435000D01*
X136120142Y-114387380D01*
X136358238Y-114387380D01*
X136453476Y-114435000D01*
X136501095Y-114482619D01*
X136548714Y-114577857D01*
X136548714Y-114673095D01*
X136501095Y-114815952D01*
X135929666Y-115387380D01*
X136548714Y-115387380D01*
X137858714Y-114387380D02*
X137953952Y-114387380D01*
X138049190Y-114435000D01*
X138096809Y-114482619D01*
X138144428Y-114577857D01*
X138192047Y-114768333D01*
X138192047Y-115006428D01*
X138144428Y-115196904D01*
X138096809Y-115292142D01*
X138049190Y-115339761D01*
X137953952Y-115387380D01*
X137858714Y-115387380D01*
X137763476Y-115339761D01*
X137715857Y-115292142D01*
X137668238Y-115196904D01*
X137620619Y-115006428D01*
X137620619Y-114768333D01*
X137668238Y-114577857D01*
X137715857Y-114482619D01*
X137763476Y-114435000D01*
X137858714Y-114387380D01*
X138620619Y-115292142D02*
X138668238Y-115339761D01*
X138620619Y-115387380D01*
X138573000Y-115339761D01*
X138620619Y-115292142D01*
X138620619Y-115387380D01*
X139620619Y-115387380D02*
X139049190Y-115387380D01*
X139334904Y-115387380D02*
X139334904Y-114387380D01*
X139239666Y-114530238D01*
X139144428Y-114625476D01*
X139049190Y-114673095D01*
X140049190Y-114720714D02*
X140049190Y-115720714D01*
X140525380Y-115244523D02*
X140573000Y-115339761D01*
X140668238Y-115387380D01*
X140049190Y-115244523D02*
X140096809Y-115339761D01*
X140192047Y-115387380D01*
X140382523Y-115387380D01*
X140477761Y-115339761D01*
X140525380Y-115244523D01*
X140525380Y-114720714D01*
X141430142Y-114863571D02*
X141096809Y-114863571D01*
X141096809Y-115387380D02*
X141096809Y-114387380D01*
X141573000Y-114387380D01*
%TO.C,J9*%
X146270380Y-109058333D02*
X146984666Y-109058333D01*
X147127523Y-109105952D01*
X147222761Y-109201190D01*
X147270380Y-109344047D01*
X147270380Y-109439285D01*
X147270380Y-108534523D02*
X147270380Y-108344047D01*
X147222761Y-108248809D01*
X147175142Y-108201190D01*
X147032285Y-108105952D01*
X146841809Y-108058333D01*
X146460857Y-108058333D01*
X146365619Y-108105952D01*
X146318000Y-108153571D01*
X146270380Y-108248809D01*
X146270380Y-108439285D01*
X146318000Y-108534523D01*
X146365619Y-108582142D01*
X146460857Y-108629761D01*
X146698952Y-108629761D01*
X146794190Y-108582142D01*
X146841809Y-108534523D01*
X146889428Y-108439285D01*
X146889428Y-108248809D01*
X146841809Y-108153571D01*
X146794190Y-108105952D01*
X146698952Y-108058333D01*
X146915166Y-106425500D02*
X146915166Y-105949309D01*
X147200880Y-106520738D02*
X146200880Y-106187404D01*
X147200880Y-105854071D01*
X147200880Y-105520738D02*
X146200880Y-105520738D01*
X147200880Y-104949309D01*
X146200880Y-104949309D01*
X146915166Y-104520738D02*
X146915166Y-104044547D01*
X147200880Y-104615976D02*
X146200880Y-104282642D01*
X147200880Y-103949309D01*
X147200880Y-103139785D02*
X147200880Y-103615976D01*
X146200880Y-103615976D01*
X146200880Y-102615976D02*
X146200880Y-102425500D01*
X146248500Y-102330261D01*
X146343738Y-102235023D01*
X146534214Y-102187404D01*
X146867547Y-102187404D01*
X147058023Y-102235023D01*
X147153261Y-102330261D01*
X147200880Y-102425500D01*
X147200880Y-102615976D01*
X147153261Y-102711214D01*
X147058023Y-102806452D01*
X146867547Y-102854071D01*
X146534214Y-102854071D01*
X146343738Y-102806452D01*
X146248500Y-102711214D01*
X146200880Y-102615976D01*
X146248500Y-101235023D02*
X146200880Y-101330261D01*
X146200880Y-101473119D01*
X146248500Y-101615976D01*
X146343738Y-101711214D01*
X146438976Y-101758833D01*
X146629452Y-101806452D01*
X146772309Y-101806452D01*
X146962785Y-101758833D01*
X147058023Y-101711214D01*
X147153261Y-101615976D01*
X147200880Y-101473119D01*
X147200880Y-101377880D01*
X147153261Y-101235023D01*
X147105642Y-101187404D01*
X146772309Y-101187404D01*
X146772309Y-101377880D01*
X146819928Y-100758833D02*
X146819928Y-99996928D01*
X147200880Y-99520738D02*
X146200880Y-99520738D01*
X147200880Y-99044547D02*
X146200880Y-99044547D01*
X147200880Y-98473119D01*
X146200880Y-98473119D01*
%TO.C,R3*%
X173045380Y-83351666D02*
X172569190Y-83685000D01*
X173045380Y-83923095D02*
X172045380Y-83923095D01*
X172045380Y-83542142D01*
X172093000Y-83446904D01*
X172140619Y-83399285D01*
X172235857Y-83351666D01*
X172378714Y-83351666D01*
X172473952Y-83399285D01*
X172521571Y-83446904D01*
X172569190Y-83542142D01*
X172569190Y-83923095D01*
X172045380Y-83018333D02*
X172045380Y-82399285D01*
X172426333Y-82732619D01*
X172426333Y-82589761D01*
X172473952Y-82494523D01*
X172521571Y-82446904D01*
X172616809Y-82399285D01*
X172854904Y-82399285D01*
X172950142Y-82446904D01*
X172997761Y-82494523D01*
X173045380Y-82589761D01*
X173045380Y-82875476D01*
X172997761Y-82970714D01*
X172950142Y-83018333D01*
%TO.C,R2*%
X128595380Y-84621666D02*
X128119190Y-84955000D01*
X128595380Y-85193095D02*
X127595380Y-85193095D01*
X127595380Y-84812142D01*
X127643000Y-84716904D01*
X127690619Y-84669285D01*
X127785857Y-84621666D01*
X127928714Y-84621666D01*
X128023952Y-84669285D01*
X128071571Y-84716904D01*
X128119190Y-84812142D01*
X128119190Y-85193095D01*
X127690619Y-84240714D02*
X127643000Y-84193095D01*
X127595380Y-84097857D01*
X127595380Y-83859761D01*
X127643000Y-83764523D01*
X127690619Y-83716904D01*
X127785857Y-83669285D01*
X127881095Y-83669285D01*
X128023952Y-83716904D01*
X128595380Y-84288333D01*
X128595380Y-83669285D01*
%TO.C,R1*%
X125166380Y-84748666D02*
X124690190Y-85082000D01*
X125166380Y-85320095D02*
X124166380Y-85320095D01*
X124166380Y-84939142D01*
X124214000Y-84843904D01*
X124261619Y-84796285D01*
X124356857Y-84748666D01*
X124499714Y-84748666D01*
X124594952Y-84796285D01*
X124642571Y-84843904D01*
X124690190Y-84939142D01*
X124690190Y-85320095D01*
X125166380Y-83796285D02*
X125166380Y-84367714D01*
X125166380Y-84082000D02*
X124166380Y-84082000D01*
X124309238Y-84177238D01*
X124404476Y-84272476D01*
X124452095Y-84367714D01*
%TO.C,J5*%
X136064666Y-87717380D02*
X136064666Y-88431666D01*
X136017047Y-88574523D01*
X135921809Y-88669761D01*
X135778952Y-88717380D01*
X135683714Y-88717380D01*
X137017047Y-87717380D02*
X136540857Y-87717380D01*
X136493238Y-88193571D01*
X136540857Y-88145952D01*
X136636095Y-88098333D01*
X136874190Y-88098333D01*
X136969428Y-88145952D01*
X137017047Y-88193571D01*
X137064666Y-88288809D01*
X137064666Y-88526904D01*
X137017047Y-88622142D01*
X136969428Y-88669761D01*
X136874190Y-88717380D01*
X136636095Y-88717380D01*
X136540857Y-88669761D01*
X136493238Y-88622142D01*
X139859190Y-88717380D02*
X139859190Y-87717380D01*
X140287761Y-87812619D02*
X140335380Y-87765000D01*
X140430619Y-87717380D01*
X140668714Y-87717380D01*
X140763952Y-87765000D01*
X140811571Y-87812619D01*
X140859190Y-87907857D01*
X140859190Y-88003095D01*
X140811571Y-88145952D01*
X140240142Y-88717380D01*
X140859190Y-88717380D01*
X141859190Y-88622142D02*
X141811571Y-88669761D01*
X141668714Y-88717380D01*
X141573476Y-88717380D01*
X141430619Y-88669761D01*
X141335380Y-88574523D01*
X141287761Y-88479285D01*
X141240142Y-88288809D01*
X141240142Y-88145952D01*
X141287761Y-87955476D01*
X141335380Y-87860238D01*
X141430619Y-87765000D01*
X141573476Y-87717380D01*
X141668714Y-87717380D01*
X141811571Y-87765000D01*
X141859190Y-87812619D01*
X142287761Y-88336428D02*
X143049666Y-88336428D01*
X143525857Y-88717380D02*
X143525857Y-87717380D01*
X143763952Y-87717380D01*
X143906809Y-87765000D01*
X144002047Y-87860238D01*
X144049666Y-87955476D01*
X144097285Y-88145952D01*
X144097285Y-88288809D01*
X144049666Y-88479285D01*
X144002047Y-88574523D01*
X143906809Y-88669761D01*
X143763952Y-88717380D01*
X143525857Y-88717380D01*
X144954428Y-88050714D02*
X144954428Y-88717380D01*
X144716333Y-87669761D02*
X144478238Y-88384047D01*
X145097285Y-88384047D01*
X145668714Y-87717380D02*
X145763952Y-87717380D01*
X145859190Y-87765000D01*
X145906809Y-87812619D01*
X145954428Y-87907857D01*
X146002047Y-88098333D01*
X146002047Y-88336428D01*
X145954428Y-88526904D01*
X145906809Y-88622142D01*
X145859190Y-88669761D01*
X145763952Y-88717380D01*
X145668714Y-88717380D01*
X145573476Y-88669761D01*
X145525857Y-88622142D01*
X145478238Y-88526904D01*
X145430619Y-88336428D01*
X145430619Y-88098333D01*
X145478238Y-87907857D01*
X145525857Y-87812619D01*
X145573476Y-87765000D01*
X145668714Y-87717380D01*
X146621095Y-87717380D02*
X146716333Y-87717380D01*
X146811571Y-87765000D01*
X146859190Y-87812619D01*
X146906809Y-87907857D01*
X146954428Y-88098333D01*
X146954428Y-88336428D01*
X146906809Y-88526904D01*
X146859190Y-88622142D01*
X146811571Y-88669761D01*
X146716333Y-88717380D01*
X146621095Y-88717380D01*
X146525857Y-88669761D01*
X146478238Y-88622142D01*
X146430619Y-88526904D01*
X146383000Y-88336428D01*
X146383000Y-88098333D01*
X146430619Y-87907857D01*
X146478238Y-87812619D01*
X146525857Y-87765000D01*
X146621095Y-87717380D01*
%TO.C,SW3*%
X117157666Y-94384761D02*
X117300523Y-94432380D01*
X117538619Y-94432380D01*
X117633857Y-94384761D01*
X117681476Y-94337142D01*
X117729095Y-94241904D01*
X117729095Y-94146666D01*
X117681476Y-94051428D01*
X117633857Y-94003809D01*
X117538619Y-93956190D01*
X117348142Y-93908571D01*
X117252904Y-93860952D01*
X117205285Y-93813333D01*
X117157666Y-93718095D01*
X117157666Y-93622857D01*
X117205285Y-93527619D01*
X117252904Y-93480000D01*
X117348142Y-93432380D01*
X117586238Y-93432380D01*
X117729095Y-93480000D01*
X118062428Y-93432380D02*
X118300523Y-94432380D01*
X118491000Y-93718095D01*
X118681476Y-94432380D01*
X118919571Y-93432380D01*
X119205285Y-93432380D02*
X119824333Y-93432380D01*
X119491000Y-93813333D01*
X119633857Y-93813333D01*
X119729095Y-93860952D01*
X119776714Y-93908571D01*
X119824333Y-94003809D01*
X119824333Y-94241904D01*
X119776714Y-94337142D01*
X119729095Y-94384761D01*
X119633857Y-94432380D01*
X119348142Y-94432380D01*
X119252904Y-94384761D01*
X119205285Y-94337142D01*
X112173000Y-92527380D02*
X112173000Y-91527380D01*
X112649190Y-92527380D02*
X112649190Y-91527380D01*
X112982523Y-92241666D01*
X113315857Y-91527380D01*
X113315857Y-92527380D01*
X113839666Y-92527380D02*
X114030142Y-92527380D01*
X114125380Y-92479761D01*
X114173000Y-92432142D01*
X114268238Y-92289285D01*
X114315857Y-92098809D01*
X114315857Y-91717857D01*
X114268238Y-91622619D01*
X114220619Y-91575000D01*
X114125380Y-91527380D01*
X113934904Y-91527380D01*
X113839666Y-91575000D01*
X113792047Y-91622619D01*
X113744428Y-91717857D01*
X113744428Y-91955952D01*
X113792047Y-92051190D01*
X113839666Y-92098809D01*
X113934904Y-92146428D01*
X114125380Y-92146428D01*
X114220619Y-92098809D01*
X114268238Y-92051190D01*
X114315857Y-91955952D01*
X114696809Y-91622619D02*
X114744428Y-91575000D01*
X114839666Y-91527380D01*
X115077761Y-91527380D01*
X115173000Y-91575000D01*
X115220619Y-91622619D01*
X115268238Y-91717857D01*
X115268238Y-91813095D01*
X115220619Y-91955952D01*
X114649190Y-92527380D01*
X115268238Y-92527380D01*
X115887285Y-91527380D02*
X115982523Y-91527380D01*
X116077761Y-91575000D01*
X116125380Y-91622619D01*
X116173000Y-91717857D01*
X116220619Y-91908333D01*
X116220619Y-92146428D01*
X116173000Y-92336904D01*
X116125380Y-92432142D01*
X116077761Y-92479761D01*
X115982523Y-92527380D01*
X115887285Y-92527380D01*
X115792047Y-92479761D01*
X115744428Y-92432142D01*
X115696809Y-92336904D01*
X115649190Y-92146428D01*
X115649190Y-91908333D01*
X115696809Y-91717857D01*
X115744428Y-91622619D01*
X115792047Y-91575000D01*
X115887285Y-91527380D01*
%TO.C,U1*%
D15*
X160385684Y-87255047D02*
X160385684Y-88231738D01*
X160443136Y-88346642D01*
X160500589Y-88404095D01*
X160615493Y-88461547D01*
X160845303Y-88461547D01*
X160960208Y-88404095D01*
X161017660Y-88346642D01*
X161075112Y-88231738D01*
X161075112Y-87255047D01*
X162281612Y-88461547D02*
X161592184Y-88461547D01*
X161936898Y-88461547D02*
X161936898Y-87255047D01*
X161821993Y-87427404D01*
X161707089Y-87542309D01*
X161592184Y-87599761D01*
D16*
X155166422Y-90669784D02*
X155166422Y-90945556D01*
X154587302Y-90945556D01*
X154587302Y-90559476D02*
X155166422Y-90366436D01*
X154587302Y-90173396D01*
X155166422Y-89677007D02*
X155166422Y-90007933D01*
X155166422Y-89842470D02*
X154587302Y-89842470D01*
X154670034Y-89897624D01*
X154725188Y-89952779D01*
X154752765Y-90007933D01*
X157706422Y-90669784D02*
X157706422Y-90945556D01*
X157127302Y-90945556D01*
X157127302Y-90559476D02*
X157706422Y-90366436D01*
X157127302Y-90173396D01*
X157182457Y-90007933D02*
X157154880Y-89980356D01*
X157127302Y-89925202D01*
X157127302Y-89787316D01*
X157154880Y-89732162D01*
X157182457Y-89704584D01*
X157237611Y-89677007D01*
X157292765Y-89677007D01*
X157375497Y-89704584D01*
X157706422Y-90035510D01*
X157706422Y-89677007D01*
X160246422Y-90118242D02*
X160246422Y-90394013D01*
X159667302Y-90394013D01*
X159667302Y-90007933D02*
X160246422Y-89814893D01*
X159667302Y-89621853D01*
X162234880Y-90890402D02*
X162207302Y-90945556D01*
X162207302Y-91028287D01*
X162234880Y-91111019D01*
X162290034Y-91166173D01*
X162345188Y-91193750D01*
X162455497Y-91221327D01*
X162538228Y-91221327D01*
X162648537Y-91193750D01*
X162703691Y-91166173D01*
X162758845Y-91111019D01*
X162786422Y-91028287D01*
X162786422Y-90973133D01*
X162758845Y-90890402D01*
X162731268Y-90862824D01*
X162538228Y-90862824D01*
X162538228Y-90973133D01*
X162786422Y-90614630D02*
X162207302Y-90614630D01*
X162786422Y-90283704D01*
X162207302Y-90283704D01*
X162786422Y-90007933D02*
X162207302Y-90007933D01*
X162207302Y-89870047D01*
X162234880Y-89787316D01*
X162290034Y-89732162D01*
X162345188Y-89704584D01*
X162455497Y-89677007D01*
X162538228Y-89677007D01*
X162648537Y-89704584D01*
X162703691Y-89732162D01*
X162758845Y-89787316D01*
X162786422Y-89870047D01*
X162786422Y-90007933D01*
X165326422Y-90669784D02*
X165326422Y-90945556D01*
X164747302Y-90945556D01*
X164747302Y-90559476D02*
X165326422Y-90366436D01*
X164747302Y-90173396D01*
X164747302Y-90035510D02*
X164747302Y-89677007D01*
X164967920Y-89870047D01*
X164967920Y-89787316D01*
X164995497Y-89732162D01*
X165023074Y-89704584D01*
X165078228Y-89677007D01*
X165216114Y-89677007D01*
X165271268Y-89704584D01*
X165298845Y-89732162D01*
X165326422Y-89787316D01*
X165326422Y-89952779D01*
X165298845Y-90007933D01*
X165271268Y-90035510D01*
X167866422Y-90669784D02*
X167866422Y-90945556D01*
X167287302Y-90945556D01*
X167287302Y-90559476D02*
X167866422Y-90366436D01*
X167287302Y-90173396D01*
X167480342Y-89732162D02*
X167866422Y-89732162D01*
X167259725Y-89870047D02*
X167673382Y-90007933D01*
X167673382Y-89649430D01*
X155166422Y-85749442D02*
X154587302Y-85749442D01*
X154863074Y-85749442D02*
X154863074Y-85418516D01*
X155166422Y-85418516D02*
X154587302Y-85418516D01*
X154587302Y-85225476D02*
X155166422Y-85032436D01*
X154587302Y-84839396D01*
X155166422Y-84343007D02*
X155166422Y-84673933D01*
X155166422Y-84508470D02*
X154587302Y-84508470D01*
X154670034Y-84563624D01*
X154725188Y-84618779D01*
X154752765Y-84673933D01*
X157706422Y-85749442D02*
X157127302Y-85749442D01*
X157403074Y-85749442D02*
X157403074Y-85418516D01*
X157706422Y-85418516D02*
X157127302Y-85418516D01*
X157127302Y-85225476D02*
X157706422Y-85032436D01*
X157127302Y-84839396D01*
X157182457Y-84673933D02*
X157154880Y-84646356D01*
X157127302Y-84591202D01*
X157127302Y-84453316D01*
X157154880Y-84398162D01*
X157182457Y-84370584D01*
X157237611Y-84343007D01*
X157292765Y-84343007D01*
X157375497Y-84370584D01*
X157706422Y-84701510D01*
X157706422Y-84343007D01*
X160246422Y-85197899D02*
X159667302Y-85197899D01*
X159943074Y-85197899D02*
X159943074Y-84866973D01*
X160246422Y-84866973D02*
X159667302Y-84866973D01*
X159667302Y-84673933D02*
X160246422Y-84480893D01*
X159667302Y-84287853D01*
X162234880Y-85556402D02*
X162207302Y-85611556D01*
X162207302Y-85694287D01*
X162234880Y-85777019D01*
X162290034Y-85832173D01*
X162345188Y-85859750D01*
X162455497Y-85887327D01*
X162538228Y-85887327D01*
X162648537Y-85859750D01*
X162703691Y-85832173D01*
X162758845Y-85777019D01*
X162786422Y-85694287D01*
X162786422Y-85639133D01*
X162758845Y-85556402D01*
X162731268Y-85528824D01*
X162538228Y-85528824D01*
X162538228Y-85639133D01*
X162786422Y-85280630D02*
X162207302Y-85280630D01*
X162786422Y-84949704D01*
X162207302Y-84949704D01*
X162786422Y-84673933D02*
X162207302Y-84673933D01*
X162207302Y-84536047D01*
X162234880Y-84453316D01*
X162290034Y-84398162D01*
X162345188Y-84370584D01*
X162455497Y-84343007D01*
X162538228Y-84343007D01*
X162648537Y-84370584D01*
X162703691Y-84398162D01*
X162758845Y-84453316D01*
X162786422Y-84536047D01*
X162786422Y-84673933D01*
X165326422Y-85749442D02*
X164747302Y-85749442D01*
X165023074Y-85749442D02*
X165023074Y-85418516D01*
X165326422Y-85418516D02*
X164747302Y-85418516D01*
X164747302Y-85225476D02*
X165326422Y-85032436D01*
X164747302Y-84839396D01*
X164747302Y-84701510D02*
X164747302Y-84343007D01*
X164967920Y-84536047D01*
X164967920Y-84453316D01*
X164995497Y-84398162D01*
X165023074Y-84370584D01*
X165078228Y-84343007D01*
X165216114Y-84343007D01*
X165271268Y-84370584D01*
X165298845Y-84398162D01*
X165326422Y-84453316D01*
X165326422Y-84618779D01*
X165298845Y-84673933D01*
X165271268Y-84701510D01*
X167866422Y-85749442D02*
X167287302Y-85749442D01*
X167563074Y-85749442D02*
X167563074Y-85418516D01*
X167866422Y-85418516D02*
X167287302Y-85418516D01*
X167287302Y-85225476D02*
X167866422Y-85032436D01*
X167287302Y-84839396D01*
X167480342Y-84398162D02*
X167866422Y-84398162D01*
X167259725Y-84536047D02*
X167673382Y-84673933D01*
X167673382Y-84315430D01*
%TO.C,J8*%
D11*
X113014166Y-122642380D02*
X113014166Y-123356666D01*
X112966547Y-123499523D01*
X112871309Y-123594761D01*
X112728452Y-123642380D01*
X112633214Y-123642380D01*
X113633214Y-123070952D02*
X113537976Y-123023333D01*
X113490357Y-122975714D01*
X113442738Y-122880476D01*
X113442738Y-122832857D01*
X113490357Y-122737619D01*
X113537976Y-122690000D01*
X113633214Y-122642380D01*
X113823690Y-122642380D01*
X113918928Y-122690000D01*
X113966547Y-122737619D01*
X114014166Y-122832857D01*
X114014166Y-122880476D01*
X113966547Y-122975714D01*
X113918928Y-123023333D01*
X113823690Y-123070952D01*
X113633214Y-123070952D01*
X113537976Y-123118571D01*
X113490357Y-123166190D01*
X113442738Y-123261428D01*
X113442738Y-123451904D01*
X113490357Y-123547142D01*
X113537976Y-123594761D01*
X113633214Y-123642380D01*
X113823690Y-123642380D01*
X113918928Y-123594761D01*
X113966547Y-123547142D01*
X114014166Y-123451904D01*
X114014166Y-123261428D01*
X113966547Y-123166190D01*
X113918928Y-123118571D01*
X113823690Y-123070952D01*
X115125857Y-123642380D02*
X115125857Y-122642380D01*
X115506809Y-122642380D01*
X115602047Y-122690000D01*
X115649666Y-122737619D01*
X115697285Y-122832857D01*
X115697285Y-122975714D01*
X115649666Y-123070952D01*
X115602047Y-123118571D01*
X115506809Y-123166190D01*
X115125857Y-123166190D01*
X116030619Y-122642380D02*
X116268714Y-123642380D01*
X116459190Y-122928095D01*
X116649666Y-123642380D01*
X116887761Y-122642380D01*
X117840142Y-123642380D02*
X117506809Y-123166190D01*
X117268714Y-123642380D02*
X117268714Y-122642380D01*
X117649666Y-122642380D01*
X117744904Y-122690000D01*
X117792523Y-122737619D01*
X117840142Y-122832857D01*
X117840142Y-122975714D01*
X117792523Y-123070952D01*
X117744904Y-123118571D01*
X117649666Y-123166190D01*
X117268714Y-123166190D01*
X118268714Y-123261428D02*
X119030619Y-123261428D01*
X118649666Y-123642380D02*
X118649666Y-122880476D01*
X119983000Y-122642380D02*
X119506809Y-122642380D01*
X119459190Y-123118571D01*
X119506809Y-123070952D01*
X119602047Y-123023333D01*
X119840142Y-123023333D01*
X119935380Y-123070952D01*
X119983000Y-123118571D01*
X120030619Y-123213809D01*
X120030619Y-123451904D01*
X119983000Y-123547142D01*
X119935380Y-123594761D01*
X119840142Y-123642380D01*
X119602047Y-123642380D01*
X119506809Y-123594761D01*
X119459190Y-123547142D01*
X120316333Y-122642380D02*
X120649666Y-123642380D01*
X120983000Y-122642380D01*
%TO.C,C1*%
X122896333Y-114022142D02*
X122848714Y-114069761D01*
X122705857Y-114117380D01*
X122610619Y-114117380D01*
X122467761Y-114069761D01*
X122372523Y-113974523D01*
X122324904Y-113879285D01*
X122277285Y-113688809D01*
X122277285Y-113545952D01*
X122324904Y-113355476D01*
X122372523Y-113260238D01*
X122467761Y-113165000D01*
X122610619Y-113117380D01*
X122705857Y-113117380D01*
X122848714Y-113165000D01*
X122896333Y-113212619D01*
X123848714Y-114117380D02*
X123277285Y-114117380D01*
X123563000Y-114117380D02*
X123563000Y-113117380D01*
X123467761Y-113260238D01*
X123372523Y-113355476D01*
X123277285Y-113403095D01*
X122785619Y-119832380D02*
X122214190Y-119832380D01*
X122499904Y-119832380D02*
X122499904Y-118832380D01*
X122404666Y-118975238D01*
X122309428Y-119070476D01*
X122214190Y-119118095D01*
X123404666Y-118832380D02*
X123499904Y-118832380D01*
X123595142Y-118880000D01*
X123642761Y-118927619D01*
X123690380Y-119022857D01*
X123738000Y-119213333D01*
X123738000Y-119451428D01*
X123690380Y-119641904D01*
X123642761Y-119737142D01*
X123595142Y-119784761D01*
X123499904Y-119832380D01*
X123404666Y-119832380D01*
X123309428Y-119784761D01*
X123261809Y-119737142D01*
X123214190Y-119641904D01*
X123166571Y-119451428D01*
X123166571Y-119213333D01*
X123214190Y-119022857D01*
X123261809Y-118927619D01*
X123309428Y-118880000D01*
X123404666Y-118832380D01*
X124357047Y-118832380D02*
X124452285Y-118832380D01*
X124547523Y-118880000D01*
X124595142Y-118927619D01*
X124642761Y-119022857D01*
X124690380Y-119213333D01*
X124690380Y-119451428D01*
X124642761Y-119641904D01*
X124595142Y-119737142D01*
X124547523Y-119784761D01*
X124452285Y-119832380D01*
X124357047Y-119832380D01*
X124261809Y-119784761D01*
X124214190Y-119737142D01*
X124166571Y-119641904D01*
X124118952Y-119451428D01*
X124118952Y-119213333D01*
X124166571Y-119022857D01*
X124214190Y-118927619D01*
X124261809Y-118880000D01*
X124357047Y-118832380D01*
X125547523Y-119165714D02*
X125547523Y-119832380D01*
X125118952Y-119165714D02*
X125118952Y-119689523D01*
X125166571Y-119784761D01*
X125261809Y-119832380D01*
X125404666Y-119832380D01*
X125499904Y-119784761D01*
X125547523Y-119737142D01*
X126357047Y-119308571D02*
X126023714Y-119308571D01*
X126023714Y-119832380D02*
X126023714Y-118832380D01*
X126499904Y-118832380D01*
X127595142Y-118784761D02*
X126738000Y-120070476D01*
X127880857Y-118927619D02*
X127928476Y-118880000D01*
X128023714Y-118832380D01*
X128261809Y-118832380D01*
X128357047Y-118880000D01*
X128404666Y-118927619D01*
X128452285Y-119022857D01*
X128452285Y-119118095D01*
X128404666Y-119260952D01*
X127833238Y-119832380D01*
X128452285Y-119832380D01*
X129357047Y-118832380D02*
X128880857Y-118832380D01*
X128833238Y-119308571D01*
X128880857Y-119260952D01*
X128976095Y-119213333D01*
X129214190Y-119213333D01*
X129309428Y-119260952D01*
X129357047Y-119308571D01*
X129404666Y-119403809D01*
X129404666Y-119641904D01*
X129357047Y-119737142D01*
X129309428Y-119784761D01*
X129214190Y-119832380D01*
X128976095Y-119832380D01*
X128880857Y-119784761D01*
X128833238Y-119737142D01*
X129690380Y-118832380D02*
X130023714Y-119832380D01*
X130357047Y-118832380D01*
%TO.C,J7*%
X155114666Y-97877380D02*
X155114666Y-98591666D01*
X155067047Y-98734523D01*
X154971809Y-98829761D01*
X154828952Y-98877380D01*
X154733714Y-98877380D01*
X155495619Y-97877380D02*
X156162285Y-97877380D01*
X155733714Y-98877380D01*
X157893000Y-98877380D02*
X157893000Y-97877380D01*
X158369190Y-98877380D02*
X158369190Y-97877380D01*
X158702523Y-98591666D01*
X159035857Y-97877380D01*
X159035857Y-98877380D01*
X159559666Y-98877380D02*
X159750142Y-98877380D01*
X159845380Y-98829761D01*
X159893000Y-98782142D01*
X159988238Y-98639285D01*
X160035857Y-98448809D01*
X160035857Y-98067857D01*
X159988238Y-97972619D01*
X159940619Y-97925000D01*
X159845380Y-97877380D01*
X159654904Y-97877380D01*
X159559666Y-97925000D01*
X159512047Y-97972619D01*
X159464428Y-98067857D01*
X159464428Y-98305952D01*
X159512047Y-98401190D01*
X159559666Y-98448809D01*
X159654904Y-98496428D01*
X159845380Y-98496428D01*
X159940619Y-98448809D01*
X159988238Y-98401190D01*
X160035857Y-98305952D01*
X160416809Y-97972619D02*
X160464428Y-97925000D01*
X160559666Y-97877380D01*
X160797761Y-97877380D01*
X160893000Y-97925000D01*
X160940619Y-97972619D01*
X160988238Y-98067857D01*
X160988238Y-98163095D01*
X160940619Y-98305952D01*
X160369190Y-98877380D01*
X160988238Y-98877380D01*
X161607285Y-97877380D02*
X161702523Y-97877380D01*
X161797761Y-97925000D01*
X161845380Y-97972619D01*
X161893000Y-98067857D01*
X161940619Y-98258333D01*
X161940619Y-98496428D01*
X161893000Y-98686904D01*
X161845380Y-98782142D01*
X161797761Y-98829761D01*
X161702523Y-98877380D01*
X161607285Y-98877380D01*
X161512047Y-98829761D01*
X161464428Y-98782142D01*
X161416809Y-98686904D01*
X161369190Y-98496428D01*
X161369190Y-98258333D01*
X161416809Y-98067857D01*
X161464428Y-97972619D01*
X161512047Y-97925000D01*
X161607285Y-97877380D01*
%TO.C,J6*%
X165274666Y-101052380D02*
X165274666Y-101766666D01*
X165227047Y-101909523D01*
X165131809Y-102004761D01*
X164988952Y-102052380D01*
X164893714Y-102052380D01*
X166179428Y-101052380D02*
X165988952Y-101052380D01*
X165893714Y-101100000D01*
X165846095Y-101147619D01*
X165750857Y-101290476D01*
X165703238Y-101480952D01*
X165703238Y-101861904D01*
X165750857Y-101957142D01*
X165798476Y-102004761D01*
X165893714Y-102052380D01*
X166084190Y-102052380D01*
X166179428Y-102004761D01*
X166227047Y-101957142D01*
X166274666Y-101861904D01*
X166274666Y-101623809D01*
X166227047Y-101528571D01*
X166179428Y-101480952D01*
X166084190Y-101433333D01*
X165893714Y-101433333D01*
X165798476Y-101480952D01*
X165750857Y-101528571D01*
X165703238Y-101623809D01*
X167084666Y-101052380D02*
X167322761Y-102052380D01*
X167513238Y-101338095D01*
X167703714Y-102052380D01*
X167941809Y-101052380D01*
X168798952Y-101052380D02*
X168322761Y-101052380D01*
X168275142Y-101528571D01*
X168322761Y-101480952D01*
X168418000Y-101433333D01*
X168656095Y-101433333D01*
X168751333Y-101480952D01*
X168798952Y-101528571D01*
X168846571Y-101623809D01*
X168846571Y-101861904D01*
X168798952Y-101957142D01*
X168751333Y-102004761D01*
X168656095Y-102052380D01*
X168418000Y-102052380D01*
X168322761Y-102004761D01*
X168275142Y-101957142D01*
X169751333Y-101052380D02*
X169275142Y-101052380D01*
X169227523Y-101528571D01*
X169275142Y-101480952D01*
X169370380Y-101433333D01*
X169608476Y-101433333D01*
X169703714Y-101480952D01*
X169751333Y-101528571D01*
X169798952Y-101623809D01*
X169798952Y-101861904D01*
X169751333Y-101957142D01*
X169703714Y-102004761D01*
X169608476Y-102052380D01*
X169370380Y-102052380D01*
X169275142Y-102004761D01*
X169227523Y-101957142D01*
X170418000Y-101052380D02*
X170513238Y-101052380D01*
X170608476Y-101100000D01*
X170656095Y-101147619D01*
X170703714Y-101242857D01*
X170751333Y-101433333D01*
X170751333Y-101671428D01*
X170703714Y-101861904D01*
X170656095Y-101957142D01*
X170608476Y-102004761D01*
X170513238Y-102052380D01*
X170418000Y-102052380D01*
X170322761Y-102004761D01*
X170275142Y-101957142D01*
X170227523Y-101861904D01*
X170179904Y-101671428D01*
X170179904Y-101433333D01*
X170227523Y-101242857D01*
X170275142Y-101147619D01*
X170322761Y-101100000D01*
X170418000Y-101052380D01*
X171370380Y-101052380D02*
X171465619Y-101052380D01*
X171560857Y-101100000D01*
X171608476Y-101147619D01*
X171656095Y-101242857D01*
X171703714Y-101433333D01*
X171703714Y-101671428D01*
X171656095Y-101861904D01*
X171608476Y-101957142D01*
X171560857Y-102004761D01*
X171465619Y-102052380D01*
X171370380Y-102052380D01*
X171275142Y-102004761D01*
X171227523Y-101957142D01*
X171179904Y-101861904D01*
X171132285Y-101671428D01*
X171132285Y-101433333D01*
X171179904Y-101242857D01*
X171227523Y-101147619D01*
X171275142Y-101100000D01*
X171370380Y-101052380D01*
%TO.C,SW1*%
X117284666Y-80414761D02*
X117427523Y-80462380D01*
X117665619Y-80462380D01*
X117760857Y-80414761D01*
X117808476Y-80367142D01*
X117856095Y-80271904D01*
X117856095Y-80176666D01*
X117808476Y-80081428D01*
X117760857Y-80033809D01*
X117665619Y-79986190D01*
X117475142Y-79938571D01*
X117379904Y-79890952D01*
X117332285Y-79843333D01*
X117284666Y-79748095D01*
X117284666Y-79652857D01*
X117332285Y-79557619D01*
X117379904Y-79510000D01*
X117475142Y-79462380D01*
X117713238Y-79462380D01*
X117856095Y-79510000D01*
X118189428Y-79462380D02*
X118427523Y-80462380D01*
X118618000Y-79748095D01*
X118808476Y-80462380D01*
X119046571Y-79462380D01*
X119951333Y-80462380D02*
X119379904Y-80462380D01*
X119665619Y-80462380D02*
X119665619Y-79462380D01*
X119570380Y-79605238D01*
X119475142Y-79700476D01*
X119379904Y-79748095D01*
X113458714Y-78462142D02*
X113411095Y-78509761D01*
X113268238Y-78557380D01*
X113173000Y-78557380D01*
X113030142Y-78509761D01*
X112934904Y-78414523D01*
X112887285Y-78319285D01*
X112839666Y-78128809D01*
X112839666Y-77985952D01*
X112887285Y-77795476D01*
X112934904Y-77700238D01*
X113030142Y-77605000D01*
X113173000Y-77557380D01*
X113268238Y-77557380D01*
X113411095Y-77605000D01*
X113458714Y-77652619D01*
X113887285Y-78557380D02*
X113887285Y-77557380D01*
X114268238Y-77557380D01*
X114363476Y-77605000D01*
X114411095Y-77652619D01*
X114458714Y-77747857D01*
X114458714Y-77890714D01*
X114411095Y-77985952D01*
X114363476Y-78033571D01*
X114268238Y-78081190D01*
X113887285Y-78081190D01*
X114887285Y-77557380D02*
X114887285Y-78366904D01*
X114934904Y-78462142D01*
X114982523Y-78509761D01*
X115077761Y-78557380D01*
X115268238Y-78557380D01*
X115363476Y-78509761D01*
X115411095Y-78462142D01*
X115458714Y-78366904D01*
X115458714Y-77557380D01*
%TO.C,SW2*%
X117411666Y-87399761D02*
X117554523Y-87447380D01*
X117792619Y-87447380D01*
X117887857Y-87399761D01*
X117935476Y-87352142D01*
X117983095Y-87256904D01*
X117983095Y-87161666D01*
X117935476Y-87066428D01*
X117887857Y-87018809D01*
X117792619Y-86971190D01*
X117602142Y-86923571D01*
X117506904Y-86875952D01*
X117459285Y-86828333D01*
X117411666Y-86733095D01*
X117411666Y-86637857D01*
X117459285Y-86542619D01*
X117506904Y-86495000D01*
X117602142Y-86447380D01*
X117840238Y-86447380D01*
X117983095Y-86495000D01*
X118316428Y-86447380D02*
X118554523Y-87447380D01*
X118745000Y-86733095D01*
X118935476Y-87447380D01*
X119173571Y-86447380D01*
X119506904Y-86542619D02*
X119554523Y-86495000D01*
X119649761Y-86447380D01*
X119887857Y-86447380D01*
X119983095Y-86495000D01*
X120030714Y-86542619D01*
X120078333Y-86637857D01*
X120078333Y-86733095D01*
X120030714Y-86875952D01*
X119459285Y-87447380D01*
X120078333Y-87447380D01*
X112482523Y-85542380D02*
X112482523Y-84542380D01*
X112720619Y-84542380D01*
X112863476Y-84590000D01*
X112958714Y-84685238D01*
X113006333Y-84780476D01*
X113053952Y-84970952D01*
X113053952Y-85113809D01*
X113006333Y-85304285D01*
X112958714Y-85399523D01*
X112863476Y-85494761D01*
X112720619Y-85542380D01*
X112482523Y-85542380D01*
X113911095Y-84875714D02*
X113911095Y-85542380D01*
X113673000Y-84494761D02*
X113434904Y-85209047D01*
X114053952Y-85209047D01*
X114625380Y-84542380D02*
X114720619Y-84542380D01*
X114815857Y-84590000D01*
X114863476Y-84637619D01*
X114911095Y-84732857D01*
X114958714Y-84923333D01*
X114958714Y-85161428D01*
X114911095Y-85351904D01*
X114863476Y-85447142D01*
X114815857Y-85494761D01*
X114720619Y-85542380D01*
X114625380Y-85542380D01*
X114530142Y-85494761D01*
X114482523Y-85447142D01*
X114434904Y-85351904D01*
X114387285Y-85161428D01*
X114387285Y-84923333D01*
X114434904Y-84732857D01*
X114482523Y-84637619D01*
X114530142Y-84590000D01*
X114625380Y-84542380D01*
X115577761Y-84542380D02*
X115673000Y-84542380D01*
X115768238Y-84590000D01*
X115815857Y-84637619D01*
X115863476Y-84732857D01*
X115911095Y-84923333D01*
X115911095Y-85161428D01*
X115863476Y-85351904D01*
X115815857Y-85447142D01*
X115768238Y-85494761D01*
X115673000Y-85542380D01*
X115577761Y-85542380D01*
X115482523Y-85494761D01*
X115434904Y-85447142D01*
X115387285Y-85351904D01*
X115339666Y-85161428D01*
X115339666Y-84923333D01*
X115387285Y-84732857D01*
X115434904Y-84637619D01*
X115482523Y-84590000D01*
X115577761Y-84542380D01*
%TO.C,P1*%
X147089904Y-121737380D02*
X147089904Y-120737380D01*
X147470857Y-120737380D01*
X147566095Y-120785000D01*
X147613714Y-120832619D01*
X147661333Y-120927857D01*
X147661333Y-121070714D01*
X147613714Y-121165952D01*
X147566095Y-121213571D01*
X147470857Y-121261190D01*
X147089904Y-121261190D01*
X148613714Y-121737380D02*
X148042285Y-121737380D01*
X148328000Y-121737380D02*
X148328000Y-120737380D01*
X148232761Y-120880238D01*
X148137523Y-120975476D01*
X148042285Y-121023095D01*
%TO.C,P2*%
X167663904Y-121737380D02*
X167663904Y-120737380D01*
X168044857Y-120737380D01*
X168140095Y-120785000D01*
X168187714Y-120832619D01*
X168235333Y-120927857D01*
X168235333Y-121070714D01*
X168187714Y-121165952D01*
X168140095Y-121213571D01*
X168044857Y-121261190D01*
X167663904Y-121261190D01*
X168616285Y-120832619D02*
X168663904Y-120785000D01*
X168759142Y-120737380D01*
X168997238Y-120737380D01*
X169092476Y-120785000D01*
X169140095Y-120832619D01*
X169187714Y-120927857D01*
X169187714Y-121023095D01*
X169140095Y-121165952D01*
X168568666Y-121737380D01*
X169187714Y-121737380D01*
%TO.C,P3*%
X140485904Y-78811380D02*
X140485904Y-77811380D01*
X140866857Y-77811380D01*
X140962095Y-77859000D01*
X141009714Y-77906619D01*
X141057333Y-78001857D01*
X141057333Y-78144714D01*
X141009714Y-78239952D01*
X140962095Y-78287571D01*
X140866857Y-78335190D01*
X140485904Y-78335190D01*
X141390666Y-77811380D02*
X142009714Y-77811380D01*
X141676380Y-78192333D01*
X141819238Y-78192333D01*
X141914476Y-78239952D01*
X141962095Y-78287571D01*
X142009714Y-78382809D01*
X142009714Y-78620904D01*
X141962095Y-78716142D01*
X141914476Y-78763761D01*
X141819238Y-78811380D01*
X141533523Y-78811380D01*
X141438285Y-78763761D01*
X141390666Y-78716142D01*
%TO.C,P4*%
X164869904Y-78811380D02*
X164869904Y-77811380D01*
X165250857Y-77811380D01*
X165346095Y-77859000D01*
X165393714Y-77906619D01*
X165441333Y-78001857D01*
X165441333Y-78144714D01*
X165393714Y-78239952D01*
X165346095Y-78287571D01*
X165250857Y-78335190D01*
X164869904Y-78335190D01*
X166298476Y-78144714D02*
X166298476Y-78811380D01*
X166060380Y-77763761D02*
X165822285Y-78478047D01*
X166441333Y-78478047D01*
%TO.C,J1*%
X111720380Y-110823333D02*
X112434666Y-110823333D01*
X112577523Y-110870952D01*
X112672761Y-110966190D01*
X112720380Y-111109047D01*
X112720380Y-111204285D01*
X112720380Y-109823333D02*
X112720380Y-110394761D01*
X112720380Y-110109047D02*
X111720380Y-110109047D01*
X111863238Y-110204285D01*
X111958476Y-110299523D01*
X112006095Y-110394761D01*
X112720380Y-107362142D02*
X111720380Y-107362142D01*
X111815619Y-106933571D02*
X111768000Y-106885952D01*
X111720380Y-106790714D01*
X111720380Y-106552619D01*
X111768000Y-106457380D01*
X111815619Y-106409761D01*
X111910857Y-106362142D01*
X112006095Y-106362142D01*
X112148952Y-106409761D01*
X112720380Y-106981190D01*
X112720380Y-106362142D01*
X112625142Y-105362142D02*
X112672761Y-105409761D01*
X112720380Y-105552619D01*
X112720380Y-105647857D01*
X112672761Y-105790714D01*
X112577523Y-105885952D01*
X112482285Y-105933571D01*
X112291809Y-105981190D01*
X112148952Y-105981190D01*
X111958476Y-105933571D01*
X111863238Y-105885952D01*
X111768000Y-105790714D01*
X111720380Y-105647857D01*
X111720380Y-105552619D01*
X111768000Y-105409761D01*
X111815619Y-105362142D01*
X112339428Y-104933571D02*
X112339428Y-104171666D01*
X112672761Y-103743095D02*
X112720380Y-103600238D01*
X112720380Y-103362142D01*
X112672761Y-103266904D01*
X112625142Y-103219285D01*
X112529904Y-103171666D01*
X112434666Y-103171666D01*
X112339428Y-103219285D01*
X112291809Y-103266904D01*
X112244190Y-103362142D01*
X112196571Y-103552619D01*
X112148952Y-103647857D01*
X112101333Y-103695476D01*
X112006095Y-103743095D01*
X111910857Y-103743095D01*
X111815619Y-103695476D01*
X111768000Y-103647857D01*
X111720380Y-103552619D01*
X111720380Y-103314523D01*
X111768000Y-103171666D01*
X112720380Y-102743095D02*
X111720380Y-102743095D01*
X112196571Y-102743095D02*
X112196571Y-102171666D01*
X112720380Y-102171666D02*
X111720380Y-102171666D01*
X111720380Y-101838333D02*
X111720380Y-101266904D01*
X112720380Y-101552619D02*
X111720380Y-101552619D01*
X111720380Y-101028809D02*
X111720380Y-100409761D01*
X112101333Y-100743095D01*
X112101333Y-100600238D01*
X112148952Y-100505000D01*
X112196571Y-100457380D01*
X112291809Y-100409761D01*
X112529904Y-100409761D01*
X112625142Y-100457380D01*
X112672761Y-100505000D01*
X112720380Y-100600238D01*
X112720380Y-100885952D01*
X112672761Y-100981190D01*
X112625142Y-101028809D01*
X112720380Y-100076428D02*
X112053714Y-99552619D01*
X112053714Y-100076428D02*
X112720380Y-99552619D01*
%TO.C,J2*%
X119975380Y-110823333D02*
X120689666Y-110823333D01*
X120832523Y-110870952D01*
X120927761Y-110966190D01*
X120975380Y-111109047D01*
X120975380Y-111204285D01*
X120070619Y-110394761D02*
X120023000Y-110347142D01*
X119975380Y-110251904D01*
X119975380Y-110013809D01*
X120023000Y-109918571D01*
X120070619Y-109870952D01*
X120165857Y-109823333D01*
X120261095Y-109823333D01*
X120403952Y-109870952D01*
X120975380Y-110442380D01*
X120975380Y-109823333D01*
X120975380Y-106917619D02*
X119975380Y-106917619D01*
X120070619Y-106489047D02*
X120023000Y-106441428D01*
X119975380Y-106346190D01*
X119975380Y-106108095D01*
X120023000Y-106012857D01*
X120070619Y-105965238D01*
X120165857Y-105917619D01*
X120261095Y-105917619D01*
X120403952Y-105965238D01*
X120975380Y-106536666D01*
X120975380Y-105917619D01*
X120880142Y-104917619D02*
X120927761Y-104965238D01*
X120975380Y-105108095D01*
X120975380Y-105203333D01*
X120927761Y-105346190D01*
X120832523Y-105441428D01*
X120737285Y-105489047D01*
X120546809Y-105536666D01*
X120403952Y-105536666D01*
X120213476Y-105489047D01*
X120118238Y-105441428D01*
X120023000Y-105346190D01*
X119975380Y-105203333D01*
X119975380Y-105108095D01*
X120023000Y-104965238D01*
X120070619Y-104917619D01*
X120594428Y-104489047D02*
X120594428Y-103727142D01*
X119975380Y-103393809D02*
X119975380Y-102822380D01*
X120975380Y-103108095D02*
X119975380Y-103108095D01*
X120975380Y-102489047D02*
X119975380Y-102489047D01*
X120975380Y-102060476D02*
X120451571Y-102060476D01*
X120356333Y-102108095D01*
X120308714Y-102203333D01*
X120308714Y-102346190D01*
X120356333Y-102441428D01*
X120403952Y-102489047D01*
X120975380Y-101584285D02*
X120308714Y-101584285D01*
X120403952Y-101584285D02*
X120356333Y-101536666D01*
X120308714Y-101441428D01*
X120308714Y-101298571D01*
X120356333Y-101203333D01*
X120451571Y-101155714D01*
X120975380Y-101155714D01*
X120451571Y-101155714D02*
X120356333Y-101108095D01*
X120308714Y-101012857D01*
X120308714Y-100870000D01*
X120356333Y-100774761D01*
X120451571Y-100727142D01*
X120975380Y-100727142D01*
X120880142Y-99679523D02*
X120927761Y-99727142D01*
X120975380Y-99870000D01*
X120975380Y-99965238D01*
X120927761Y-100108095D01*
X120832523Y-100203333D01*
X120737285Y-100250952D01*
X120546809Y-100298571D01*
X120403952Y-100298571D01*
X120213476Y-100250952D01*
X120118238Y-100203333D01*
X120023000Y-100108095D01*
X119975380Y-99965238D01*
X119975380Y-99870000D01*
X120023000Y-99727142D01*
X120070619Y-99679523D01*
X120308714Y-99250952D02*
X121308714Y-99250952D01*
X120356333Y-99250952D02*
X120308714Y-99155714D01*
X120308714Y-98965238D01*
X120356333Y-98870000D01*
X120403952Y-98822380D01*
X120499190Y-98774761D01*
X120784904Y-98774761D01*
X120880142Y-98822380D01*
X120927761Y-98870000D01*
X120975380Y-98965238D01*
X120975380Y-99155714D01*
X120927761Y-99250952D01*
%TO.C,J3*%
X128230380Y-110823333D02*
X128944666Y-110823333D01*
X129087523Y-110870952D01*
X129182761Y-110966190D01*
X129230380Y-111109047D01*
X129230380Y-111204285D01*
X128230380Y-110442380D02*
X128230380Y-109823333D01*
X128611333Y-110156666D01*
X128611333Y-110013809D01*
X128658952Y-109918571D01*
X128706571Y-109870952D01*
X128801809Y-109823333D01*
X129039904Y-109823333D01*
X129135142Y-109870952D01*
X129182761Y-109918571D01*
X129230380Y-110013809D01*
X129230380Y-110299523D01*
X129182761Y-110394761D01*
X129135142Y-110442380D01*
X129230380Y-107481428D02*
X128230380Y-107481428D01*
X128325619Y-107052857D02*
X128278000Y-107005238D01*
X128230380Y-106910000D01*
X128230380Y-106671904D01*
X128278000Y-106576666D01*
X128325619Y-106529047D01*
X128420857Y-106481428D01*
X128516095Y-106481428D01*
X128658952Y-106529047D01*
X129230380Y-107100476D01*
X129230380Y-106481428D01*
X129135142Y-105481428D02*
X129182761Y-105529047D01*
X129230380Y-105671904D01*
X129230380Y-105767142D01*
X129182761Y-105910000D01*
X129087523Y-106005238D01*
X128992285Y-106052857D01*
X128801809Y-106100476D01*
X128658952Y-106100476D01*
X128468476Y-106052857D01*
X128373238Y-106005238D01*
X128278000Y-105910000D01*
X128230380Y-105767142D01*
X128230380Y-105671904D01*
X128278000Y-105529047D01*
X128325619Y-105481428D01*
X128849428Y-105052857D02*
X128849428Y-104290952D01*
X128230380Y-103910000D02*
X128230380Y-103290952D01*
X128611333Y-103624285D01*
X128611333Y-103481428D01*
X128658952Y-103386190D01*
X128706571Y-103338571D01*
X128801809Y-103290952D01*
X129039904Y-103290952D01*
X129135142Y-103338571D01*
X129182761Y-103386190D01*
X129230380Y-103481428D01*
X129230380Y-103767142D01*
X129182761Y-103862380D01*
X129135142Y-103910000D01*
%TO.C,J4*%
X136485380Y-110823333D02*
X137199666Y-110823333D01*
X137342523Y-110870952D01*
X137437761Y-110966190D01*
X137485380Y-111109047D01*
X137485380Y-111204285D01*
X136818714Y-109918571D02*
X137485380Y-109918571D01*
X136437761Y-110156666D02*
X137152047Y-110394761D01*
X137152047Y-109775714D01*
X137485380Y-107481428D02*
X136485380Y-107481428D01*
X136580619Y-107052857D02*
X136533000Y-107005238D01*
X136485380Y-106910000D01*
X136485380Y-106671904D01*
X136533000Y-106576666D01*
X136580619Y-106529047D01*
X136675857Y-106481428D01*
X136771095Y-106481428D01*
X136913952Y-106529047D01*
X137485380Y-107100476D01*
X137485380Y-106481428D01*
X137390142Y-105481428D02*
X137437761Y-105529047D01*
X137485380Y-105671904D01*
X137485380Y-105767142D01*
X137437761Y-105910000D01*
X137342523Y-106005238D01*
X137247285Y-106052857D01*
X137056809Y-106100476D01*
X136913952Y-106100476D01*
X136723476Y-106052857D01*
X136628238Y-106005238D01*
X136533000Y-105910000D01*
X136485380Y-105767142D01*
X136485380Y-105671904D01*
X136533000Y-105529047D01*
X136580619Y-105481428D01*
X137104428Y-105052857D02*
X137104428Y-104290952D01*
X136818714Y-103386190D02*
X137485380Y-103386190D01*
X136437761Y-103624285D02*
X137152047Y-103862380D01*
X137152047Y-103243333D01*
%TD*%
M02*
