%TF.GenerationSoftware,KiCad,Pcbnew,5.1.6-c6e7f7d~87~ubuntu18.04.1*%
%TF.CreationDate,2020-10-04T11:14:42+09:00*%
%TF.ProjectId,M302,4d333032-2e6b-4696-9361-645f70636258,rev?*%
%TF.SameCoordinates,Original*%
%TF.FileFunction,Soldermask,Top*%
%TF.FilePolarity,Negative*%
%FSLAX46Y46*%
G04 Gerber Fmt 4.6, Leading zero omitted, Abs format (unit mm)*
G04 Created by KiCad (PCBNEW 5.1.6-c6e7f7d~87~ubuntu18.04.1) date 2020-10-04 11:14:42*
%MOMM*%
%LPD*%
G01*
G04 APERTURE LIST*
%ADD10O,1.700000X1.950000*%
%ADD11C,2.000000*%
%ADD12O,1.524000X2.844800*%
%ADD13O,2.000000X1.700000*%
%ADD14C,1.600000*%
%ADD15R,1.600000X1.600000*%
%ADD16O,1.950000X1.700000*%
%ADD17O,1.700000X1.700000*%
%ADD18R,1.700000X1.700000*%
%ADD19O,1.600000X1.600000*%
%ADD20O,1.727200X2.032000*%
%ADD21C,4.064000*%
G04 APERTURE END LIST*
D10*
%TO.C,J5*%
X132828000Y-93345000D03*
X135328000Y-93345000D03*
X137828000Y-93345000D03*
X140328000Y-93345000D03*
X142828000Y-93345000D03*
X145328000Y-93345000D03*
G36*
G01*
X148678000Y-92620000D02*
X148678000Y-94070000D01*
G75*
G02*
X148428000Y-94320000I-250000J0D01*
G01*
X147228000Y-94320000D01*
G75*
G02*
X146978000Y-94070000I0J250000D01*
G01*
X146978000Y-92620000D01*
G75*
G02*
X147228000Y-92370000I250000J0D01*
G01*
X148428000Y-92370000D01*
G75*
G02*
X148678000Y-92620000I0J-250000D01*
G01*
G37*
%TD*%
D11*
%TO.C,SW3*%
X116118000Y-93980000D03*
X121118000Y-93980000D03*
%TD*%
D12*
%TO.C,U1*%
X155448000Y-82550000D03*
X157988000Y-82550000D03*
X160528000Y-82550000D03*
X163068000Y-82550000D03*
X165608000Y-82550000D03*
X163068000Y-92710000D03*
X165608000Y-92710000D03*
X160528000Y-92710000D03*
X157988000Y-92710000D03*
X168148000Y-82550000D03*
X168148000Y-92710000D03*
X155448000Y-92710000D03*
%TD*%
D13*
%TO.C,J8*%
X116078000Y-116880000D03*
G36*
G01*
X116828000Y-120230000D02*
X115328000Y-120230000D01*
G75*
G02*
X115078000Y-119980000I0J250000D01*
G01*
X115078000Y-118780000D01*
G75*
G02*
X115328000Y-118530000I250000J0D01*
G01*
X116828000Y-118530000D01*
G75*
G02*
X117078000Y-118780000I0J-250000D01*
G01*
X117078000Y-119980000D01*
G75*
G02*
X116828000Y-120230000I-250000J0D01*
G01*
G37*
%TD*%
D14*
%TO.C,C1*%
X126238000Y-114840000D03*
D15*
X126238000Y-116840000D03*
%TD*%
D16*
%TO.C,J7*%
X156718000Y-102435000D03*
X156718000Y-104935000D03*
X156718000Y-107435000D03*
X156718000Y-109935000D03*
X156718000Y-112435000D03*
G36*
G01*
X157443000Y-115785000D02*
X155993000Y-115785000D01*
G75*
G02*
X155743000Y-115535000I0J250000D01*
G01*
X155743000Y-114335000D01*
G75*
G02*
X155993000Y-114085000I250000J0D01*
G01*
X157443000Y-114085000D01*
G75*
G02*
X157693000Y-114335000I0J-250000D01*
G01*
X157693000Y-115535000D01*
G75*
G02*
X157443000Y-115785000I-250000J0D01*
G01*
G37*
%TD*%
D17*
%TO.C,J6*%
X170053000Y-114300000D03*
X167513000Y-114300000D03*
X170053000Y-111760000D03*
X167513000Y-111760000D03*
X170053000Y-109220000D03*
X167513000Y-109220000D03*
X170053000Y-106680000D03*
X167513000Y-106680000D03*
X170053000Y-104140000D03*
D18*
X167513000Y-104140000D03*
%TD*%
D11*
%TO.C,SW1*%
X121118000Y-80010000D03*
X116118000Y-80010000D03*
%TD*%
D19*
%TO.C,R1*%
X126873000Y-83185000D03*
D14*
X126873000Y-93345000D03*
%TD*%
D11*
%TO.C,SW2*%
X121118000Y-86995000D03*
X116118000Y-86995000D03*
%TD*%
D20*
%TO.C,P1*%
X138938000Y-123825000D03*
X141478000Y-123825000D03*
X144018000Y-123825000D03*
X146558000Y-123825000D03*
X149098000Y-123825000D03*
X151638000Y-123825000D03*
X154178000Y-123825000D03*
X156718000Y-123825000D03*
%TD*%
%TO.C,P2*%
X161798000Y-123825000D03*
X164338000Y-123825000D03*
X166878000Y-123825000D03*
X169418000Y-123825000D03*
X171958000Y-123825000D03*
X174498000Y-123825000D03*
%TD*%
%TO.C,P3*%
X129794000Y-75565000D03*
X132334000Y-75565000D03*
X134874000Y-75565000D03*
X137414000Y-75565000D03*
X139954000Y-75565000D03*
X142494000Y-75565000D03*
X145034000Y-75565000D03*
X147574000Y-75565000D03*
X150114000Y-75565000D03*
X152654000Y-75565000D03*
%TD*%
%TO.C,P4*%
X156718000Y-75565000D03*
X159258000Y-75565000D03*
X161798000Y-75565000D03*
X164338000Y-75565000D03*
X166878000Y-75565000D03*
X169418000Y-75565000D03*
X171958000Y-75565000D03*
X174498000Y-75565000D03*
%TD*%
D21*
%TO.C,P5*%
X124968000Y-123825000D03*
%TD*%
%TO.C,P6*%
X177038000Y-118745000D03*
%TD*%
%TO.C,P7*%
X126238000Y-75565000D03*
%TD*%
%TO.C,P8*%
X177038000Y-90805000D03*
%TD*%
D16*
%TO.C,J1*%
X116078000Y-101085000D03*
X116078000Y-103585000D03*
X116078000Y-106085000D03*
G36*
G01*
X116803000Y-109435000D02*
X115353000Y-109435000D01*
G75*
G02*
X115103000Y-109185000I0J250000D01*
G01*
X115103000Y-107985000D01*
G75*
G02*
X115353000Y-107735000I250000J0D01*
G01*
X116803000Y-107735000D01*
G75*
G02*
X117053000Y-107985000I0J-250000D01*
G01*
X117053000Y-109185000D01*
G75*
G02*
X116803000Y-109435000I-250000J0D01*
G01*
G37*
%TD*%
%TO.C,J2*%
G36*
G01*
X126963000Y-109435000D02*
X125513000Y-109435000D01*
G75*
G02*
X125263000Y-109185000I0J250000D01*
G01*
X125263000Y-107985000D01*
G75*
G02*
X125513000Y-107735000I250000J0D01*
G01*
X126963000Y-107735000D01*
G75*
G02*
X127213000Y-107985000I0J-250000D01*
G01*
X127213000Y-109185000D01*
G75*
G02*
X126963000Y-109435000I-250000J0D01*
G01*
G37*
X126238000Y-106085000D03*
X126238000Y-103585000D03*
X126238000Y-101085000D03*
%TD*%
%TO.C,J3*%
X136398000Y-101085000D03*
X136398000Y-103585000D03*
X136398000Y-106085000D03*
G36*
G01*
X137123000Y-109435000D02*
X135673000Y-109435000D01*
G75*
G02*
X135423000Y-109185000I0J250000D01*
G01*
X135423000Y-107985000D01*
G75*
G02*
X135673000Y-107735000I250000J0D01*
G01*
X137123000Y-107735000D01*
G75*
G02*
X137373000Y-107985000I0J-250000D01*
G01*
X137373000Y-109185000D01*
G75*
G02*
X137123000Y-109435000I-250000J0D01*
G01*
G37*
%TD*%
%TO.C,J4*%
G36*
G01*
X147283000Y-109435000D02*
X145833000Y-109435000D01*
G75*
G02*
X145583000Y-109185000I0J250000D01*
G01*
X145583000Y-107985000D01*
G75*
G02*
X145833000Y-107735000I250000J0D01*
G01*
X147283000Y-107735000D01*
G75*
G02*
X147533000Y-107985000I0J-250000D01*
G01*
X147533000Y-109185000D01*
G75*
G02*
X147283000Y-109435000I-250000J0D01*
G01*
G37*
X146558000Y-106085000D03*
X146558000Y-103585000D03*
X146558000Y-101085000D03*
%TD*%
M02*
