%TF.GenerationSoftware,KiCad,Pcbnew,5.1.6-c6e7f7d~87~ubuntu18.04.1*%
%TF.CreationDate,2020-10-04T11:14:42+09:00*%
%TF.ProjectId,M302,4d333032-2e6b-4696-9361-645f70636258,rev?*%
%TF.SameCoordinates,Original*%
%TF.FileFunction,Legend,Bot*%
%TF.FilePolarity,Positive*%
%FSLAX46Y46*%
G04 Gerber Fmt 4.6, Leading zero omitted, Abs format (unit mm)*
G04 Created by KiCad (PCBNEW 5.1.6-c6e7f7d~87~ubuntu18.04.1) date 2020-10-04 11:14:42*
%MOMM*%
%LPD*%
G01*
G04 APERTURE LIST*
%ADD10C,0.150000*%
G04 APERTURE END LIST*
D10*
X142303476Y-104227380D02*
X142779666Y-104227380D01*
X142827285Y-104703571D01*
X142779666Y-104655952D01*
X142684428Y-104608333D01*
X142446333Y-104608333D01*
X142351095Y-104655952D01*
X142303476Y-104703571D01*
X142255857Y-104798809D01*
X142255857Y-105036904D01*
X142303476Y-105132142D01*
X142351095Y-105179761D01*
X142446333Y-105227380D01*
X142684428Y-105227380D01*
X142779666Y-105179761D01*
X142827285Y-105132142D01*
X141970142Y-104227380D02*
X141636809Y-105227380D01*
X141303476Y-104227380D01*
X144597285Y-103274761D02*
X144454428Y-103322380D01*
X144216333Y-103322380D01*
X144121095Y-103274761D01*
X144073476Y-103227142D01*
X144025857Y-103131904D01*
X144025857Y-103036666D01*
X144073476Y-102941428D01*
X144121095Y-102893809D01*
X144216333Y-102846190D01*
X144406809Y-102798571D01*
X144502047Y-102750952D01*
X144549666Y-102703333D01*
X144597285Y-102608095D01*
X144597285Y-102512857D01*
X144549666Y-102417619D01*
X144502047Y-102370000D01*
X144406809Y-102322380D01*
X144168714Y-102322380D01*
X144025857Y-102370000D01*
X143597285Y-103322380D02*
X143597285Y-102322380D01*
X143359190Y-102322380D01*
X143216333Y-102370000D01*
X143121095Y-102465238D01*
X143073476Y-102560476D01*
X143025857Y-102750952D01*
X143025857Y-102893809D01*
X143073476Y-103084285D01*
X143121095Y-103179523D01*
X143216333Y-103274761D01*
X143359190Y-103322380D01*
X143597285Y-103322380D01*
X142644904Y-103036666D02*
X142168714Y-103036666D01*
X142740142Y-103322380D02*
X142406809Y-102322380D01*
X142073476Y-103322380D01*
X144573476Y-100734761D02*
X144430619Y-100782380D01*
X144192523Y-100782380D01*
X144097285Y-100734761D01*
X144049666Y-100687142D01*
X144002047Y-100591904D01*
X144002047Y-100496666D01*
X144049666Y-100401428D01*
X144097285Y-100353809D01*
X144192523Y-100306190D01*
X144383000Y-100258571D01*
X144478238Y-100210952D01*
X144525857Y-100163333D01*
X144573476Y-100068095D01*
X144573476Y-99972857D01*
X144525857Y-99877619D01*
X144478238Y-99830000D01*
X144383000Y-99782380D01*
X144144904Y-99782380D01*
X144002047Y-99830000D01*
X143002047Y-100687142D02*
X143049666Y-100734761D01*
X143192523Y-100782380D01*
X143287761Y-100782380D01*
X143430619Y-100734761D01*
X143525857Y-100639523D01*
X143573476Y-100544285D01*
X143621095Y-100353809D01*
X143621095Y-100210952D01*
X143573476Y-100020476D01*
X143525857Y-99925238D01*
X143430619Y-99830000D01*
X143287761Y-99782380D01*
X143192523Y-99782380D01*
X143049666Y-99830000D01*
X143002047Y-99877619D01*
X142097285Y-100782380D02*
X142573476Y-100782380D01*
X142573476Y-99782380D01*
M02*
